<?xml version="1.0" encoding="UTF-8" ?>
<!DOCTYPE svg PUBLIC "-//W3C//DTD SVG 1.1//EN" "http://www.w3.org/Graphics/SVG/1.1/DTD/svg11.dtd">
<svg width="520pt" height="526pt" viewBox="0 0 520 526" version="1.1" xmlns="http://www.w3.org/2000/svg">
<g id="#ffffffff">
<path fill="#0C231E" opacity="1.00" d=" M 237.51 44.84 C 261.29 42.61 285.46 43.82 308.74 49.24 C 327.97 53.57 346.36 61.06 363.77 70.21 C 388.14 83.27 410.19 100.80 427.92 122.04 C 444.12 141.44 456.73 163.73 465.71 187.33 C 483.39 234.19 483.95 287.30 467.34 334.54 C 453.63 373.04 429.87 408.27 397.77 433.78 C 388.30 441.64 377.78 448.06 367.20 454.27 C 349.34 464.10 330.37 472.06 310.48 476.74 C 276.27 484.85 240.10 484.57 206.03 475.88 C 178.09 468.61 151.80 455.59 128.46 438.69 C 98.58 416.47 74.90 386.27 59.82 352.27 C 32.78 293.75 34.44 223.05 63.75 165.69 C 76.45 139.96 94.06 116.54 115.91 97.88 C 135.06 81.18 157.28 68.19 180.86 58.80 C 198.92 51.37 218.12 47.01 237.51 44.84 M 241.59 62.86 C 197.64 66.90 155.09 85.70 122.72 115.73 C 95.20 141.45 75.49 175.15 65.62 211.43 C 55.82 248.13 56.72 287.62 68.20 323.83 C 79.57 358.55 99.64 390.73 127.46 414.65 C 162.19 444.48 207.08 463.01 253.03 464.09 C 270.29 464.52 287.70 463.41 304.51 459.33 C 327.41 454.20 349.17 444.63 369.01 432.17 C 399.16 413.16 423.79 385.63 439.50 353.64 C 462.38 309.15 467.24 255.93 453.38 207.91 C 445.50 180.89 432.17 155.42 414.23 133.72 C 372.96 83.67 306.04 56.64 241.59 62.86 Z" />
<path fill="#0C231E" opacity="1.00" d=" M 252.44 117.63 C 262.64 115.43 273.51 118.00 281.92 124.06 C 288.14 129.07 293.21 135.80 295.18 143.63 C 297.75 153.43 296.53 164.46 290.91 173.01 C 285.44 181.10 276.99 187.43 267.24 189.09 C 258.44 190.87 249.00 189.31 241.25 184.78 C 232.22 179.12 225.14 169.77 223.91 159.00 C 222.40 148.56 225.24 137.35 232.44 129.50 C 237.41 123.29 244.80 119.42 252.44 117.63 Z" />
<path fill="#0C231E" opacity="1.00" d=" M 124.56 191.56 C 127.77 183.08 138.17 179.57 146.48 181.75 C 172.05 187.74 197.82 193.07 223.86 196.57 C 237.85 198.05 251.88 199.69 265.97 199.12 C 302.86 197.53 339.08 189.59 374.99 181.47 C 382.46 180.07 391.39 183.10 394.82 190.29 C 399.10 197.99 396.92 208.62 389.79 213.85 C 386.39 216.45 382.02 216.93 377.99 217.94 C 359.79 222.24 341.47 226.05 323.09 229.52 C 314.28 231.02 305.40 232.06 296.57 233.50 C 297.01 262.24 298.30 291.01 302.17 319.51 C 303.74 330.76 305.30 342.06 308.13 353.09 C 311.23 364.17 315.35 374.93 319.46 385.67 C 321.20 390.40 324.01 394.89 324.14 400.07 C 324.32 408.66 317.66 417.07 309.03 418.25 C 303.49 418.90 297.13 418.02 293.16 413.73 C 290.46 411.20 289.06 407.69 287.58 404.39 C 277.70 379.53 269.99 353.73 265.99 327.25 C 262.00 327.24 258.00 327.24 254.01 327.25 C 250.54 349.63 244.68 371.61 236.76 392.82 C 234.47 399.00 232.50 405.38 229.07 411.06 C 223.06 420.51 207.65 420.98 200.59 412.51 C 196.33 407.77 194.57 400.76 196.85 394.70 C 204.05 376.60 211.72 358.42 214.84 339.07 C 220.93 304.23 222.91 268.82 223.43 233.51 C 214.59 232.06 205.69 231.02 196.86 229.51 C 176.30 225.63 155.80 221.34 135.47 216.37 C 125.20 213.79 120.13 200.85 124.56 191.56 Z" />
</g>
<g id="#ff0000ff">
<path fill="#fff" opacity="1.00" d=" M 242.55 7.84 C 272.99 5.76 303.78 9.11 332.99 17.96 C 368.65 28.81 402.12 47.13 430.14 71.76 C 460.19 98.09 483.09 132.10 497.86 169.12 C 516.52 215.08 520.66 266.60 510.67 315.12 C 502.23 354.99 484.06 392.73 458.70 424.59 C 406.58 489.52 320.94 525.77 238.05 518.05 C 193.61 514.39 150.53 498.28 113.79 473.19 C 90.29 457.17 69.72 436.94 53.13 413.86 C 38.91 394.16 27.77 372.35 19.10 349.67 C 4.53 309.68 0.60 266.01 6.97 223.97 C 14.78 175.14 36.87 128.64 69.71 91.68 C 113.72 43.00 177.08 12.26 242.55 7.84 M 237.51 44.84 C 218.12 47.01 198.92 51.37 180.86 58.80 C 157.28 68.19 135.06 81.18 115.91 97.88 C 94.06 116.54 76.45 139.96 63.75 165.69 C 34.44 223.05 32.78 293.75 59.82 352.27 C 74.90 386.27 98.58 416.47 128.46 438.69 C 151.80 455.59 178.09 468.61 206.03 475.88 C 240.10 484.57 276.27 484.85 310.48 476.74 C 330.37 472.06 349.34 464.10 367.20 454.27 C 377.78 448.06 388.30 441.64 397.77 433.78 C 429.87 408.27 453.63 373.04 467.34 334.54 C 483.95 287.30 483.39 234.19 465.71 187.33 C 456.73 163.73 444.12 141.44 427.92 122.04 C 410.19 100.80 388.14 83.27 363.77 70.21 C 346.36 61.06 327.97 53.57 308.74 49.24 C 285.46 43.82 261.29 42.61 237.51 44.84 Z" />
<path fill="#fff" opacity="1.00" d=" M 241.59 62.86 C 306.04 56.64 372.96 83.67 414.23 133.72 C 432.17 155.42 445.50 180.89 453.38 207.91 C 467.24 255.93 462.38 309.15 439.50 353.64 C 423.79 385.63 399.16 413.16 369.01 432.17 C 349.17 444.63 327.41 454.20 304.51 459.33 C 287.70 463.41 270.29 464.52 253.03 464.09 C 207.08 463.01 162.19 444.48 127.46 414.65 C 99.64 390.73 79.57 358.55 68.20 323.83 C 56.72 287.62 55.82 248.13 65.62 211.43 C 75.49 175.15 95.20 141.45 122.72 115.73 C 155.09 85.70 197.64 66.90 241.59 62.86 M 252.44 117.63 C 244.80 119.42 237.41 123.29 232.44 129.50 C 225.24 137.35 222.40 148.56 223.91 159.00 C 225.14 169.77 232.22 179.12 241.25 184.78 C 249.00 189.31 258.44 190.87 267.24 189.09 C 276.99 187.43 285.44 181.10 290.91 173.01 C 296.53 164.46 297.75 153.43 295.18 143.63 C 293.21 135.80 288.14 129.07 281.92 124.06 C 273.51 118.00 262.64 115.43 252.44 117.63 M 124.56 191.56 C 120.13 200.85 125.20 213.79 135.47 216.37 C 155.80 221.34 176.30 225.63 196.86 229.51 C 205.69 231.02 214.59 232.06 223.43 233.51 C 222.91 268.82 220.93 304.23 214.84 339.07 C 211.72 358.42 204.05 376.60 196.85 394.70 C 194.57 400.76 196.33 407.77 200.59 412.51 C 207.65 420.98 223.06 420.51 229.07 411.06 C 232.50 405.38 234.47 399.00 236.76 392.82 C 244.68 371.61 250.54 349.63 254.01 327.25 C 258.00 327.24 262.00 327.24 265.99 327.25 C 269.99 353.73 277.70 379.53 287.58 404.39 C 289.06 407.69 290.46 411.20 293.16 413.73 C 297.13 418.02 303.49 418.90 309.03 418.25 C 317.66 417.07 324.32 408.66 324.14 400.07 C 324.01 394.89 321.20 390.40 319.46 385.67 C 315.35 374.93 311.23 364.17 308.13 353.09 C 305.30 342.06 303.74 330.76 302.17 319.51 C 298.30 291.01 297.01 262.24 296.57 233.50 C 305.40 232.06 314.28 231.02 323.09 229.52 C 341.47 226.05 359.79 222.24 377.99 217.94 C 382.02 216.93 386.39 216.45 389.79 213.85 C 396.92 208.62 399.10 197.99 394.82 190.29 C 391.39 183.10 382.46 180.07 374.99 181.47 C 339.08 189.59 302.86 197.53 265.97 199.12 C 251.88 199.69 237.85 198.05 223.86 196.57 C 197.82 193.07 172.05 187.74 146.48 181.75 C 138.17 179.57 127.77 183.08 124.56 191.56 Z" />
</g>
</svg>
