<?xml version="1.0" encoding="UTF-8" ?>
<!DOCTYPE svg PUBLIC "-//W3C//DTD SVG 1.1//EN" "http://www.w3.org/Graphics/SVG/1.1/DTD/svg11.dtd">
<svg width="39pt" height="43pt" viewBox="0 0 39 43" version="1.1" xmlns="http://www.w3.org/2000/svg">
<g id="#d9edf7ff">
<path fill="#d9edf7" opacity="1.00" d=" M 16.63 19.10 C 14.27 15.52 19.58 9.79 22.99 12.76 C 21.57 13.46 19.91 13.69 18.64 14.68 C 17.87 16.11 17.29 17.63 16.63 19.10 Z" />
</g>
<g id="#31708fff">
<path fill="#31708f" opacity="1.00" d=" M 12.39 17.99 C 12.24 13.24 16.17 8.47 21.05 8.36 C 25.98 7.85 30.99 12.00 31.03 17.02 C 31.57 21.70 27.50 24.88 25.69 28.79 C 23.05 28.83 20.40 28.79 17.76 28.75 C 16.20 25.04 12.68 22.17 12.39 17.99 M 16.63 19.10 C 17.29 17.63 17.87 16.11 18.64 14.68 C 19.91 13.69 21.57 13.46 22.99 12.76 C 19.58 9.79 14.27 15.52 16.63 19.10 Z" />
<path fill="#31708f" opacity="1.00" d=" M 17.16 30.23 C 20.18 30.21 23.20 30.19 26.21 30.21 C 26.19 32.73 25.14 36.07 21.96 35.62 C 18.73 36.18 17.32 32.92 17.16 30.23 Z" />
</g>
</svg>
