<?xml version="1.0" encoding="UTF-8" ?>
<!DOCTYPE svg PUBLIC "-//W3C//DTD SVG 1.1//EN" "http://www.w3.org/Graphics/SVG/1.1/DTD/svg11.dtd">
<svg width="88pt" height="71pt" viewBox="0 0 88 71" version="1.1" xmlns="http://www.w3.org/2000/svg">
<g id="#ffffffff">
<path fill="#ffffff" opacity="1.00" d=" M 40.54 20.56 C 44.31 19.09 48.54 23.79 46.42 27.33 C 45.11 30.41 40.55 31.28 38.43 28.56 C 35.79 26.14 37.22 21.49 40.54 20.56 Z" />
<path fill="#ffffff" opacity="1.00" d=" M 35.65 32.85 C 38.98 32.79 42.31 32.76 45.63 32.89 C 45.77 36.99 45.78 41.09 45.60 45.19 C 46.59 45.75 47.58 46.30 48.57 46.86 C 48.49 48.36 48.42 49.86 48.35 51.37 C 44.12 51.50 39.88 51.50 35.65 51.37 C 35.58 49.87 35.51 48.37 35.43 46.87 C 36.42 46.31 37.40 45.74 38.39 45.18 C 38.31 43.10 38.29 41.02 38.31 38.94 C 37.34 38.36 36.38 37.78 35.41 37.20 C 35.50 35.75 35.58 34.30 35.65 32.85 Z" />
</g>
<g id="#ff0000ff">
<path fill="#ff0000" opacity="1.00" d=" M 33.38 8.64 C 40.38 6.58 48.14 7.09 54.74 10.22 C 62.59 14.17 68.78 21.65 70.50 30.36 C 71.74 37.16 71.02 44.50 67.56 50.58 C 63.43 57.81 56.27 63.50 47.98 65.01 C 38.41 67.00 27.87 64.05 21.15 56.84 C 12.34 48.26 10.48 33.87 16.09 23.06 C 19.74 16.32 25.96 10.80 33.38 8.64 M 40.54 20.56 C 37.22 21.49 35.79 26.14 38.43 28.56 C 40.55 31.28 45.11 30.41 46.42 27.33 C 48.54 23.79 44.31 19.09 40.54 20.56 M 35.65 32.85 C 35.58 34.30 35.50 35.75 35.41 37.20 C 36.38 37.78 37.34 38.36 38.31 38.94 C 38.29 41.02 38.31 43.10 38.39 45.18 C 37.40 45.74 36.42 46.31 35.43 46.87 C 35.51 48.37 35.58 49.87 35.65 51.37 C 39.88 51.50 44.12 51.50 48.35 51.37 C 48.42 49.86 48.49 48.36 48.57 46.86 C 47.58 46.30 46.59 45.75 45.60 45.19 C 45.78 41.09 45.77 36.99 45.63 32.89 C 42.31 32.76 38.98 32.79 35.65 32.85 Z" />
</g>
</svg>
