<?xml version="1.0" encoding="UTF-8" ?>
<!DOCTYPE svg PUBLIC "-//W3C//DTD SVG 1.1//EN" "http://www.w3.org/Graphics/SVG/1.1/DTD/svg11.dtd">
<svg width="52pt" height="66pt" viewBox="0 0 52 66" version="1.1" xmlns="http://www.w3.org/2000/svg">
<g id="#ffffffff">
</g>
<g id="#616161ff">
<path fill="#404041" opacity="1.00" d=" M 12.29 14.03 C 22.58 13.99 32.87 13.95 43.16 14.04 C 44.77 13.77 45.72 15.52 45.55 16.90 C 45.61 27.26 45.54 37.63 45.58 48.00 C 45.96 50.47 43.47 51.79 42.02 53.32 C 41.93 41.47 42.09 29.61 41.94 17.76 C 32.96 17.39 23.94 17.56 14.95 17.67 C 13.85 18.84 12.75 19.99 11.63 21.14 C 20.50 21.27 29.36 21.16 38.22 21.20 C 38.36 33.13 38.32 45.06 38.24 56.99 C 27.52 56.98 16.79 57.06 6.06 56.95 C 5.99 44.97 5.91 32.97 6.09 21.00 C 7.23 18.13 10.34 16.41 12.29 14.03 Z" />
</g>
</svg>
