<?xml version="1.0" encoding="utf-8"?>
<!-- Svg Vector Icons : http://www.onlinewebfonts.com/icon -->
<!DOCTYPE svg PUBLIC "-//W3C//DTD SVG 1.1//EN" "http://www.w3.org/Graphics/SVG/1.1/DTD/svg11.dtd">
<svg version="1.1" xmlns="http://www.w3.org/2000/svg" xmlns:xlink="http://www.w3.org/1999/xlink" x="0px" y="0px" viewBox="0 0 1000 1000" enable-background="new 0 0 1000 1000" xml:space="preserve">
<metadata> Svg Vector Icons : http://www.onlinewebfonts.com/icon </metadata>
<g><g><path fill="#fff" d="M936.4,982.7H64.9v-80.4h871.5V982.7z M500.6,17.3L10,365.9h87.6L500.6,83.1l402.1,282.8H990L500.6,17.3z M547.5,760.4V427.3c15.4-6.7,27.9-19.2,34.6-34.6h-163c6.7,15.4,19.2,27.9,34.6,34.6v333.1c-15.4,6.7-27.9,19.2-34.6,34.6h163C575.4,779.6,563,767.1,547.5,760.4z M306.2,760.4V427.3c15.4-6.7,27.9-19.2,34.6-34.6h-163c6.7,15.4,19.2,27.9,34.6,34.6v333.1c-15.4,6.7-27.9,19.2-34.6,34.6h163C334.1,779.6,321.6,767.1,306.2,760.4z M788.9,760.4V427.3c15.4-6.7,27.9-19.2,34.6-34.6h-163c6.7,15.4,19.2,27.9,34.6,34.6v333.1c-15.4,6.7-27.9,19.2-34.6,34.6h163C816.8,779.6,804.3,767.1,788.9,760.4z M835.8,365.9L500.6,124.6L165.4,365.9H835.8z M869.3,821.8H131.9v53.6h737.4V821.8z"/></g><g></g><g></g><g></g><g></g><g></g><g></g><g></g><g></g><g></g><g></g><g></g><g></g><g></g><g></g><g></g></g>
</svg>