<?xml version="1.0" encoding="UTF-8" ?>
<!DOCTYPE svg PUBLIC "-//W3C//DTD SVG 1.1//EN" "http://www.w3.org/Graphics/SVG/1.1/DTD/svg11.dtd">
<svg width="113pt" height="147pt" viewBox="0 0 113 147" version="1.1" xmlns="http://www.w3.org/2000/svg">
<g id="#ffffffff">
</g>
<g id="#545454ff">
<path fill="#545454" opacity="1.00" d=" M 4.47 10.96 C 4.38 7.50 7.46 4.39 10.92 4.47 C 29.21 4.41 47.50 4.45 65.79 4.45 C 65.85 16.97 65.75 29.49 65.82 42.01 C 65.79 45.24 68.74 48.20 71.98 48.17 C 84.50 48.25 97.02 48.16 109.54 48.21 C 109.58 77.83 109.53 107.45 109.57 137.07 C 110.26 142.39 104.71 145.60 99.98 144.58 C 70.30 144.50 40.62 144.61 10.94 144.53 C 7.48 144.61 4.39 141.52 4.47 138.06 C 4.43 95.69 4.43 53.33 4.47 10.96 M 32.23 66.15 C 29.78 67.96 29.81 74.67 33.95 74.42 C 48.97 74.49 63.99 74.41 79.01 74.46 C 80.65 74.55 83.17 74.17 83.12 72.03 C 83.28 69.94 83.84 66.28 80.94 65.90 C 66.32 65.64 51.68 65.91 37.06 65.78 C 35.45 65.84 33.78 65.60 32.23 66.15 M 33.26 83.38 C 30.38 83.59 30.68 87.00 30.81 89.08 C 30.59 91.36 33.11 92.22 34.95 92.01 C 49.97 91.97 64.99 92.05 80.01 91.98 C 84.65 92.25 84.62 82.93 79.97 83.31 C 64.40 83.32 48.82 83.17 33.26 83.38 M 32.23 101.15 C 29.77 102.97 29.82 109.74 34.01 109.42 C 49.00 109.49 64.00 109.41 78.99 109.46 C 80.64 109.56 83.19 109.17 83.13 107.00 C 83.28 104.92 83.83 101.26 80.92 100.90 C 66.30 100.64 51.65 100.91 37.02 100.78 C 35.43 100.84 33.76 100.60 32.23 101.15 Z" />
<path fill="#545454" opacity="1.00" d=" M 74.46 4.36 C 77.22 4.21 79.95 5.06 81.72 7.26 C 90.36 16.01 99.14 24.62 107.76 33.38 C 109.48 34.96 109.57 37.37 109.64 39.54 C 97.91 39.57 86.18 39.56 74.46 39.54 C 74.44 27.82 74.43 16.09 74.46 4.36 Z" />
</g>
</svg>
