<?xml version="1.0" encoding="UTF-8" ?>
<!DOCTYPE svg PUBLIC "-//W3C//DTD SVG 1.1//EN" "http://www.w3.org/Graphics/SVG/1.1/DTD/svg11.dtd">
<svg width="23pt" height="24pt" viewBox="0 0 23 24" version="1.1" xmlns="http://www.w3.org/2000/svg">
<g id="#13322bff">
</g>
<g id="#ffffffff">
<path fill="#C0B392" opacity="1.00" d=" M 2.21 4.94 C 2.23 2.56 4.75 1.30 6.85 1.24 C 11.52 1.06 16.20 1.31 20.87 1.11 C 20.84 8.37 20.82 15.62 20.88 22.88 C 15.92 22.74 10.97 23.02 6.02 22.75 C 4.05 22.82 2.11 21.08 2.19 19.07 C 2.12 14.36 2.08 9.65 2.21 4.94 M 7.00 7.00 L 7.00 8.00 C 10.33 8.00 13.67 8.00 17.00 8.00 L 17.00 7.00 C 13.67 7.00 10.33 7.00 7.00 7.00 M 7.00 10.00 L 7.00 11.00 C 10.33 11.00 13.67 11.00 17.00 11.00 L 17.00 10.00 C 13.67 10.00 10.33 10.00 7.00 10.00 M 5.00 17.81 C 5.00 18.36 5.00 19.45 5.00 20.00 C 9.00 20.00 13.00 20.00 17.00 20.00 C 17.00 19.45 17.00 18.36 17.00 17.81 C 13.00 17.81 9.00 17.81 5.00 17.81 Z" />
</g>
</svg>
