<?xml version="1.0" ?><svg data-name="Layer 3" id="Layer_3" viewBox="0 0 2050 2050" xmlns="http://www.w3.org/2000/svg"><defs><style>.cls-1{fill:#fff;}.cls-2{fill:#000;}</style></defs><title/><path class="cls-1" d="M1331.9,432.2H936a162.6,162.6,0,0,0-113.9,46.2L562,730.9a164.2,164.2,0,0,0-49.7,117.3V1412c0,113.5,92.4,205.8,205.8,205.8h613.8c113.4,0,205.8-92.3,205.8-205.8V638C1537.7,524.5,1445.3,432.2,1331.9,432.2Zm-447,110.7V721.8a72.1,72.1,0,0,1-72,72H626.4Z"/><path class="cls-2" d="M1297.9,790.4H1061.2a45,45,0,0,1,0-90h236.7a45,45,0,0,1,0,90Z"/><path class="cls-2" d="M1297.9,1013.3H757a45,45,0,0,1,0-90h540.9a45,45,0,0,1,0,90Z"/><path class="cls-2" d="M1297.9,1220.1H757a45,45,0,0,1,0-90h540.9a45,45,0,0,1,0,90Z"/></svg>