<?xml version="1.0" encoding="UTF-8" ?>
<!DOCTYPE svg PUBLIC "-//W3C//DTD SVG 1.1//EN" "http://www.w3.org/Graphics/SVG/1.1/DTD/svg11.dtd">
<svg width="26pt" height="24pt" viewBox="0 0 26 24" version="1.1" xmlns="http://www.w3.org/2000/svg">
<g id="#13322bff">
</g>
<g id="#ffffffff">
<path fill="#C0B392" opacity="1.00" d=" M 2.00 3.99 C 3.23 4.00 4.46 4.01 5.69 4.01 C 5.67 8.39 5.68 12.77 5.68 17.16 C 11.78 17.13 17.88 17.19 23.97 17.12 C 23.92 17.84 23.82 19.28 23.76 20.00 C 16.51 20.00 9.25 20.00 2.00 20.00 C 2.00 14.66 2.00 9.33 2.00 3.99 Z" />
<path fill="#C0B392" opacity="1.00" d=" M 15.62 5.03 C 18.08 5.00 20.54 4.99 23.00 5.00 C 23.01 7.46 23.00 9.92 22.97 12.38 C 21.79 11.78 20.62 11.15 19.47 10.48 C 17.96 12.10 16.41 13.67 14.90 15.29 C 13.33 14.17 11.89 12.87 10.57 11.47 C 10.17 11.89 9.38 12.73 8.98 13.15 C 8.26 12.88 6.83 12.34 6.11 12.07 C 7.52 10.43 9.15 8.99 10.92 7.74 C 12.09 8.97 13.26 10.20 14.43 11.43 C 15.50 10.51 16.45 9.46 17.52 8.53 C 16.86 7.38 16.22 6.22 15.62 5.03 Z" />
</g>
</svg>
