<?xml version="1.0" encoding="UTF-8" ?>
<!DOCTYPE svg PUBLIC "-//W3C//DTD SVG 1.1//EN" "http://www.w3.org/Graphics/SVG/1.1/DTD/svg11.dtd">
<svg width="26pt" height="24pt" viewBox="0 0 26 24" version="1.1" xmlns="http://www.w3.org/2000/svg">
<g id="#13322bff">
</g>
<g id="#fbfcfcff">
<path fill="#fbfcfc" opacity="1.00" d=" M 3.07 4.06 C 3.74 4.11 5.09 4.23 5.77 4.28 C 5.94 8.56 5.83 12.85 5.87 17.13 C 11.87 17.17 17.87 17.08 23.87 17.20 C 23.91 17.89 24.00 19.29 24.04 19.99 C 17.05 19.96 10.06 20.12 3.08 19.90 C 2.94 14.62 2.96 9.34 3.07 4.06 Z" />
<path fill="#fbfcfc" opacity="1.00" d=" M 20.04 4.12 C 20.74 4.13 22.14 4.16 22.84 4.18 C 22.88 7.74 22.88 11.29 22.83 14.85 C 22.13 14.85 20.73 14.85 20.03 14.85 C 19.98 11.27 19.97 7.69 20.04 4.12 Z" />
<path fill="#fbfcfc" opacity="1.00" d=" M 12.14 5.36 C 12.83 5.37 14.20 5.40 14.88 5.41 C 14.87 8.56 14.86 11.71 14.82 14.86 C 14.16 14.85 12.83 14.84 12.17 14.84 C 12.13 11.68 12.13 8.52 12.14 5.36 Z" />
<path fill="#fbfcfc" opacity="1.00" d=" M 16.05 8.15 C 16.75 8.15 18.14 8.16 18.84 8.16 C 18.86 10.38 18.86 12.61 18.84 14.83 C 18.15 14.84 16.76 14.86 16.07 14.87 C 15.99 12.63 15.99 10.39 16.05 8.15 Z" />
<path fill="#fbfcfc" opacity="1.00" d=" M 8.09 10.64 C 8.82 10.64 10.28 10.64 11.00 10.64 C 10.98 12.04 10.96 13.44 10.94 14.85 C 10.25 14.85 8.87 14.85 8.18 14.85 C 8.15 13.44 8.12 12.04 8.09 10.64 Z" />
</g>
</svg>
