<?xml version="1.0" encoding="UTF-8" ?>
<!DOCTYPE svg PUBLIC "-//W3C//DTD SVG 1.1//EN" "http://www.w3.org/Graphics/SVG/1.1/DTD/svg11.dtd">
<svg width="177pt" height="334pt" viewBox="0 0 177 334" version="1.1" xmlns="http://www.w3.org/2000/svg">
<g id="#000000ff">
<path fill="#fff" opacity="1.00" d=" M 74.41 16.30 C 90.36 5.42 110.00 1.50 129.02 1.03 C 145.01 0.96 161.01 1.02 177.00 1.00 L 177.00 63.50 C 161.66 63.52 146.33 63.48 130.99 63.52 C 127.34 63.71 123.18 63.76 120.32 66.36 C 117.95 68.93 118.12 72.70 118.01 75.96 C 118.07 85.64 118.07 95.31 118.07 104.99 C 137.71 105.02 157.36 104.99 177.00 105.01 L 177.00 105.77 C 174.65 126.32 172.43 146.89 170.19 167.45 C 150.47 167.74 130.73 167.47 111.01 167.58 C 110.99 223.05 111.01 278.53 111.00 334.00 L 44.94 334.00 C 44.93 278.53 44.94 223.06 44.93 167.58 C 30.31 167.57 15.69 167.54 1.07 167.60 C 0.92 146.74 1.03 125.87 1.01 105.01 C 15.65 104.98 30.29 105.02 44.93 104.99 C 45.41 87.51 43.24 69.56 48.36 52.55 C 52.51 37.93 61.77 24.79 74.41 16.30 Z" />
</g>
</svg>
