<?xml version="1.0" encoding="UTF-8" ?>
<!DOCTYPE svg PUBLIC "-//W3C//DTD SVG 1.1//EN" "http://www.w3.org/Graphics/SVG/1.1/DTD/svg11.dtd">
<svg width="1094pt" height="662pt" viewBox="0 0 1094 662" version="1.1" xmlns="http://www.w3.org/2000/svg">
<g id="#22b14cff">
</g>
<g id="#ffffffff">
<path fill="#ffffff" opacity="1.00" d=" M 121.41 37.57 C 136.24 36.30 151.14 37.15 166.00 37.00 C 431.01 36.99 696.02 37.02 961.03 36.98 C 969.92 36.11 980.13 41.67 982.33 50.64 C 983.62 67.67 983.35 84.83 982.69 101.89 C 981.09 112.99 968.29 118.66 958.03 117.02 C 681.34 116.98 404.65 117.00 127.97 117.01 C 118.89 118.16 109.07 111.78 107.59 102.58 C 106.44 85.80 106.62 68.91 107.30 52.11 C 108.56 45.17 114.42 38.88 121.41 37.57 Z" />
<path fill="#ffffff" opacity="1.00" d=" M 120.41 280.57 C 135.24 279.30 150.14 280.15 165.00 280.00 C 430.01 279.99 695.02 280.02 960.03 279.98 C 968.92 279.11 979.13 284.67 981.33 293.64 C 982.62 310.67 982.35 327.83 981.69 344.89 C 980.09 355.99 967.29 361.66 957.03 360.02 C 680.34 359.98 403.65 360.00 126.97 360.01 C 118.12 361.12 108.68 355.15 106.71 346.35 C 105.31 331.27 105.89 316.09 105.99 300.97 C 104.76 291.83 111.39 282.30 120.41 280.57 Z" />
<path fill="#ffffff" opacity="1.00" d=" M 120.41 534.57 C 135.24 533.30 150.14 534.15 165.00 534.00 C 430.01 533.99 695.02 534.02 960.03 533.98 C 970.72 532.81 983.06 541.43 981.81 553.01 C 982.27 568.29 982.47 583.61 981.69 598.89 C 980.09 609.99 967.29 615.65 957.03 614.02 C 680.34 613.98 403.65 614.00 126.97 614.01 C 119.30 614.94 111.56 610.75 107.98 604.01 C 105.72 599.74 106.43 594.64 106.00 590.03 C 105.83 576.39 105.53 562.73 106.30 549.11 C 107.56 542.16 113.42 535.88 120.41 534.57 Z" />
</g>
</svg>
