<?xml version="1.0" encoding="UTF-8" ?>
<!DOCTYPE svg PUBLIC "-//W3C//DTD SVG 1.1//EN" "http://www.w3.org/Graphics/SVG/1.1/DTD/svg11.dtd">
<svg width="31pt" height="24pt" viewBox="0 0 31 24" version="1.1" xmlns="http://www.w3.org/2000/svg">
<g id="#13322bff">
</g>
<g id="#ffffffff">
<path fill="#ffffff" opacity="1.00" d=" M 14.22 3.16 C 16.73 2.23 18.42 4.86 20.16 6.15 C 20.16 5.37 20.17 3.79 20.18 3.01 C 21.35 3.01 22.51 3.01 23.68 3.00 C 23.67 4.99 23.69 6.98 23.70 8.98 C 25.05 10.10 26.39 11.25 27.73 12.39 C 26.93 13.04 26.11 13.66 25.27 14.26 C 22.18 11.28 18.62 8.84 15.46 5.95 C 11.93 8.69 8.60 11.66 5.03 14.33 C 4.37 13.63 3.74 12.92 3.14 12.19 C 6.89 9.25 10.42 6.03 14.22 3.16 Z" />
<path fill="#ffffff" opacity="1.00" d=" M 7.34 13.70 C 10.09 11.68 12.68 9.48 15.22 7.22 C 18.04 9.33 20.70 11.66 23.44 13.86 C 23.45 16.28 23.45 18.69 23.54 21.10 C 21.46 21.61 19.32 21.49 17.20 21.43 C 17.22 19.62 17.09 17.81 17.11 16.00 C 16.27 16.00 14.59 16.00 13.75 16.00 C 13.72 17.82 13.61 19.64 13.55 21.45 C 11.53 21.46 9.50 21.47 7.48 21.50 C 7.29 18.91 7.26 16.30 7.34 13.70 Z" />
</g>
</svg>
