<?xml version="1.0" encoding="UTF-8" ?>
<!DOCTYPE svg PUBLIC "-//W3C//DTD SVG 1.1//EN" "http://www.w3.org/Graphics/SVG/1.1/DTD/svg11.dtd">
<svg width="512pt" height="512pt" viewBox="0 0 512 512" version="1.1" xmlns="http://www.w3.org/2000/svg">
<g id="#141414ff">
<path fill="#fff" opacity="1.00" d=" M 176.36 123.21 C 196.53 120.59 217.46 124.76 235.20 134.70 C 255.60 145.99 271.63 164.94 279.16 187.03 C 287.76 210.82 286.18 237.98 275.13 260.71 C 283.33 256.99 293.03 258.65 300.29 263.69 C 333.79 286.84 367.27 310.02 400.75 333.19 C 404.45 335.82 408.39 338.14 411.76 341.22 C 416.89 346.06 419.94 352.97 420.38 359.98 C 420.38 370.01 414.61 380.09 405.46 384.50 C 396.74 389.23 385.68 388.00 377.70 382.33 C 344.03 359.01 310.31 335.75 276.65 312.41 C 271.99 309.14 266.85 306.23 263.41 301.55 C 259.98 297.14 258.61 291.58 257.59 286.20 C 242.44 301.35 222.45 311.64 201.16 314.41 C 184.83 317.03 167.92 314.52 152.60 308.51 C 128.92 299.11 109.17 280.05 99.40 256.47 C 92.76 240.31 89.85 222.33 92.70 204.99 C 95.78 184.23 105.73 164.47 120.92 149.92 C 135.73 135.17 155.65 125.80 176.36 123.21 M 179.47 152.87 C 170.00 154.39 160.73 157.60 152.57 162.68 C 128.99 177.26 116.38 207.64 123.55 234.55 C 127.83 253.18 140.72 269.54 157.77 278.14 C 170.76 284.88 186.02 287.18 200.39 284.34 C 221.05 280.74 239.51 266.53 248.43 247.56 C 255.96 231.89 256.85 213.16 251.06 196.79 C 245.81 181.23 234.17 168.12 219.82 160.30 C 207.56 153.64 193.28 151.14 179.47 152.87 Z" />
</g>
</svg>
