<?xml version="1.0" encoding="UTF-8" ?>
<!DOCTYPE svg PUBLIC "-//W3C//DTD SVG 1.1//EN" "http://www.w3.org/Graphics/SVG/1.1/DTD/svg11.dtd">
<svg width="1024pt" height="1024pt" viewBox="0 0 1024 1024" version="1.1" xmlns="http://www.w3.org/2000/svg">
<g id="#ffffffff">
</g>
<g id="#1a1a1aff">
<path fill="#fff" opacity="1.00" d=" M 376.45 238.48 C 418.81 225.72 465.68 228.78 506.00 246.98 C 532.32 258.67 555.79 276.66 573.89 299.05 C 581.21 307.88 587.49 317.53 593.46 327.31 C 592.70 328.14 592.01 329.02 591.38 329.94 C 590.67 329.63 589.27 329.00 588.57 328.69 C 589.81 329.32 591.10 329.97 592.02 331.08 C 592.54 330.10 593.11 329.02 594.27 328.68 C 603.14 346.21 610.16 364.80 613.46 384.23 C 621.04 425.72 614.00 469.73 593.70 506.73 C 591.04 511.90 587.69 516.68 584.87 521.76 C 644.05 575.02 702.89 628.67 761.96 682.06 C 765.82 685.85 770.13 689.15 773.92 693.02 C 782.69 703.25 782.94 719.83 774.12 730.11 C 765.36 739.02 756.46 747.79 747.64 756.65 C 744.00 760.40 740.24 764.31 735.29 766.30 C 725.32 770.75 712.78 768.71 704.92 761.08 C 701.43 757.55 698.20 753.78 694.91 750.07 C 643.83 693.16 592.81 636.18 541.74 579.27 C 539.70 576.96 537.77 574.55 535.51 572.46 C 534.41 571.68 533.29 572.89 532.36 573.36 C 500.59 594.50 462.10 605.23 424.01 603.98 C 383.09 602.92 342.77 587.74 311.19 561.71 C 293.82 547.05 278.29 529.71 267.64 509.52 C 245.00 471.46 238.24 424.87 246.47 381.58 C 252.61 350.10 266.94 320.22 287.94 295.95 C 311.08 268.79 342.21 248.51 376.45 238.48 M 397.54 281.57 C 372.21 287.53 348.57 300.74 330.43 319.42 C 312.48 337.31 299.83 360.36 293.94 384.98 C 290.20 400.32 289.48 416.28 290.89 431.97 C 293.27 455.25 301.84 477.74 314.82 497.15 C 321.62 505.92 328.71 514.58 337.00 522.01 C 344.48 528.16 352.35 533.83 360.63 538.87 C 360.36 540.63 360.38 542.41 360.60 544.18 C 359.96 544.26 358.68 544.43 358.03 544.52 C 359.58 544.52 361.13 544.50 362.68 544.52 C 362.02 544.08 361.37 543.64 360.72 543.21 C 360.74 542.21 360.77 540.22 360.79 539.23 C 365.94 541.22 370.63 544.25 375.83 546.17 C 414.79 562.71 461.31 560.06 498.09 539.10 C 529.24 521.64 553.31 491.86 563.41 457.56 C 575.56 417.96 568.72 373.00 545.12 338.93 C 538.69 329.23 530.67 320.72 522.38 312.63 C 514.66 306.92 507.42 300.42 498.81 296.06 C 488.39 289.52 476.64 285.66 464.98 282.01 C 442.96 276.75 419.62 276.30 397.54 281.57 Z" />
</g>
</svg>
