<?xml version="1.0" encoding="UTF-8" ?>
<!DOCTYPE svg PUBLIC "-//W3C//DTD SVG 1.1//EN" "http://www.w3.org/Graphics/SVG/1.1/DTD/svg11.dtd">
<svg width="36pt" height="35pt" viewBox="0 0 36 35" version="1.1" xmlns="http://www.w3.org/2000/svg">
<g id="#0c231eff">
</g>
<g id="#f6f7f7ff">
<path fill="#f6f7f7" opacity="1.00" d=" M 7.65 8.72 C 12.80 4.20 22.20 9.08 21.43 15.87 C 21.40 17.63 21.22 19.38 21.06 21.13 C 25.14 24.59 31.59 27.67 30.97 33.96 C 24.61 34.64 21.46 28.09 18.06 23.90 C 14.28 24.28 9.64 25.39 6.73 22.19 C 2.67 18.71 3.16 11.64 7.65 8.72 M 10.44 10.35 C 5.49 11.97 5.66 19.88 10.50 21.57 C 15.11 23.95 20.75 17.87 18.05 13.40 C 17.09 10.22 13.30 9.22 10.44 10.35 Z" />
</g>
</svg>
