<?xml version="1.0" encoding="UTF-8" ?>
<!DOCTYPE svg PUBLIC "-//W3C//DTD SVG 1.1//EN" "http://www.w3.org/Graphics/SVG/1.1/DTD/svg11.dtd">
<svg width="1030pt" height="1030pt" viewBox="0 0 1030 1030" version="1.1" xmlns="http://www.w3.org/2000/svg">
<g id="#ffffffff">
</g>
<g id="#1a8f91ff">
<path fill="#fff" opacity="1.00" d=" M 367.80 117.86 C 426.12 111.76 486.15 122.88 538.28 149.76 C 597.92 180.30 646.80 231.24 674.96 292.03 C 693.46 331.64 703.17 375.29 703.44 419.00 C 703.79 459.24 696.05 499.51 680.90 536.78 C 674.61 552.53 666.60 567.52 658.14 582.20 C 746.86 671.04 835.50 759.96 924.14 848.89 C 936.82 861.82 944.01 879.91 943.76 898.02 C 943.73 914.14 937.82 930.16 927.40 942.46 C 917.13 954.71 902.53 963.24 886.78 966.03 C 868.96 969.36 849.90 965.35 834.99 955.02 C 829.67 951.45 825.11 946.91 820.64 942.36 C 733.73 855.18 646.79 768.02 559.85 680.86 C 544.50 689.60 528.93 698.05 512.44 704.46 C 469.99 721.50 423.66 728.77 378.03 725.53 C 337.10 722.74 296.74 711.58 260.28 692.76 C 201.09 662.46 152.40 612.14 124.16 551.93 C 98.00 496.65 89.14 433.42 98.81 373.05 C 108.90 307.84 141.01 246.31 188.80 200.80 C 236.97 154.16 301.11 124.54 367.80 117.86 M 379.30 177.21 C 346.34 179.85 313.93 189.28 284.73 204.81 C 253.36 221.44 225.77 245.08 204.36 273.39 C 184.91 299.04 170.70 328.61 162.70 359.78 C 152.59 398.95 152.35 440.63 162.02 479.91 C 177.30 544.07 220.16 600.88 277.35 633.63 C 307.74 651.16 341.98 661.96 376.93 665.11 C 422.40 669.32 469.02 660.51 509.73 639.79 C 566.78 611.04 611.58 558.98 631.26 498.17 C 644.17 458.95 646.96 416.46 639.32 375.88 C 632.98 341.52 619.10 308.57 598.96 280.02 C 578.83 251.45 552.54 227.24 522.36 209.61 C 479.50 184.47 428.81 173.08 379.30 177.21 Z" />
</g>
</svg>
