<?xml version="1.0" encoding="UTF-8" ?>
<!DOCTYPE svg PUBLIC "-//W3C//DTD SVG 1.1//EN" "http://www.w3.org/Graphics/SVG/1.1/DTD/svg11.dtd">
<svg width="1200pt" height="1200pt" viewBox="0 0 1200 1200" version="1.1" xmlns="http://www.w3.org/2000/svg">
<g id="#ffffffff">
</g>
<g id="#404040ff">
<path fill="#fff" opacity="1.00" d=" M 398.11 68.92 C 433.37 60.95 469.93 59.35 505.84 63.09 C 549.32 67.99 591.84 81.54 629.92 103.13 C 694.06 139.25 745.47 197.49 772.89 265.85 C 804.17 342.74 804.45 431.60 773.74 508.72 C 755.66 554.41 727.13 595.95 690.89 629.15 C 696.77 637.07 701.74 645.61 707.02 653.94 C 767.98 751.63 829.00 849.29 889.95 946.98 C 893.11 952.70 897.64 957.50 900.75 963.25 C 911.40 980.32 922.09 997.37 932.69 1014.47 C 938.22 1023.44 944.39 1032.11 948.21 1042.00 C 956.38 1063.70 952.76 1089.40 938.81 1107.96 C 924.37 1128.26 898.47 1139.05 873.86 1136.11 C 870.61 1135.41 867.36 1134.85 864.13 1134.14 C 861.25 1133.42 858.52 1132.26 855.77 1131.21 C 847.12 1127.50 838.98 1122.37 832.49 1115.50 C 826.59 1110.06 822.57 1103.08 818.31 1096.39 C 810.17 1083.31 801.99 1070.25 793.80 1057.21 C 788.07 1047.62 781.59 1038.47 776.58 1028.47 C 710.73 922.87 644.79 817.34 578.92 711.77 C 576.67 707.69 574.39 703.56 573.03 699.09 C 552.51 705.51 531.50 710.51 510.14 713.16 C 462.86 718.94 414.33 714.64 368.95 700.06 C 298.22 677.48 235.89 629.81 195.37 567.62 C 172.11 532.34 155.89 492.45 147.90 450.96 C 135.36 386.21 142.67 317.67 169.28 257.27 C 190.48 208.89 223.53 165.73 264.86 132.83 C 303.59 101.68 349.54 79.49 398.11 68.92 M 448.64 137.94 C 403.96 141.68 360.40 157.70 323.90 183.74 C 275.10 218.28 239.42 270.76 225.31 328.87 C 211.14 385.76 217.82 447.51 243.82 500.06 C 262.59 538.47 291.40 571.87 326.52 596.22 C 361.59 620.58 402.95 635.81 445.45 639.88 C 476.41 643.04 507.94 640.17 537.91 631.82 C 577.39 620.85 614.07 600.03 643.72 571.75 C 667.88 548.84 687.39 521.03 700.76 490.54 C 719.43 448.22 726.06 400.70 719.72 354.88 C 714.20 314.17 698.45 274.92 674.40 241.62 C 651.63 210.11 621.54 183.85 587.04 165.88 C 544.82 143.63 496.18 133.80 448.64 137.94 Z" />
</g>
<g id="#0a14224d">
</g>
</svg>
