<?xml version="1.0" encoding="UTF-8" ?>
<!DOCTYPE svg PUBLIC "-//W3C//DTD SVG 1.1//EN" "http://www.w3.org/Graphics/SVG/1.1/DTD/svg11.dtd">
<svg width="512pt" height="512pt" viewBox="0 0 512 512" version="1.1" xmlns="http://www.w3.org/2000/svg">
<g id="#000000ff">
<path fill="#fff" opacity="1.00" d=" M 182.85 47.67 C 203.21 43.41 224.78 45.28 244.16 52.82 C 266.90 61.56 286.45 78.29 298.60 99.40 C 310.65 119.87 315.48 144.43 312.27 167.96 C 308.85 195.34 294.33 220.96 272.92 238.31 C 278.10 247.81 284.55 256.57 290.12 265.85 C 291.38 267.52 292.35 270.50 295.00 269.80 C 302.52 269.08 310.28 271.08 316.30 275.71 C 321.59 279.55 324.79 285.39 328.25 290.78 C 355.41 333.26 382.54 375.76 409.71 418.24 C 414.56 425.36 416.88 434.32 414.87 442.82 C 412.26 456.16 399.58 466.55 386.00 466.57 C 375.19 466.96 364.86 460.82 359.29 451.67 C 330.67 406.95 302.11 362.19 273.51 317.46 C 269.53 311.44 267.27 304.15 268.11 296.92 C 268.49 291.43 270.92 286.41 273.73 281.79 C 267.40 271.30 260.74 260.98 253.93 250.79 C 250.54 252.01 247.32 253.62 243.99 254.97 C 224.50 262.55 202.79 264.23 182.34 259.86 C 155.73 254.37 131.45 238.37 115.99 216.02 C 105.25 200.72 98.52 182.63 96.88 164.00 C 94.34 137.54 101.97 110.22 117.93 88.96 C 133.57 67.90 157.12 52.86 182.85 47.67 M 189.40 62.65 C 163.79 66.94 140.31 82.50 126.59 104.58 C 115.93 121.54 111.00 142.00 112.75 161.96 C 114.76 186.07 126.79 209.16 145.38 224.64 C 160.88 237.70 180.79 245.35 201.03 246.16 C 221.04 247.06 241.25 241.19 257.64 229.68 C 275.13 217.63 288.14 199.28 293.77 178.80 C 299.54 158.64 298.07 136.53 289.74 117.30 C 281.22 97.37 265.44 80.61 245.96 71.07 C 228.61 62.42 208.52 59.49 189.40 62.65 Z" />
</g>
</svg>
