<?xml version="1.0" encoding="UTF-8" ?>
<!DOCTYPE svg PUBLIC "-//W3C//DTD SVG 1.1//EN" "http://www.w3.org/Graphics/SVG/1.1/DTD/svg11.dtd">
<svg width="28pt" height="24pt" viewBox="0 0 28 24" version="1.1" xmlns="http://www.w3.org/2000/svg">
<g id="#13322bff">
</g>
<g id="#ffffffff">
<path fill="#ffffff" opacity="1.00" d=" M 4.89 15.08 C 1.25 10.50 4.19 2.87 9.89 1.76 C 14.77 0.24 20.19 4.13 20.69 9.12 C 21.03 11.21 20.18 13.20 19.40 15.09 C 21.37 16.74 23.25 18.50 25.01 20.38 C 24.14 21.36 23.18 22.26 22.15 23.08 C 20.33 21.31 18.56 19.47 16.91 17.53 C 12.96 19.80 7.46 19.06 4.89 15.08 M 9.48 5.71 C 6.47 7.43 5.87 11.91 8.75 14.07 C 11.80 17.07 17.40 14.20 17.20 10.09 C 17.38 6.38 12.59 3.61 9.48 5.71 Z" />
</g>
</svg>
