<?xml version="1.0" standalone="no"?>
<!DOCTYPE svg PUBLIC "-//W3C//DTD SVG 20010904//EN"
 "http://www.w3.org/TR/2001/REC-SVG-20010904/DTD/svg10.dtd">
<svg version="1.0" xmlns="http://www.w3.org/2000/svg"
 width="1231.000000pt" height="1280.000000pt" viewBox="0 0 1231.000000 1280.000000"
 preserveAspectRatio="xMidYMid meet">
<g transform="translate(0.000000,1280.000000) scale(0.100000,-0.100000)"
fill="#fff" stroke="none">
<path d="M4090 12693 c-1788 -77 -3330 -1293 -3825 -3018 -279 -971 -189
-2030 250 -2943 217 -449 493 -834 851 -1182 669 -651 1487 -1038 2444 -1157
203 -25 704 -25 910 0 682 83 1290 302 1836 664 61 40 117 73 125 73 24 0 202
-187 193 -202 -4 -7 -41 -44 -81 -82 -57 -53 -73 -74 -71 -92 2 -15 794 -899
2119 -2366 1164 -1289 2127 -2352 2138 -2362 22 -20 22 -20 109 23 368 182
843 624 1129 1051 67 100 85 138 76 154 -4 8 -121 132 -258 277 -138 145
-1101 1162 -2139 2259 -1038 1097 -1912 2019 -1942 2048 -45 44 -56 51 -72 43
-11 -6 -64 -53 -120 -106 -55 -52 -106 -95 -113 -95 -14 0 -179 174 -179 188
0 4 34 50 76 102 161 203 355 516 470 756 384 803 502 1685 343 2564 -110 610
-382 1228 -762 1735 -678 905 -1674 1487 -2797 1635 -140 18 -523 42 -610 38
-19 -1 -64 -3 -100 -5z"/>
</g>
</svg>
