<?xml version="1.0" encoding="UTF-8" ?>
<!DOCTYPE svg PUBLIC "-//W3C//DTD SVG 1.1//EN" "http://www.w3.org/Graphics/SVG/1.1/DTD/svg11.dtd">
<svg width="62pt" height="44pt" viewBox="0 0 62 44" version="1.1" xmlns="http://www.w3.org/2000/svg">
<g id="#ffffffff">
</g>
<g id="#616161ff">
<path fill="#404041" opacity="1.00" d=" M 10.31 8.31 C 10.63 8.30 11.26 8.30 11.57 8.29 C 15.12 11.46 18.27 15.09 21.29 18.77 C 19.05 18.95 16.81 19.02 14.57 19.05 C 14.57 23.76 14.57 28.48 14.57 33.19 C 19.22 33.22 23.88 33.13 28.53 33.27 C 31.03 35.73 33.64 38.08 36.20 40.49 C 27.79 40.68 19.38 40.51 10.97 40.59 C 9.78 40.52 7.49 40.70 7.52 38.93 C 7.27 32.31 7.51 25.67 7.43 19.04 C 5.18 19.01 2.94 18.95 0.69 18.85 C 3.61 15.10 6.83 11.53 10.31 8.31 Z" />
<path fill="#404041" opacity="1.00" d=" M 21.87 8.17 C 31.22 8.23 40.57 8.17 49.92 8.21 C 51.34 15.22 50.26 22.52 50.50 29.65 C 52.71 29.55 54.94 29.63 57.10 30.21 C 53.70 33.74 50.49 37.44 47.02 40.89 C 43.04 37.74 39.66 33.81 36.62 29.76 C 38.81 29.71 41.00 29.69 43.19 29.70 C 43.20 24.90 43.20 20.10 43.19 15.30 C 38.74 15.20 34.28 15.49 29.83 15.20 C 26.78 13.42 24.56 10.46 21.87 8.17 Z" />
</g>
</svg>
