<?xml version="1.0" encoding="utf-8"?>
<!-- Generator: Adobe Illustrator 21.0.0, SVG Export Plug-In . SVG Version: 6.00 Build 0)  -->
<svg version="1.1" id="Layer_1" xmlns="http://www.w3.org/2000/svg" xmlns:xlink="http://www.w3.org/1999/xlink" x="0px" y="0px"
	 viewBox="0 0 512 512" style="enable-background:new 0 0 512 512;" xml:space="preserve">
<g>
	<path fill="#fff" d="M491.5,0h-471C9.2,0,0,9.2,0,20.5v471C0,502.8,9.2,512,20.5,512h471c11.3,0,20.5-9.2,20.5-20.5v-471
		C512,9.2,502.8,0,491.5,0z M393.8,185.4c0.2,3,0.2,6.1,0.2,9.2c0,94-71.6,202.2-202.3,202.2c-40.3,0-77.7-11.7-109.2-31.9
		c5.8,0.6,11.3,0.9,17.2,0.9c33.3,0,63.9-11.3,88.3-30.3c-31.2-0.6-57.5-21.1-66.4-49.3c10.9,1.6,20.8,1.6,32.1-1.3
		c-33.2-6.7-57-35.9-56.9-69.8v-0.9c9.4,5.3,20.5,8.6,32.1,9C108.9,210.1,97,187.9,97,164.2c0-13.2,3.5-25.3,9.7-35.8
		c36.1,44.4,89.4,71.5,146.6,74.3c-10-48.3,26-87.4,69.4-87.4c20.5,0,38.9,8.6,51.9,22.4c16.1-3,31.4-9,45.1-17.1
		c-5.3,16.4-16.4,30.3-31.2,39.1c14.3-1.5,28.2-5.5,41-11.1C419.8,162.8,407.7,175.4,393.8,185.4z"/>
</g>
</svg>
