<?xml version="1.0" encoding="UTF-8" ?>
<!DOCTYPE svg PUBLIC "-//W3C//DTD SVG 1.1//EN" "http://www.w3.org/Graphics/SVG/1.1/DTD/svg11.dtd">
<svg width="825pt" height="525pt" viewBox="0 0 825 525" version="1.1" xmlns="http://www.w3.org/2000/svg">
<g id="#ffffffff">
<path fill="#ffffff" opacity="1.00" d=" M 259.32 70.06 C 263.17 58.25 274.34 48.91 286.94 48.50 C 336.28 48.49 385.63 48.50 434.97 48.50 C 443.93 48.61 453.28 47.61 461.75 51.23 C 475.38 56.35 483.67 70.82 484.10 84.97 C 484.07 149.32 484.14 213.67 484.07 278.01 C 484.22 289.36 474.17 299.20 462.96 299.41 C 404.65 299.41 346.35 299.40 288.04 299.42 C 284.49 299.62 280.80 299.43 277.40 300.60 C 271.89 303.61 266.38 307.85 264.33 314.03 C 262.49 321.21 265.77 328.45 270.09 334.05 C 273.32 337.97 276.48 342.78 281.96 343.53 C 281.98 336.33 281.96 329.14 281.97 321.94 C 295.68 321.94 309.38 321.94 323.09 321.94 C 323.10 329.47 323.08 337.00 323.10 344.53 C 375.27 344.52 427.44 344.54 479.61 344.52 C 479.62 347.49 479.62 350.47 479.62 353.44 C 427.42 353.48 375.21 353.35 323.01 353.51 C 323.19 361.12 323.05 368.74 323.09 376.36 C 316.25 370.81 309.38 365.28 302.57 359.68 C 295.67 365.20 288.85 370.82 281.97 376.36 C 281.97 368.72 281.96 361.09 281.98 353.45 C 280.30 353.45 278.63 353.43 276.96 353.45 C 272.59 349.07 266.40 347.29 262.12 342.83 C 258.81 339.61 256.48 335.41 255.53 330.90 C 254.41 321.88 253.82 312.45 257.52 303.92 C 257.62 231.96 257.53 160.00 257.56 88.03 C 257.69 82.01 256.83 75.75 259.32 70.06 M 266.59 79.03 C 266.58 151.02 266.62 223.01 266.57 295.00 C 270.30 293.20 274.24 291.77 278.16 290.53 C 339.78 290.45 401.39 290.54 463.01 290.48 C 469.80 290.13 475.53 283.91 475.07 277.05 C 475.13 214.04 475.05 151.03 475.10 88.02 C 475.43 79.51 472.45 70.71 466.38 64.64 C 461.33 59.61 454.06 57.45 447.07 57.37 C 393.74 57.39 340.41 57.35 287.08 57.39 C 275.97 57.96 267.24 68.29 266.59 79.03 Z" />
<path fill="#ffffff" opacity="1.00" d=" M 505.25 71.82 C 524.35 71.80 543.45 71.82 562.55 71.81 C 562.59 141.99 562.52 212.17 562.59 282.35 C 561.49 282.96 560.88 283.92 560.76 285.24 C 551.63 311.02 542.71 336.90 533.91 362.81 C 526.58 340.94 518.89 319.19 511.38 297.38 C 509.97 293.80 509.22 289.93 507.25 286.60 C 507.05 285.04 506.96 283.21 505.31 282.48 C 505.17 212.27 505.30 142.04 505.25 71.82 M 514.28 80.73 C 514.29 89.41 514.28 98.09 514.28 106.78 C 527.36 106.78 540.45 106.78 553.53 106.78 C 553.52 98.09 553.54 89.40 553.52 80.72 C 540.44 80.73 527.36 80.71 514.28 80.73 M 514.28 273.87 C 527.36 273.87 540.45 273.88 553.53 273.87 C 553.52 220.15 553.54 166.43 553.52 112.72 C 540.45 112.72 527.37 112.72 514.30 112.71 C 514.26 166.43 514.29 220.15 514.28 273.87 M 531.47 284.19 C 531.69 287.48 534.45 282.63 531.47 284.19 M 513.80 285.92 C 517.46 296.52 521.12 307.11 524.81 317.69 C 530.86 317.69 536.92 317.66 542.97 317.71 C 546.74 307.17 550.32 296.57 554.00 286.00 C 550.24 284.24 546.03 284.70 542.01 284.76 C 538.29 284.93 535.20 287.35 532.60 289.80 C 527.35 285.71 520.27 283.45 513.80 285.92 Z" />
<path fill="#ffffff" opacity="1.00" d=" M 319.91 94.32 C 352.90 94.33 385.90 94.33 418.89 94.32 C 418.89 110.97 418.89 127.63 418.89 144.28 C 385.89 144.29 352.90 144.28 319.91 144.28 C 319.91 127.63 319.90 110.97 319.91 94.32 Z" />
</g>
<g id="#cdcdcdcd">
<path fill="#cdcdcd" opacity="0.80" d=" M 531.47 284.19 C 534.45 282.63 531.69 287.48 531.47 284.19 Z" />
</g>
</svg>
