<?xml version="1.0" encoding="UTF-8" ?>
<!DOCTYPE svg PUBLIC "-//W3C//DTD SVG 1.1//EN" "http://www.w3.org/Graphics/SVG/1.1/DTD/svg11.dtd">
<svg width="825pt" height="525pt" viewBox="0 0 825 525" version="1.1" xmlns="http://www.w3.org/2000/svg">
<g id="#fffffffe">
<path fill="#ffffff" opacity="1.00" d=" M 281.05 87.74 C 322.28 74.55 363.43 61.04 404.72 48.07 C 451.85 57.49 498.93 67.14 546.04 76.66 C 525.54 83.91 505.01 91.11 484.50 98.35 C 484.41 135.55 484.55 172.77 484.42 209.97 C 484.06 225.84 474.04 240.56 459.85 247.42 C 472.07 254.65 483.38 263.57 492.59 274.43 C 506.00 289.99 514.94 309.11 519.46 329.09 C 523.30 346.53 524.50 364.71 521.76 382.40 C 442.98 382.42 364.20 382.40 285.42 382.41 C 284.27 350.69 288.50 317.56 304.96 289.84 C 316.30 270.52 334.03 254.93 354.93 246.72 C 340.10 239.06 332.22 222.19 331.67 206.02 C 331.63 171.15 331.67 136.27 331.65 101.40 C 314.79 96.84 297.92 92.31 281.05 87.74 M 311.05 87.02 C 345.03 96.20 379.02 105.35 413.01 114.52 C 446.68 102.61 480.40 90.87 514.04 78.87 C 477.70 71.53 441.38 64.00 405.01 56.85 C 373.64 66.74 342.37 76.97 311.05 87.02 M 413.27 123.41 C 388.81 116.78 364.34 110.21 339.88 103.61 C 339.87 112.11 339.87 120.61 339.88 129.10 C 348.39 132.02 357.12 134.26 365.95 136.01 C 402.43 143.21 441.19 142.27 476.25 129.10 C 476.25 119.82 476.24 110.53 476.26 101.25 C 455.26 108.63 434.28 116.06 413.27 123.41 M 339.87 133.32 C 339.87 137.00 339.89 140.69 339.85 144.38 C 351.27 148.39 363.12 151.08 375.06 153.02 C 408.78 158.42 444.16 156.60 476.26 144.39 C 476.24 140.71 476.24 137.03 476.26 133.36 C 432.57 149.14 383.78 147.28 339.87 133.32 M 339.87 153.37 C 339.90 170.91 339.84 188.45 339.90 205.99 C 340.41 215.89 343.84 225.97 350.80 233.22 C 357.76 240.49 368.14 243.70 378.03 243.42 C 400.98 243.33 423.93 243.54 446.87 243.31 C 458.79 240.32 470.04 232.03 474.15 220.11 C 476.91 212.71 476.13 204.73 476.22 197.01 C 476.25 182.49 476.25 167.97 476.26 153.45 C 432.52 169.01 383.81 167.20 339.87 153.37 M 342.43 262.58 C 323.29 274.66 309.52 294.06 302.22 315.30 C 295.66 334.07 293.42 354.10 293.49 373.90 C 331.28 373.91 369.07 373.90 406.86 373.91 C 400.22 366.32 393.57 358.76 386.97 351.14 C 392.10 331.22 397.30 311.32 402.38 291.38 C 402.76 291.46 403.52 291.62 403.90 291.70 C 396.90 287.69 392.70 280.40 389.10 273.44 C 381.54 281.70 374.01 290.00 366.41 298.23 C 366.40 282.79 366.42 267.35 366.40 251.90 C 357.92 254.20 349.84 257.87 342.43 262.58 M 370.81 251.71 C 370.82 263.40 370.80 275.09 370.82 286.78 C 381.46 275.16 392.09 263.53 402.72 251.90 C 392.09 251.80 381.44 252.15 370.81 251.71 M 413.44 251.90 C 424.07 263.46 434.70 275.02 445.34 286.57 C 445.35 275.01 445.34 263.46 445.34 251.91 C 434.71 251.90 424.07 251.92 413.44 251.90 M 449.72 251.63 C 449.72 267.08 449.72 282.52 449.72 297.96 C 442.22 289.79 434.67 281.66 427.21 273.46 C 424.47 280.00 421.36 286.84 415.54 291.22 C 417.07 296.95 418.32 302.75 419.48 308.56 C 420.36 306.74 421.63 308.82 422.67 309.23 C 421.90 310.09 421.12 310.94 420.33 311.78 C 423.22 324.89 426.20 337.99 429.14 351.09 C 423.41 358.70 417.65 366.30 411.91 373.91 C 446.13 373.90 480.36 373.92 514.58 373.89 C 516.72 344.75 510.43 314.39 493.95 289.96 C 482.95 273.53 467.29 260.54 449.72 251.63 M 391.14 271.22 C 394.40 277.74 398.15 284.52 404.35 288.68 C 407.35 290.80 411.62 290.80 414.47 288.41 C 419.86 284.08 422.54 277.41 425.08 271.18 C 419.41 265.02 413.75 258.86 408.07 252.71 C 402.42 258.87 396.78 265.05 391.14 271.22 M 396.56 324.68 C 396.94 325.43 397.33 326.19 397.74 326.94 C 403.84 321.09 410.70 316.06 417.15 310.59 C 415.89 304.56 414.45 298.56 413.14 292.54 C 410.49 293.29 407.70 293.30 405.10 292.33 C 402.09 303.07 399.64 313.96 396.56 324.68 M 398.64 329.49 C 397.69 328.34 396.82 327.13 396.05 325.87 C 394.61 334.18 391.91 342.23 390.07 350.46 C 391.72 352.29 393.35 354.15 394.97 356.01 C 404.03 348.25 413.08 340.47 422.13 332.70 C 420.75 326.33 419.29 319.99 417.87 313.64 C 411.47 318.93 405.04 324.19 398.64 329.49 M 396.87 358.32 C 401.17 362.96 405.20 367.83 409.42 372.55 C 414.97 365.10 420.68 357.77 426.15 350.27 C 424.96 345.47 423.96 340.63 422.85 335.81 C 414.24 343.36 405.32 350.59 396.87 358.32 Z" />
</g>
</svg>
