<?xml version="1.0" encoding="UTF-8" ?>
<!DOCTYPE svg PUBLIC "-//W3C//DTD SVG 1.1//EN" "http://www.w3.org/Graphics/SVG/1.1/DTD/svg11.dtd">
<svg width="825pt" height="525pt" viewBox="0 0 825 525" version="1.1" xmlns="http://www.w3.org/2000/svg">
<g id="#ffffffff">
<path fill="#ffffff" opacity="1.00" d=" M 298.75 107.70 C 319.09 88.07 339.39 68.40 359.74 48.78 C 402.50 48.78 445.25 48.78 488.00 48.78 C 493.02 48.92 498.11 48.26 503.08 49.35 C 511.45 50.95 519.01 56.30 523.19 63.74 C 528.62 73.14 529.49 84.35 529.02 94.98 C 529.01 138.02 529.10 181.07 529.13 224.11 C 532.66 224.99 536.12 226.60 538.46 229.48 C 541.98 233.64 542.92 239.26 543.01 244.55 C 547.07 247.40 550.66 251.18 552.41 255.90 C 554.77 261.88 553.74 268.70 550.93 274.35 C 553.82 279.13 556.23 284.96 554.34 290.56 C 552.74 295.46 548.08 298.39 543.53 300.18 C 543.44 307.11 542.15 314.91 536.64 319.69 C 532.66 323.25 526.99 323.80 521.91 323.01 C 517.37 328.53 511.43 333.62 504.11 334.61 C 499.16 335.37 494.25 333.59 490.19 330.86 C 485.19 334.08 478.97 336.30 473.03 334.66 C 467.53 333.15 463.56 328.57 460.95 323.72 C 454.64 322.91 447.90 321.36 443.23 316.73 C 440.71 314.30 439.56 310.84 439.38 307.41 C 434.97 303.94 431.19 299.71 428.41 294.83 C 397.27 294.94 366.12 294.83 334.97 294.88 C 326.01 294.72 316.86 291.86 309.99 285.98 C 303.07 280.05 299.28 271.00 298.89 261.99 C 298.77 210.56 299.05 159.13 298.75 107.70 M 371.44 56.58 C 378.59 68.64 379.17 84.03 373.67 96.84 C 367.32 112.18 352.63 123.90 336.07 126.00 C 325.83 127.44 315.13 125.02 306.57 119.23 C 306.64 166.50 306.56 213.78 306.61 261.05 C 306.79 267.89 309.40 274.83 314.49 279.53 C 319.99 284.63 327.66 286.77 335.02 287.06 C 365.47 287.02 395.92 287.13 426.37 287.01 C 426.09 281.51 428.85 276.41 432.64 272.62 C 429.84 267.62 428.15 261.55 429.88 255.91 C 431.37 250.93 435.25 247.10 439.59 244.46 C 439.64 243.98 439.75 243.03 439.80 242.55 C 408.14 242.57 376.48 242.57 344.81 242.55 C 344.81 240.82 344.80 239.09 344.80 237.36 C 376.85 237.31 408.89 237.38 440.94 237.33 C 442.60 232.18 445.92 227.18 451.14 225.15 C 454.10 223.77 457.45 224.09 460.54 223.23 C 458.34 223.30 456.15 223.54 453.95 223.54 C 417.57 223.52 381.19 223.54 344.81 223.53 C 344.81 221.78 344.81 220.05 344.82 218.31 C 384.32 218.32 423.82 218.31 463.32 218.32 C 466.29 214.82 470.17 211.81 474.83 211.12 C 480.24 210.18 485.61 212.19 490.25 214.82 C 495.58 211.98 501.84 210.25 507.87 211.60 C 513.73 212.93 518.48 217.26 521.42 222.36 C 521.30 180.24 521.31 138.11 521.26 95.98 C 521.62 86.16 521.39 75.61 516.07 66.99 C 512.28 60.73 505.21 56.86 497.95 56.57 C 455.78 56.60 413.61 56.60 371.44 56.58 M 307.55 110.06 C 316.69 118.34 330.34 120.65 341.91 116.66 C 355.86 112.13 366.77 99.43 369.10 84.94 C 370.80 75.25 368.42 64.89 362.37 57.09 C 344.08 74.73 325.82 92.40 307.55 110.06 M 474.40 216.57 C 468.58 218.41 465.14 224.17 463.40 229.68 C 459.11 228.88 454.11 228.51 450.54 231.51 C 445.95 235.44 444.77 241.88 444.66 247.63 C 440.39 249.93 435.81 253.03 434.68 258.07 C 433.44 263.66 436.20 269.22 439.68 273.44 C 435.22 276.89 430.62 281.85 431.70 287.98 C 433.18 295.28 438.99 300.71 444.81 304.87 C 444.32 307.96 444.81 311.46 447.42 313.52 C 452.11 317.38 458.44 318.31 464.32 318.69 C 466.44 323.07 469.12 327.97 474.10 329.51 C 480.00 331.17 485.89 327.91 490.23 324.14 C 493.93 327.47 498.77 330.39 503.96 329.35 C 510.69 327.94 515.93 322.74 519.58 317.17 C 524.19 318.21 529.79 319.03 533.56 315.48 C 538.36 310.46 538.62 302.89 538.10 296.35 C 542.42 295.07 547.63 293.50 549.43 288.90 C 550.89 283.81 547.80 278.87 544.78 275.02 C 547.29 270.48 549.39 265.25 548.23 259.99 C 547.05 254.34 542.54 250.09 537.62 247.45 C 538.00 242.20 537.77 236.08 533.79 232.13 C 529.96 228.53 524.14 228.52 519.34 229.77 C 517.09 224.88 514.19 219.63 508.98 217.45 C 502.62 214.83 495.56 217.41 490.18 221.06 C 485.64 217.94 480.05 214.99 474.40 216.57 Z" />
<path fill="#ffffff" opacity="1.00" d=" M 344.81 142.16 C 390.42 142.16 436.03 142.15 481.63 142.16 C 481.62 143.90 481.61 145.64 481.61 147.38 C 436.01 147.37 390.41 147.38 344.81 147.37 C 344.81 145.63 344.81 143.90 344.81 142.16 Z" />
<path fill="#ffffff" opacity="1.00" d=" M 344.81 161.19 C 390.42 161.19 436.02 161.18 481.63 161.19 C 481.62 162.93 481.62 164.67 481.62 166.41 C 436.01 166.40 390.41 166.41 344.81 166.41 C 344.81 164.66 344.81 162.93 344.81 161.19 Z" />
<path fill="#ffffff" opacity="1.00" d=" M 344.81 180.22 C 390.42 180.22 436.02 180.22 481.63 180.22 C 481.62 181.97 481.62 183.72 481.62 185.47 C 436.02 185.47 390.42 185.47 344.81 185.47 C 344.81 183.72 344.81 181.97 344.81 180.22 Z" />
<path fill="#ffffff" opacity="1.00" d=" M 344.80 199.31 C 390.41 199.25 436.02 199.30 481.63 199.28 C 481.62 201.02 481.62 202.76 481.62 204.50 C 436.02 204.50 390.42 204.51 344.81 204.49 C 344.81 202.76 344.80 201.03 344.80 199.31 Z" />
<path fill="#ffffff" opacity="1.00" d=" M 449.04 266.76 C 462.06 262.48 475.05 258.06 488.10 253.86 C 503.03 256.74 517.86 260.39 532.76 263.58 C 526.61 265.69 520.45 267.76 514.31 269.90 C 514.32 276.09 514.30 282.27 514.32 288.46 C 499.59 295.07 481.34 296.61 467.03 288.18 C 467.11 282.60 467.17 277.02 467.00 271.45 C 460.99 269.98 455.03 268.32 449.04 266.76 M 463.76 266.31 C 472.80 268.69 481.84 271.08 490.88 273.46 C 499.67 270.47 508.43 267.41 517.25 264.49 C 507.73 262.30 498.21 260.15 488.66 258.16 C 480.29 260.65 472.07 263.62 463.76 266.31 M 471.22 272.61 C 471.20 275.23 471.22 277.84 471.25 280.46 C 483.97 283.84 497.43 282.97 510.19 280.23 C 510.18 277.25 510.19 274.27 510.19 271.29 C 503.80 273.47 497.42 275.66 491.03 277.84 C 484.43 276.09 477.82 274.37 471.22 272.61 M 471.19 282.12 C 471.20 283.06 471.23 284.94 471.24 285.88 C 483.49 291.51 497.86 290.61 510.17 285.67 C 510.17 284.40 510.18 283.14 510.20 281.88 C 497.41 284.56 483.95 285.40 471.19 282.12 Z" />
<path fill="#ffffff" opacity="1.00" d=" M 456.39 327.88 C 456.71 328.06 457.36 328.41 457.68 328.58 C 453.22 339.65 448.37 350.57 443.72 361.57 C 443.36 361.40 442.65 361.07 442.29 360.91 C 446.99 349.90 451.65 338.87 456.39 327.88 Z" />
<path fill="#ffffff" opacity="1.00" d=" M 494.24 337.63 C 503.85 340.01 513.39 335.06 520.44 328.86 C 527.19 341.30 534.00 353.72 540.76 366.16 C 534.53 364.81 528.31 363.45 522.09 362.11 C 519.11 366.26 516.14 370.41 513.16 374.55 C 506.84 362.25 500.59 349.92 494.24 337.63 Z" />
<path fill="#ffffff" opacity="1.00" d=" M 524.47 330.33 C 524.64 329.97 524.97 329.25 525.13 328.89 C 526.41 330.33 527.30 332.03 528.17 333.74 C 533.68 344.06 539.27 354.34 544.76 364.67 C 544.43 364.86 543.77 365.25 543.44 365.44 C 537.03 353.79 530.89 341.98 524.47 330.33 Z" />
<path fill="#ffffff" opacity="1.00" d=" M 460.31 331.28 C 467.42 338.50 478.51 339.67 488.00 337.63 C 482.60 350.30 477.29 363.01 471.90 375.68 C 468.66 371.12 465.44 366.56 462.20 362.00 C 457.10 362.00 451.99 362.00 446.89 362.00 C 451.36 351.76 455.87 341.54 460.31 331.28 Z" />
<path fill="#ffffff" opacity="1.00" d=" M 475.12 375.86 C 480.53 362.84 485.89 349.79 491.34 336.79 C 497.76 349.82 504.24 362.81 510.64 375.85 C 510.29 376.02 509.59 376.35 509.23 376.52 C 503.28 364.57 497.40 352.57 491.44 340.62 C 486.49 352.58 481.53 364.53 476.58 376.48 C 476.21 376.33 475.48 376.02 475.12 375.86 Z" />
</g>
</svg>
