<?xml version="1.0" encoding="UTF-8" ?>
<!DOCTYPE svg PUBLIC "-//W3C//DTD SVG 1.1//EN" "http://www.w3.org/Graphics/SVG/1.1/DTD/svg11.dtd">
<svg width="825pt" height="525pt" viewBox="0 0 825 525" version="1.1" xmlns="http://www.w3.org/2000/svg">
<g id="#ffffffff">
<path fill="#ffffff" opacity="1.00" d=" M 343.19 105.74 C 364.31 86.68 385.47 67.67 406.57 48.58 C 408.63 48.70 409.98 50.31 411.48 51.49 C 433.17 69.59 454.89 87.64 476.58 105.72 C 470.19 112.90 463.77 120.06 457.38 127.24 C 454.04 124.52 450.70 121.79 447.37 119.06 C 447.43 131.09 447.27 143.12 447.45 155.15 C 462.14 155.05 476.83 155.06 491.51 155.14 C 501.22 165.60 511.07 175.92 520.84 186.32 C 520.84 191.94 520.84 197.56 520.84 203.19 C 518.95 203.19 517.07 203.19 515.19 203.19 C 515.19 218.73 515.19 234.27 515.19 249.81 C 526.17 249.89 537.17 249.66 548.15 249.91 C 568.52 259.81 588.70 270.15 609.00 280.23 C 609.00 284.50 609.00 288.76 609.00 293.03 C 577.73 293.03 546.46 293.03 515.19 293.03 C 515.18 295.17 515.18 297.30 515.19 299.44 C 544.46 299.44 573.72 299.45 602.99 299.43 C 603.01 325.11 603.00 350.79 603.00 376.47 C 473.43 376.51 343.86 376.50 214.29 376.47 C 214.28 351.53 214.28 326.59 214.29 301.65 C 243.75 301.66 273.22 301.65 302.68 301.65 C 302.68 298.78 302.68 295.91 302.69 293.04 C 272.13 293.02 241.56 293.04 211.00 293.03 C 211.00 288.77 211.00 284.51 211.00 280.25 C 230.72 270.18 250.35 259.90 270.13 249.94 C 280.97 249.63 291.84 249.91 302.69 249.81 C 302.69 234.27 302.69 218.73 302.69 203.19 C 300.80 203.19 298.91 203.18 297.03 203.19 C 297.02 197.86 297.03 192.54 297.03 187.22 C 307.29 176.50 317.50 165.72 327.82 155.05 C 342.04 155.14 356.25 155.07 370.47 155.09 C 370.47 143.10 370.47 131.11 370.47 119.12 C 367.34 121.89 364.21 124.66 361.08 127.43 C 355.11 120.20 349.15 112.97 343.19 105.74 M 353.36 106.53 C 356.19 109.97 359.03 113.41 361.86 116.84 C 376.70 103.69 391.58 90.60 406.38 77.40 C 406.92 77.46 408.00 77.58 408.54 77.63 C 424.49 90.85 440.61 103.88 456.62 117.03 C 459.74 113.54 462.86 110.05 465.98 106.55 C 446.47 90.30 426.96 74.05 407.45 57.80 C 389.40 74.03 371.39 90.29 353.36 106.53 M 377.61 118.58 C 377.64 130.75 377.61 142.92 377.62 155.09 C 398.50 155.09 419.37 155.09 440.25 155.09 C 440.26 142.93 440.23 130.76 440.26 118.60 C 429.85 108.98 419.37 99.42 408.93 89.83 C 398.49 99.41 388.03 108.97 377.61 118.58 M 305.25 190.93 C 305.25 191.79 305.25 193.52 305.25 194.38 C 374.36 194.39 443.47 194.38 512.58 194.39 C 512.58 192.91 512.59 191.44 512.60 189.98 C 504.40 181.25 496.18 172.55 487.97 163.84 C 435.69 163.84 383.41 163.84 331.13 163.84 C 322.50 172.87 313.87 181.89 305.25 190.93 M 310.91 203.31 C 310.90 258.13 310.90 312.95 310.91 367.78 C 334.18 367.78 357.45 367.78 380.72 367.78 C 380.72 346.48 380.72 325.18 380.72 303.88 C 399.52 303.87 418.32 303.87 437.12 303.88 C 437.13 325.18 437.12 346.48 437.13 367.78 C 460.40 367.78 483.66 367.78 506.93 367.78 C 506.94 312.95 506.91 258.13 506.93 203.30 C 441.59 203.31 376.25 203.30 310.91 203.31 M 268.97 258.86 C 251.91 267.76 234.70 276.36 217.70 285.35 C 246.02 285.55 274.35 285.38 302.68 285.44 C 302.69 276.10 302.69 266.75 302.69 257.41 C 292.83 257.42 282.98 257.39 273.13 257.41 C 271.59 257.30 270.29 258.23 268.97 258.86 M 515.19 257.41 C 515.19 266.75 515.18 276.10 515.19 285.44 C 544.23 285.39 573.26 285.54 602.29 285.37 C 583.78 275.96 565.22 266.62 546.57 257.51 C 536.12 257.25 525.65 257.49 515.19 257.41 M 516.34 307.04 C 516.35 327.65 516.34 348.26 516.34 368.87 C 542.85 368.88 569.36 368.87 595.87 368.87 C 595.87 348.26 595.87 327.65 595.88 307.03 C 569.36 307.03 542.85 307.03 516.34 307.04 M 221.41 309.22 C 221.41 329.10 221.41 348.99 221.41 368.87 C 248.50 368.88 275.59 368.88 302.69 368.87 C 302.68 348.99 302.69 329.10 302.69 309.22 C 275.59 309.22 248.50 309.22 221.41 309.22 M 386.22 309.72 C 386.22 329.07 386.22 348.43 386.22 367.78 C 392.87 367.78 399.53 367.78 406.18 367.78 C 406.19 348.43 406.19 329.07 406.19 309.72 C 399.53 309.72 392.87 309.72 386.22 309.72 M 411.69 309.72 C 411.68 329.07 411.68 348.43 411.69 367.78 C 418.33 367.78 424.98 367.78 431.62 367.78 C 431.62 348.42 431.63 329.07 431.62 309.72 C 424.97 309.72 418.33 309.71 411.69 309.72 Z" />
<path fill="#ffffff" opacity="1.00" d=" M 404.45 116.68 C 412.53 113.89 422.11 119.48 423.59 127.90 C 425.44 135.70 419.74 144.12 411.88 145.47 C 404.11 147.25 395.67 141.71 394.25 133.87 C 392.59 126.61 397.33 118.74 404.45 116.68 M 404.41 118.56 C 397.97 120.69 393.99 128.30 396.24 134.77 C 398.23 141.59 406.26 145.69 412.97 143.37 C 419.65 141.45 423.92 133.67 421.63 127.04 C 419.61 120.02 411.22 115.91 404.41 118.56 Z" />
<path fill="#ffffff" opacity="1.00" d=" M 408.12 122.08 C 408.53 122.09 409.33 122.10 409.73 122.10 C 409.75 124.73 409.75 127.36 409.75 129.99 C 411.47 130.00 413.20 130.01 414.93 130.03 C 414.93 130.46 414.93 131.33 414.93 131.76 C 412.65 131.78 410.37 131.78 408.09 131.78 C 408.08 128.55 408.08 125.31 408.12 122.08 Z" />
<path fill="#ffffff" opacity="1.00" d=" M 334.52 242.54 C 336.79 240.58 340.38 240.24 342.82 242.12 C 346.42 244.88 347.46 249.74 347.55 254.06 C 347.58 261.07 347.56 268.08 347.55 275.10 C 341.63 275.09 335.70 275.10 329.78 275.09 C 329.80 268.10 329.74 261.10 329.79 254.11 C 329.86 249.88 331.16 245.33 334.52 242.54 M 339.55 242.45 C 339.46 246.31 339.51 250.17 339.50 254.03 C 341.65 254.02 343.81 254.03 345.96 254.03 C 345.71 249.55 344.47 243.91 339.55 242.45 M 331.38 254.03 C 333.53 254.03 335.68 254.02 337.84 254.03 C 337.83 250.21 337.88 246.40 337.79 242.59 C 333.27 244.48 331.65 249.53 331.38 254.03 M 339.50 255.81 C 339.50 258.20 339.50 260.60 339.50 263.00 C 341.62 263.00 343.75 263.00 345.88 263.00 C 345.87 260.60 345.87 258.21 345.87 255.82 C 343.75 255.81 341.62 255.81 339.50 255.81 M 331.47 255.81 C 331.47 258.21 331.47 260.60 331.47 263.00 C 333.59 263.00 335.71 263.00 337.84 263.00 C 337.84 260.60 337.84 258.21 337.84 255.81 C 335.71 255.81 333.59 255.81 331.47 255.81 M 339.51 264.78 C 339.50 267.62 339.50 270.47 339.50 273.31 C 341.63 273.31 343.75 273.31 345.88 273.31 C 345.87 270.46 345.87 267.62 345.87 264.78 C 343.74 264.78 341.62 264.78 339.51 264.78 M 331.47 264.78 C 331.47 267.62 331.47 270.47 331.47 273.31 C 333.59 273.31 335.71 273.31 337.84 273.31 C 337.84 270.47 337.84 267.62 337.84 264.78 C 335.71 264.78 333.59 264.78 331.47 264.78 Z" />
<path fill="#ffffff" opacity="1.00" d=" M 405.22 242.21 C 407.62 240.38 411.24 240.41 413.51 242.46 C 416.74 245.30 417.71 249.85 417.80 253.97 C 417.84 261.01 417.79 268.05 417.81 275.09 C 411.89 275.09 405.98 275.09 400.06 275.09 C 400.07 268.06 400.03 261.02 400.07 253.99 C 400.12 249.63 401.58 244.89 405.22 242.21 M 401.63 254.03 C 403.78 254.02 405.93 254.02 408.09 254.03 C 408.08 250.22 408.12 246.41 408.06 242.61 C 403.55 244.47 401.89 249.54 401.63 254.03 M 409.80 242.44 C 409.71 246.30 409.76 250.16 409.75 254.03 C 411.90 254.02 414.05 254.02 416.21 254.03 C 415.97 249.53 414.71 243.92 409.80 242.44 M 401.72 255.81 C 401.71 258.21 401.71 260.60 401.72 263.00 C 403.84 263.00 405.96 263.00 408.09 263.00 C 408.09 260.60 408.09 258.21 408.09 255.81 C 405.96 255.81 403.84 255.81 401.72 255.81 M 409.75 255.81 C 409.74 258.21 409.75 260.60 409.75 263.00 C 411.87 263.00 413.99 263.00 416.12 263.00 C 416.12 260.60 416.12 258.21 416.12 255.81 C 413.99 255.81 411.87 255.81 409.75 255.81 M 401.72 273.31 C 403.84 273.31 405.96 273.31 408.09 273.31 C 408.09 270.47 408.09 267.62 408.09 264.78 C 405.96 264.78 403.84 264.78 401.72 264.78 C 401.71 267.62 401.71 270.47 401.72 273.31 M 409.75 264.78 C 409.75 267.62 409.74 270.47 409.75 273.31 C 411.87 273.31 413.99 273.31 416.12 273.31 C 416.12 270.47 416.12 267.62 416.12 264.78 C 413.99 264.78 411.87 264.78 409.75 264.78 Z" />
<path fill="#ffffff" opacity="1.00" d=" M 475.39 242.27 C 477.75 240.43 481.33 240.37 483.64 242.35 C 486.99 245.19 487.97 249.85 488.05 254.05 C 488.09 261.06 488.05 268.08 488.06 275.09 C 482.14 275.09 476.23 275.09 470.31 275.09 C 470.33 268.04 470.29 260.98 470.32 253.93 C 470.39 249.62 471.83 244.96 475.39 242.27 M 471.89 254.02 C 474.04 254.02 476.19 254.02 478.34 254.03 C 478.33 250.21 478.38 246.40 478.30 242.59 C 473.81 244.49 472.14 249.52 471.89 254.02 M 480.07 242.46 C 479.99 246.32 480.04 250.17 480.03 254.03 C 482.17 254.02 484.32 254.02 486.47 254.03 C 486.22 249.56 484.98 243.93 480.07 242.46 M 471.97 255.81 C 471.96 258.21 471.96 260.60 471.97 263.00 C 474.09 263.00 476.21 263.00 478.35 263.00 C 478.34 260.60 478.34 258.21 478.34 255.81 C 476.21 255.81 474.09 255.81 471.97 255.81 M 480.03 255.81 C 480.03 258.21 480.03 260.60 480.03 263.00 C 482.14 263.00 484.25 263.00 486.38 263.00 C 486.37 260.60 486.37 258.21 486.38 255.81 C 484.25 255.81 482.14 255.81 480.03 255.81 M 471.97 264.78 C 471.96 267.62 471.96 270.47 471.97 273.31 C 474.09 273.31 476.21 273.31 478.34 273.31 C 478.34 270.47 478.34 267.62 478.34 264.78 C 476.21 264.78 474.09 264.78 471.97 264.78 M 480.03 264.78 C 480.03 267.62 480.03 270.47 480.03 273.31 C 482.14 273.31 484.25 273.31 486.37 273.31 C 486.37 270.47 486.37 267.62 486.37 264.78 C 484.25 264.78 482.14 264.78 480.03 264.78 Z" />
<path fill="#ffffff" opacity="1.00" d=" M 334.59 314.77 C 337.00 312.72 340.83 312.57 343.22 314.72 C 346.44 317.52 347.42 322.02 347.55 326.11 C 347.59 333.20 347.55 340.29 347.56 347.38 C 341.63 347.37 335.71 347.38 329.78 347.37 C 329.78 340.58 329.77 333.79 329.78 327.00 C 329.76 322.55 331.02 317.69 334.59 314.77 M 331.38 326.30 C 333.53 326.31 335.68 326.31 337.83 326.32 C 337.84 322.49 337.90 318.66 337.77 314.84 C 333.34 316.83 331.62 321.78 331.38 326.30 M 339.54 314.73 C 339.47 318.59 339.51 322.45 339.50 326.31 C 341.66 326.31 343.81 326.31 345.97 326.30 C 345.68 321.82 344.49 316.18 339.54 314.73 M 331.47 328.10 C 331.47 330.49 331.47 332.88 331.47 335.28 C 333.59 335.28 335.71 335.28 337.84 335.28 C 337.84 332.88 337.84 330.49 337.85 328.09 C 335.72 328.09 333.59 328.09 331.47 328.10 M 339.50 328.10 C 339.50 330.49 339.50 332.89 339.51 335.28 C 341.62 335.28 343.75 335.28 345.87 335.28 C 345.87 332.88 345.87 330.49 345.87 328.09 C 343.74 328.09 341.62 328.09 339.50 328.10 M 331.47 337.06 C 331.47 339.90 331.47 342.75 331.47 345.59 C 333.59 345.59 335.71 345.59 337.84 345.59 C 337.84 342.75 337.84 339.91 337.84 337.06 C 335.72 337.06 333.59 337.06 331.47 337.06 M 339.49 337.07 C 339.50 339.91 339.50 342.75 339.50 345.59 C 341.62 345.59 343.74 345.59 345.87 345.59 C 345.87 342.75 345.87 339.90 345.87 337.06 C 343.74 337.06 341.62 337.06 339.49 337.07 Z" />
<path fill="#ffffff" opacity="1.00" d=" M 475.05 315.09 C 477.36 313.11 481.02 312.81 483.44 314.77 C 487.04 317.64 488.03 322.60 488.06 326.99 C 488.08 333.88 488.05 340.76 488.06 347.66 C 482.14 347.65 476.23 347.65 470.31 347.66 C 470.32 340.76 470.30 333.87 470.31 326.98 C 470.30 322.64 471.60 317.95 475.05 315.09 M 480.13 314.98 C 479.96 318.85 480.04 322.72 480.04 326.60 C 482.18 326.59 484.33 326.59 486.48 326.58 C 486.21 322.08 484.95 316.60 480.13 314.98 M 471.84 326.59 C 474.00 326.59 476.17 326.59 478.34 326.59 C 478.33 322.77 478.39 318.95 478.28 315.13 C 473.81 317.09 472.16 322.08 471.84 326.59 M 471.97 328.38 C 471.96 330.77 471.96 333.16 471.97 335.56 C 474.09 335.56 476.21 335.56 478.34 335.56 C 478.34 333.16 478.34 330.77 478.34 328.38 C 476.21 328.37 474.09 328.37 471.97 328.38 M 480.03 328.38 C 480.03 330.77 480.03 333.16 480.03 335.56 C 482.14 335.56 484.26 335.56 486.38 335.56 C 486.37 333.16 486.37 330.77 486.37 328.38 C 484.25 328.37 482.14 328.37 480.03 328.38 M 471.97 337.34 C 471.96 340.18 471.96 343.03 471.97 345.87 C 474.09 345.87 476.21 345.87 478.34 345.88 C 478.34 343.03 478.34 340.19 478.34 337.35 C 476.22 337.34 474.09 337.34 471.97 337.34 M 480.04 337.34 C 480.03 340.18 480.03 343.03 480.03 345.88 C 482.14 345.87 484.26 345.87 486.38 345.87 C 486.37 343.03 486.37 340.19 486.38 337.35 C 484.26 337.34 482.14 337.34 480.04 337.34 Z" />
<path fill="#ffffff" opacity="1.00" d=" M 554.43 323.52 C 556.92 321.70 560.64 321.91 562.85 324.10 C 566.02 327.16 566.87 331.81 566.88 336.04 C 566.87 342.86 566.87 349.68 566.87 356.50 C 560.95 356.50 555.04 356.50 549.12 356.50 C 549.14 349.34 549.08 342.17 549.14 335.01 C 549.28 330.72 550.79 326.09 554.43 323.52 M 550.70 335.43 C 552.84 335.44 555.00 335.44 557.15 335.44 C 557.15 331.63 557.18 327.82 557.12 324.01 C 552.65 325.91 550.94 330.92 550.70 335.43 M 558.88 323.85 C 558.81 327.71 558.85 331.57 558.85 335.44 C 560.99 335.44 563.14 335.44 565.30 335.43 C 565.04 330.95 563.77 325.34 558.88 323.85 M 558.85 337.22 C 558.84 339.61 558.84 342.00 558.84 344.40 C 560.96 344.40 563.09 344.40 565.22 344.40 C 565.21 342.01 565.21 339.61 565.22 337.22 C 563.09 337.22 560.96 337.22 558.85 337.22 M 550.78 337.22 C 550.77 339.61 550.78 342.01 550.78 344.40 C 552.90 344.40 555.03 344.40 557.16 344.40 C 557.15 342.01 557.15 339.61 557.16 337.22 C 555.03 337.22 552.90 337.22 550.78 337.22 M 550.78 354.72 C 552.90 354.71 555.02 354.71 557.14 354.73 C 557.15 351.88 557.16 349.03 557.15 346.19 C 555.02 346.19 552.90 346.18 550.78 346.19 C 550.77 349.03 550.77 351.87 550.78 354.72 M 558.85 346.19 C 558.84 349.03 558.84 351.87 558.85 354.72 C 560.96 354.71 563.09 354.71 565.22 354.72 C 565.22 351.87 565.21 349.03 565.22 346.20 C 563.09 346.19 560.96 346.18 558.85 346.19 Z" />
<path fill="#ffffff" opacity="1.00" d=" M 256.81 323.77 C 259.17 321.85 262.84 321.74 265.18 323.76 C 268.44 326.52 269.47 331.03 269.59 335.13 C 269.61 342.25 269.58 349.38 269.59 356.50 C 263.67 356.50 257.76 356.50 251.84 356.50 C 251.85 349.67 251.84 342.85 251.84 336.02 C 251.82 331.54 253.14 326.64 256.81 323.77 M 261.61 323.85 C 261.52 327.71 261.57 331.58 261.56 335.44 C 263.72 335.44 265.87 335.43 268.03 335.42 C 267.77 330.94 266.49 325.35 261.61 323.85 M 253.41 335.42 C 255.56 335.43 257.71 335.44 259.87 335.44 C 259.86 331.62 259.93 327.79 259.79 323.98 C 255.35 325.95 253.70 330.93 253.41 335.42 M 253.53 337.22 C 253.53 339.62 253.53 342.01 253.53 344.41 C 255.64 344.40 257.75 344.40 259.87 344.41 C 259.87 342.01 259.87 339.61 259.87 337.22 C 257.76 337.22 255.64 337.22 253.53 337.22 M 261.56 337.22 C 261.56 339.62 261.56 342.01 261.56 344.41 C 263.68 344.40 265.80 344.40 267.93 344.41 C 267.94 342.01 267.94 339.61 267.93 337.22 C 265.81 337.22 263.68 337.22 261.56 337.22 M 253.53 346.19 C 253.53 349.03 253.53 351.87 253.53 354.71 C 255.64 354.71 257.75 354.71 259.87 354.72 C 259.87 351.87 259.87 349.03 259.87 346.19 C 257.76 346.18 255.64 346.19 253.53 346.19 M 261.56 346.19 C 261.56 349.03 261.56 351.87 261.56 354.71 C 263.68 354.71 265.81 354.71 267.93 354.72 C 267.94 351.87 267.94 349.03 267.93 346.18 C 265.81 346.18 263.68 346.19 261.56 346.19 Z" />
</g>
</svg>
