<?xml version="1.0" encoding="UTF-8" ?>
<!DOCTYPE svg PUBLIC "-//W3C//DTD SVG 1.1//EN" "http://www.w3.org/Graphics/SVG/1.1/DTD/svg11.dtd">
<svg width="128pt" height="128pt" viewBox="0 0 128 128" version="1.1" xmlns="http://www.w3.org/2000/svg">
<g id="#e8e8e8ff">
<path fill="#e8e8e8" opacity="1.00" d=" M 71.16 19.11 C 75.45 18.47 79.26 21.25 82.83 23.23 C 93.84 30.44 101.27 43.73 99.88 57.03 C 99.00 60.93 92.00 60.34 92.13 56.14 C 92.13 44.31 85.06 32.62 74.05 27.95 C 72.16 26.94 69.30 26.53 68.91 23.98 C 68.16 22.02 69.47 20.03 71.16 19.11 Z" />
<path fill="#e8e8e8" opacity="1.00" d=" M 55.34 31.39 C 63.00 29.63 71.63 31.00 77.63 36.31 C 85.89 42.83 89.28 55.11 84.70 64.73 C 82.99 68.47 79.34 70.76 77.11 74.12 C 76.31 77.05 76.38 80.24 74.87 82.95 C 72.01 88.49 65.45 92.28 59.20 90.77 C 56.56 89.53 56.29 85.33 58.69 83.71 C 61.08 82.63 64.17 83.15 66.07 81.04 C 69.04 78.59 67.72 74.32 69.16 71.13 C 70.88 66.47 76.42 64.57 77.81 59.71 C 80.86 50.13 73.03 39.22 63.03 38.93 C 56.17 38.13 49.39 42.39 46.55 48.57 C 45.12 51.39 45.29 54.63 44.54 57.63 C 43.16 60.65 37.75 60.23 37.09 56.93 C 35.56 45.40 44.35 34.19 55.34 31.39 Z" />
<path fill="#e8e8e8" opacity="1.00" d=" M 58.41 44.58 C 65.51 42.09 74.00 48.45 73.05 56.05 C 73.19 59.66 67.82 60.93 65.81 58.21 C 64.78 56.07 64.93 52.47 61.81 52.28 C 58.73 52.32 58.83 55.79 57.86 57.90 C 56.19 60.79 51.14 59.96 50.40 56.70 C 49.51 51.42 53.38 46.08 58.41 44.58 Z" />
<path fill="#e8e8e8" opacity="1.00" d=" M 48.29 64.36 C 51.38 62.66 55.81 65.31 55.07 68.98 C 55.09 72.56 50.33 74.35 47.67 72.25 C 45.05 70.40 45.33 65.74 48.29 64.36 Z" />
<path fill="#e8e8e8" opacity="1.00" d=" M 38.27 69.20 C 42.10 73.06 45.95 76.90 49.80 80.74 C 48.12 82.43 46.43 84.12 44.73 85.79 C 40.90 81.94 37.06 78.10 33.20 74.27 C 34.88 72.57 36.57 70.88 38.27 69.20 Z" />
<path fill="#e8e8e8" opacity="1.00" d=" M 30.30 82.35 C 33.42 80.65 37.82 83.33 37.07 87.02 C 37.05 90.57 32.39 92.29 29.72 90.29 C 27.05 88.46 27.30 83.74 30.30 82.35 Z" />
</g>
<g id="#bf8295ff">
<path fill="#bf8295" opacity="1.00" d=" M 4.02 18.96 C 3.78 10.95 11.01 3.75 19.01 4.02 C 54.03 3.93 89.05 4.10 124.07 3.93 C 124.26 44.02 124.07 84.11 124.20 124.20 C 91.46 124.10 58.72 124.19 25.98 124.15 C 21.71 124.08 17.20 124.60 13.16 122.89 C 7.73 120.63 3.86 114.98 4.02 109.05 C 3.99 79.02 3.98 48.99 4.02 18.96 M 71.16 19.11 C 69.47 20.03 68.16 22.02 68.91 23.98 C 69.30 26.53 72.16 26.94 74.05 27.95 C 85.06 32.62 92.13 44.31 92.13 56.14 C 92.00 60.34 99.00 60.93 99.88 57.03 C 101.27 43.73 93.84 30.44 82.83 23.23 C 79.26 21.25 75.45 18.47 71.16 19.11 M 55.34 31.39 C 44.35 34.19 35.56 45.40 37.09 56.93 C 37.75 60.23 43.16 60.65 44.54 57.63 C 45.29 54.63 45.12 51.39 46.55 48.57 C 49.39 42.39 56.17 38.13 63.03 38.93 C 73.03 39.22 80.86 50.13 77.81 59.71 C 76.42 64.57 70.88 66.47 69.16 71.13 C 67.72 74.32 69.04 78.59 66.07 81.04 C 64.17 83.15 61.08 82.63 58.69 83.71 C 56.29 85.33 56.56 89.53 59.20 90.77 C 65.45 92.28 72.01 88.49 74.87 82.95 C 76.38 80.24 76.31 77.05 77.11 74.12 C 79.34 70.76 82.99 68.47 84.70 64.73 C 89.28 55.11 85.89 42.83 77.63 36.31 C 71.63 31.00 63.00 29.63 55.34 31.39 M 58.41 44.58 C 53.38 46.08 49.51 51.42 50.40 56.70 C 51.14 59.96 56.19 60.79 57.86 57.90 C 58.83 55.79 58.73 52.32 61.81 52.28 C 64.93 52.47 64.78 56.07 65.81 58.21 C 67.82 60.93 73.19 59.66 73.05 56.05 C 74.00 48.45 65.51 42.09 58.41 44.58 M 48.29 64.36 C 45.33 65.74 45.05 70.40 47.67 72.25 C 50.33 74.35 55.09 72.56 55.07 68.98 C 55.81 65.31 51.38 62.66 48.29 64.36 M 38.27 69.20 C 36.57 70.88 34.88 72.57 33.20 74.27 C 37.06 78.10 40.90 81.94 44.73 85.79 C 46.43 84.12 48.12 82.43 49.80 80.74 C 45.95 76.90 42.10 73.06 38.27 69.20 M 30.30 82.35 C 27.30 83.74 27.05 88.46 29.72 90.29 C 32.39 92.29 37.05 90.57 37.07 87.02 C 37.82 83.33 33.42 80.65 30.30 82.35 Z" />
</g>
</svg>
