<?xml version="1.0" encoding="UTF-8" ?>
<!DOCTYPE svg PUBLIC "-//W3C//DTD SVG 1.1//EN" "http://www.w3.org/Graphics/SVG/1.1/DTD/svg11.dtd">
<svg width="128pt" height="128pt" viewBox="0 0 128 128" version="1.1" xmlns="http://www.w3.org/2000/svg">
<g id="#e9e9e9ff">
<path fill="#e8e8e8" opacity="1.00" d=" M 23.35 23.84 C 30.85 22.62 38.45 23.28 46.00 23.16 C 53.55 23.28 61.15 22.62 68.65 23.85 C 68.80 29.64 68.78 35.43 68.67 41.22 C 65.76 41.60 62.83 41.75 59.90 41.62 C 59.50 39.43 59.12 37.23 58.74 35.04 C 56.49 35.02 54.24 35.01 51.99 35.01 C 51.76 48.91 51.81 62.82 51.97 76.72 C 54.51 77.06 57.05 77.41 59.58 77.82 C 59.60 80.69 59.59 83.55 59.57 86.42 C 50.54 87.10 41.46 87.10 32.44 86.43 C 32.41 83.56 32.40 80.69 32.41 77.82 C 34.95 77.41 37.49 77.06 40.03 76.73 C 40.20 62.82 40.23 48.91 40.01 35.00 C 37.76 35.01 35.51 35.02 33.27 35.04 C 32.88 37.23 32.50 39.43 32.10 41.62 C 29.17 41.75 26.24 41.60 23.33 41.22 C 23.22 35.43 23.20 29.64 23.35 23.84 Z" />
<path fill="#e8e8e8" opacity="1.00" d=" M 76.89 36.88 C 81.30 31.91 85.97 27.19 91.00 22.85 C 96.03 27.19 100.70 31.91 105.10 36.87 C 104.79 37.42 104.17 38.50 103.86 39.04 C 101.20 39.21 98.53 39.35 95.87 39.49 C 95.64 49.83 95.64 60.17 95.87 70.51 C 98.53 70.65 101.19 70.79 103.85 70.96 C 104.17 71.50 104.79 72.58 105.11 73.12 C 100.70 78.08 96.04 82.82 91.00 87.14 C 85.96 82.82 81.30 78.09 76.90 73.12 C 77.21 72.58 77.83 71.50 78.14 70.96 C 80.80 70.79 83.47 70.65 86.13 70.51 C 86.36 60.17 86.36 49.83 86.13 39.49 C 83.47 39.35 80.81 39.21 78.15 39.04 C 77.83 38.50 77.21 37.42 76.89 36.88 Z" />
</g>
<g id="#bf8295ff">
<path fill="#bf8295" opacity="1.00" d=" M 6.17 11.16 C 8.98 6.43 14.47 3.74 19.92 4.00 C 54.62 4.02 89.32 3.97 124.01 4.00 C 124.32 44.04 124.14 84.09 124.13 124.13 C 90.07 124.24 56.01 124.10 21.95 124.19 C 17.57 124.24 12.82 123.67 9.42 120.62 C 5.64 117.65 3.83 112.81 3.98 108.08 C 4.00 80.39 4.04 52.70 3.97 25.01 C 4.02 20.35 3.53 15.27 6.17 11.16 M 23.35 23.84 C 23.20 29.64 23.22 35.43 23.33 41.22 C 26.24 41.60 29.17 41.75 32.10 41.62 C 32.50 39.43 32.88 37.23 33.27 35.04 C 35.51 35.02 37.76 35.01 40.01 35.00 C 40.23 48.91 40.20 62.82 40.03 76.73 C 37.49 77.06 34.95 77.41 32.41 77.82 C 32.40 80.69 32.41 83.56 32.44 86.43 C 41.46 87.10 50.54 87.10 59.57 86.42 C 59.59 83.55 59.60 80.69 59.58 77.82 C 57.05 77.41 54.51 77.06 51.97 76.72 C 51.81 62.82 51.76 48.91 51.99 35.01 C 54.24 35.01 56.49 35.02 58.74 35.04 C 59.12 37.23 59.50 39.43 59.90 41.62 C 62.83 41.75 65.76 41.60 68.67 41.22 C 68.78 35.43 68.80 29.64 68.65 23.85 C 61.15 22.62 53.55 23.28 46.00 23.16 C 38.45 23.28 30.85 22.62 23.35 23.84 M 76.89 36.88 C 77.21 37.42 77.83 38.50 78.15 39.04 C 80.81 39.21 83.47 39.35 86.13 39.49 C 86.36 49.83 86.36 60.17 86.13 70.51 C 83.47 70.65 80.80 70.79 78.14 70.96 C 77.83 71.50 77.21 72.58 76.90 73.12 C 81.30 78.09 85.96 82.82 91.00 87.14 C 96.04 82.82 100.70 78.08 105.11 73.12 C 104.79 72.58 104.17 71.50 103.85 70.96 C 101.19 70.79 98.53 70.65 95.87 70.51 C 95.64 60.17 95.64 49.83 95.87 39.49 C 98.53 39.35 101.20 39.21 103.86 39.04 C 104.17 38.50 104.79 37.42 105.10 36.87 C 100.70 31.91 96.03 27.19 91.00 22.85 C 85.97 27.19 81.30 31.91 76.89 36.88 Z" />
</g>
</svg>
