<?xml version="1.0" encoding="UTF-8" ?>
<!DOCTYPE svg PUBLIC "-//W3C//DTD SVG 1.1//EN" "http://www.w3.org/Graphics/SVG/1.1/DTD/svg11.dtd">
<svg width="128pt" height="128pt" viewBox="0 0 128 128" version="1.1" xmlns="http://www.w3.org/2000/svg">
<g id="#e8e8e8ff">
<path fill="#fff" opacity="1.00" d=" M 41.05 20.93 C 41.02 18.43 44.75 18.36 45.89 20.09 C 58.35 32.96 70.85 45.80 83.38 58.59 C 85.30 59.99 87.50 63.25 84.95 65.10 C 79.64 65.65 74.27 65.19 68.94 65.29 C 71.23 72.32 74.97 78.83 76.94 85.96 C 75.64 88.50 72.42 88.93 70.11 90.20 C 68.42 91.09 65.41 91.85 64.73 89.37 C 62.24 83.61 59.77 77.82 57.65 71.91 C 52.77 75.54 49.23 80.66 44.56 84.54 C 43.00 85.61 40.63 83.89 41.00 82.06 C 41.03 61.69 40.93 41.31 41.05 20.93 Z" />
</g>
<g id="#bf8295ff">
<path fill="#9d2449" opacity="1.00" d=" M 4.01 18.95 C 3.78 10.99 10.95 3.80 18.91 4.01 C 53.63 3.96 88.35 4.05 123.06 3.96 C 123.26 44.04 123.09 84.11 123.18 124.18 C 88.44 124.10 53.69 124.22 18.95 124.11 C 12.55 124.13 6.50 119.64 4.65 113.53 C 3.74 110.43 4.03 107.16 3.99 103.98 C 4.02 75.63 3.97 47.29 4.01 18.95 M 41.05 20.93 C 40.93 41.31 41.03 61.69 41.00 82.06 C 40.63 83.89 43.00 85.61 44.56 84.54 C 49.23 80.66 52.77 75.54 57.65 71.91 C 59.77 77.82 62.24 83.61 64.73 89.37 C 65.41 91.85 68.42 91.09 70.11 90.20 C 72.42 88.93 75.64 88.50 76.94 85.96 C 74.97 78.83 71.23 72.32 68.94 65.29 C 74.27 65.19 79.64 65.65 84.95 65.10 C 87.50 63.25 85.30 59.99 83.38 58.59 C 70.85 45.80 58.35 32.96 45.89 20.09 C 44.75 18.36 41.02 18.43 41.05 20.93 Z" />
</g>
</svg>
