<?xml version="1.0" encoding="UTF-8" ?>
<!DOCTYPE svg PUBLIC "-//W3C//DTD SVG 1.1//EN" "http://www.w3.org/Graphics/SVG/1.1/DTD/svg11.dtd">
<svg width="128pt" height="128pt" viewBox="0 0 128 128" version="1.1" xmlns="http://www.w3.org/2000/svg">
<g id="#e9e9e9ff">
<path fill="#fff" opacity="1.00" d=" M 79.15 21.16 C 81.94 18.20 87.10 18.07 90.03 20.89 C 93.01 23.60 95.75 26.58 98.65 29.39 C 101.20 31.66 102.54 35.62 100.86 38.79 C 99.45 41.32 97.28 43.30 95.45 45.52 C 88.89 53.30 82.17 60.95 75.67 68.79 C 67.36 61.08 59.55 52.82 51.48 44.84 C 60.67 36.91 69.94 29.07 79.15 21.16 Z" />
<path fill="#fff" opacity="1.00" d=" M 41.03 54.09 C 42.94 51.54 45.74 49.86 48.06 47.71 C 56.48 55.64 64.49 64.01 72.70 72.17 C 70.13 74.72 68.51 78.57 64.97 79.92 C 61.95 80.10 59.13 78.50 56.21 77.88 C 53.82 80.29 51.41 82.69 49.00 85.08 C 44.39 80.53 39.86 75.91 35.24 71.38 C 37.64 68.95 40.09 66.56 42.46 64.10 C 41.89 60.84 39.31 57.35 41.03 54.09 Z" />
<path fill="#fff" opacity="1.00" d=" M 24.58 86.62 C 27.63 83.10 31.09 79.97 34.19 76.49 C 37.74 79.38 40.74 82.89 44.05 86.05 C 42.39 87.81 40.67 89.52 38.92 91.18 C 34.13 89.68 29.37 88.12 24.58 86.62 Z" />
</g>
<g id="#bf8295ff">
<path fill="#9d2449" opacity="1.00" d=" M 3.01 18.91 C 2.79 10.93 10.02 3.75 17.99 4.01 C 53.02 3.95 88.06 4.09 123.09 3.92 C 123.26 44.02 123.08 84.12 123.21 124.21 C 88.14 124.09 53.07 124.24 18.01 124.12 C 9.98 124.24 2.70 117.08 3.00 109.00 C 3.01 78.97 2.99 48.94 3.01 18.91 M 79.15 21.16 C 69.94 29.07 60.67 36.91 51.48 44.84 C 59.55 52.82 67.36 61.08 75.67 68.79 C 82.17 60.95 88.89 53.30 95.45 45.52 C 97.28 43.30 99.45 41.32 100.86 38.79 C 102.54 35.62 101.20 31.66 98.65 29.39 C 95.75 26.58 93.01 23.60 90.03 20.89 C 87.10 18.07 81.94 18.20 79.15 21.16 M 41.03 54.09 C 39.31 57.35 41.89 60.84 42.46 64.10 C 40.09 66.56 37.64 68.95 35.24 71.38 C 39.86 75.91 44.39 80.53 49.00 85.08 C 51.41 82.69 53.82 80.29 56.21 77.88 C 59.13 78.50 61.95 80.10 64.97 79.92 C 68.51 78.57 70.13 74.72 72.70 72.17 C 64.49 64.01 56.48 55.64 48.06 47.71 C 45.74 49.86 42.94 51.54 41.03 54.09 M 24.58 86.62 C 29.37 88.12 34.13 89.68 38.92 91.18 C 40.67 89.52 42.39 87.81 44.05 86.05 C 40.74 82.89 37.74 79.38 34.19 76.49 C 31.09 79.97 27.63 83.10 24.58 86.62 Z" />
</g>
</svg>
