<?xml version="1.0" encoding="UTF-8" ?>
<!DOCTYPE svg PUBLIC "-//W3C//DTD SVG 1.1//EN" "http://www.w3.org/Graphics/SVG/1.1/DTD/svg11.dtd">
<svg width="226pt" height="128pt" viewBox="0 0 226 128" version="1.1" xmlns="http://www.w3.org/2000/svg">
<g id="#e0e0e0fe">
</g>
<g id="#b3b3b3ff">
<path fill="#9d2449" opacity="1.00" d=" M 11.00 56.00 C 31.00 55.99 51.00 55.99 71.00 56.01 C 71.00 63.00 71.00 70.00 71.00 77.00 C 51.00 77.01 31.00 77.01 11.00 76.99 C 11.00 70.00 11.00 63.00 11.00 56.00 M 14.00 59.01 C 14.00 62.75 14.00 70.25 14.00 74.00 C 32.00 74.00 50.00 74.01 68.00 73.99 C 68.00 70.25 68.00 62.75 68.00 59.00 C 50.00 59.00 32.00 58.99 14.00 59.01 Z" />
<path fill="#9d2449" opacity="1.00" d=" M 83.00 56.00 C 103.00 55.99 123.00 55.99 143.00 56.01 C 143.00 63.00 143.00 70.00 143.00 77.00 C 123.00 77.01 103.00 77.01 83.00 76.99 C 83.00 70.00 83.00 63.00 83.00 56.00 M 86.00 59.01 C 86.00 62.75 86.00 70.25 86.00 74.00 C 104.00 74.00 122.00 74.01 140.00 73.99 C 140.00 70.25 140.00 62.75 140.00 59.00 C 122.00 59.00 104.00 58.99 86.00 59.01 Z" />
<path fill="#b3b3b3" opacity="1.00" d=" M 155.00 56.00 C 175.00 55.99 195.00 55.99 215.00 56.01 C 215.00 63.00 214.99 70.00 215.00 77.00 C 195.00 77.01 175.00 77.01 155.00 76.99 C 155.00 70.00 155.00 63.00 155.00 56.00 M 158.00 59.01 C 158.00 62.75 158.00 70.25 158.00 74.00 C 176.00 74.00 194.00 74.01 212.00 73.99 C 212.00 70.25 212.00 62.75 212.00 59.00 C 194.00 59.00 176.00 58.99 158.00 59.01 Z" />
</g>
<g id="#d6d6d6ff">
<path fill="#d6d6d6" opacity="1.00" d=" M 14.00 59.01 C 32.00 58.99 50.00 59.00 68.00 59.00 C 68.00 62.75 68.00 70.25 68.00 73.99 C 50.00 74.01 32.00 74.00 14.00 74.00 C 14.00 70.25 14.00 62.75 14.00 59.01 Z" />
<path fill="#d6d6d6" opacity="1.00" d=" M 86.00 59.01 C 104.00 58.99 122.00 59.00 140.00 59.00 C 140.00 62.75 140.00 70.25 140.00 73.99 C 122.00 74.01 104.00 74.00 86.00 74.00 C 86.00 70.25 86.00 62.75 86.00 59.01 Z" />
<path fill="#d6d6d6" opacity="1.00" d=" M 158.00 59.01 C 176.00 58.99 194.00 59.00 212.00 59.00 C 212.00 62.75 212.00 70.25 212.00 73.99 C 194.00 74.01 176.00 74.00 158.00 74.00 C 158.00 70.25 158.00 62.75 158.00 59.01 Z" />
</g>
</svg>
