<?xml version="1.0" encoding="UTF-8" ?>
<!DOCTYPE svg PUBLIC "-//W3C//DTD SVG 1.1//EN" "http://www.w3.org/Graphics/SVG/1.1/DTD/svg11.dtd">
<svg width="128pt" height="128pt" viewBox="0 0 128 128" version="1.1" xmlns="http://www.w3.org/2000/svg">
<g id="#eaeaeaff">
<path fill="#fff" opacity="1.00" d=" M 59.13 20.23 C 67.50 19.17 76.33 20.86 83.33 25.67 C 92.97 32.07 99.46 43.30 99.02 55.01 C 99.61 70.59 87.90 85.24 72.94 88.98 C 65.07 90.93 56.50 90.29 49.11 86.87 C 37.13 81.20 28.46 68.45 28.99 55.01 C 28.30 37.99 42.35 22.20 59.13 20.23 M 64.11 29.12 C 63.91 46.36 63.97 63.61 64.08 80.86 C 74.32 80.78 84.00 74.16 87.87 64.70 C 91.34 55.82 89.81 44.89 83.13 37.88 C 78.40 32.36 71.31 29.39 64.11 29.12 Z" />
</g>
<g id="#bf8295ff">
<path fill="#9d2449" opacity="1.00" d=" M 5.19 13.06 C 7.46 7.69 13.07 3.89 18.93 4.02 C 53.99 3.93 89.04 4.11 124.10 3.91 C 124.27 44.01 124.09 84.12 124.22 124.22 C 89.15 124.09 54.09 124.27 19.02 124.12 C 11.01 124.27 3.72 117.11 4.00 109.05 C 3.98 80.68 4.02 52.31 3.99 23.94 C 4.04 20.31 3.65 16.47 5.19 13.06 M 59.13 20.23 C 42.35 22.20 28.30 37.99 28.99 55.01 C 28.46 68.45 37.13 81.20 49.11 86.87 C 56.50 90.29 65.07 90.93 72.94 88.98 C 87.90 85.24 99.61 70.59 99.02 55.01 C 99.46 43.30 92.97 32.07 83.33 25.67 C 76.33 20.86 67.50 19.17 59.13 20.23 Z" />
<path fill="#9d2449" opacity="1.00" d=" M 64.11 29.12 C 71.31 29.39 78.40 32.36 83.13 37.88 C 89.81 44.89 91.34 55.82 87.87 64.70 C 84.00 74.16 74.32 80.78 64.08 80.86 C 63.97 63.61 63.91 46.36 64.11 29.12 Z" />
</g>
</svg>
