<?xml version="1.0" encoding="UTF-8" ?>
<!DOCTYPE svg PUBLIC "-//W3C//DTD SVG 1.1//EN" "http://www.w3.org/Graphics/SVG/1.1/DTD/svg11.dtd">
<svg width="128pt" height="128pt" viewBox="0 0 128 128" version="1.1" xmlns="http://www.w3.org/2000/svg">
<g id="#e8e8e8ff">
<path fill="#e8e8e8" opacity="1.00" d=" M 32.54 23.55 C 38.00 22.91 43.51 23.18 49.00 23.17 C 62.68 23.17 76.37 23.17 90.06 23.14 C 91.80 23.41 94.33 22.77 95.30 24.68 C 96.02 29.47 95.98 34.42 95.01 39.17 C 92.44 39.35 89.86 39.35 87.29 39.18 C 86.69 37.87 86.09 36.56 85.50 35.25 C 80.31 34.82 75.09 34.96 69.89 35.11 C 69.59 39.93 69.42 44.79 70.06 49.60 C 71.74 50.14 73.42 50.69 75.10 51.24 C 75.35 53.82 75.35 56.42 75.14 59.01 C 68.62 60.58 61.78 59.81 55.13 59.67 C 50.87 59.44 52.30 53.85 52.79 51.02 C 54.46 50.57 56.14 50.12 57.81 49.67 C 58.13 44.81 58.07 39.95 57.91 35.09 C 52.75 34.97 47.59 34.81 42.44 35.26 C 41.82 36.47 41.31 37.74 40.46 38.81 C 37.89 39.95 35.00 39.27 32.36 38.78 C 31.98 33.71 31.87 28.60 32.54 23.55 Z" />
<path fill="#e8e8e8" opacity="1.00" d=" M 34.57 69.59 C 38.28 66.02 41.62 62.03 45.81 59.01 C 46.35 59.29 47.43 59.86 47.96 60.15 C 48.20 62.71 48.37 65.29 48.49 67.86 C 58.63 68.45 68.81 68.21 78.95 68.01 C 79.11 65.29 79.44 62.58 79.87 59.89 C 80.41 59.69 81.48 59.28 82.02 59.07 C 87.09 63.27 91.67 68.05 96.00 73.00 C 91.67 77.94 87.09 82.73 82.02 86.92 C 81.48 86.72 80.41 86.32 79.87 86.11 C 79.44 83.42 79.12 80.71 78.96 77.99 C 68.81 77.79 58.63 77.54 48.49 78.14 C 48.37 80.71 48.20 83.27 47.96 85.83 C 47.43 86.13 46.36 86.73 45.82 87.04 C 41.04 83.24 36.77 78.80 32.72 74.25 C 31.26 72.50 33.53 70.83 34.57 69.59 Z" />
</g>
<g id="#bf8295ff">
<path fill="#bf8295" opacity="1.00" d=" M 5.04 18.93 C 4.75 10.54 12.64 3.31 20.94 4.00 C 54.96 4.06 88.97 3.97 122.99 4.02 C 123.45 41.34 122.98 78.68 123.24 116.00 C 123.26 118.70 123.17 121.39 123.08 124.09 C 89.73 124.34 56.36 124.06 22.99 124.21 C 18.33 124.36 13.34 123.50 9.87 120.11 C 6.40 117.15 4.82 112.54 4.99 108.06 C 5.07 78.35 4.97 48.64 5.04 18.93 M 32.54 23.55 C 31.87 28.60 31.98 33.71 32.36 38.78 C 35.00 39.27 37.89 39.95 40.46 38.81 C 41.31 37.74 41.82 36.47 42.44 35.26 C 47.59 34.81 52.75 34.97 57.91 35.09 C 58.07 39.95 58.13 44.81 57.81 49.67 C 56.14 50.12 54.46 50.57 52.79 51.02 C 52.30 53.85 50.87 59.44 55.13 59.67 C 61.78 59.81 68.62 60.58 75.14 59.01 C 75.35 56.42 75.35 53.82 75.10 51.24 C 73.42 50.69 71.74 50.14 70.06 49.60 C 69.42 44.79 69.59 39.93 69.89 35.11 C 75.09 34.96 80.31 34.82 85.50 35.25 C 86.09 36.56 86.69 37.87 87.29 39.18 C 89.86 39.35 92.44 39.35 95.01 39.17 C 95.98 34.42 96.02 29.47 95.30 24.68 C 94.33 22.77 91.80 23.41 90.06 23.14 C 76.37 23.17 62.68 23.17 49.00 23.17 C 43.51 23.18 38.00 22.91 32.54 23.55 M 34.57 69.59 C 33.53 70.83 31.26 72.50 32.72 74.25 C 36.77 78.80 41.04 83.24 45.82 87.04 C 46.36 86.73 47.43 86.13 47.96 85.83 C 48.20 83.27 48.37 80.71 48.49 78.14 C 58.63 77.54 68.81 77.79 78.96 77.99 C 79.12 80.71 79.44 83.42 79.87 86.11 C 80.41 86.32 81.48 86.72 82.02 86.92 C 87.09 82.73 91.67 77.94 96.00 73.00 C 91.67 68.05 87.09 63.27 82.02 59.07 C 81.48 59.28 80.41 59.69 79.87 59.89 C 79.44 62.58 79.11 65.29 78.95 68.01 C 68.81 68.21 58.63 68.45 48.49 67.86 C 48.37 65.29 48.20 62.71 47.96 60.15 C 47.43 59.86 46.35 59.29 45.81 59.01 C 41.62 62.03 38.28 66.02 34.57 69.59 Z" />
</g>
</svg>
