<?xml version="1.0" encoding="UTF-8" ?>
<!DOCTYPE svg PUBLIC "-//W3C//DTD SVG 1.1//EN" "http://www.w3.org/Graphics/SVG/1.1/DTD/svg11.dtd">
<svg width="128pt" height="128pt" viewBox="0 0 128 128" version="1.1" xmlns="http://www.w3.org/2000/svg">
<g id="#eaeaeaff">
</g>
<g id="#dadadaff">
</g>
<g id="#bf8295ff">
<path fill="#9d2449" opacity="1.00" d=" M 4.49 12.41 C 6.91 7.39 12.26 3.94 17.86 4.03 C 50.98 3.96 84.10 4.02 117.22 3.99 C 119.14 3.99 121.06 4.00 122.98 4.03 C 123.02 44.02 123.00 84.01 122.99 124.00 C 87.72 124.02 52.44 123.97 17.17 124.02 C 11.61 123.74 6.85 120.15 4.22 115.38 C 3.41 113.02 3.01 110.52 2.98 108.03 C 3.01 80.34 3.02 52.66 2.98 24.97 C 3.06 20.77 2.52 16.29 4.49 12.41 M 34.29 19.32 C 33.01 21.80 33.00 25.07 34.24 27.57 C 36.17 28.29 38.29 27.92 40.31 28.06 C 40.37 35.73 40.25 43.41 40.34 51.08 C 40.34 61.49 48.69 71.11 58.92 72.79 C 62.91 73.24 67.10 73.25 70.90 71.78 C 79.34 68.62 85.67 60.14 85.66 51.03 C 85.75 43.38 85.63 35.72 85.69 28.07 C 87.70 27.99 89.76 28.16 91.73 27.65 C 92.99 25.14 93.00 21.85 91.73 19.34 C 83.92 18.70 75.96 18.89 68.13 19.25 C 66.78 21.69 66.79 25.30 68.13 27.74 C 70.09 28.11 72.10 27.98 74.08 28.07 C 74.07 35.73 74.16 43.38 74.07 51.04 C 74.01 56.10 69.85 60.63 64.92 61.47 C 58.64 62.81 51.95 57.43 51.93 51.00 C 51.84 43.36 51.93 35.71 51.92 28.07 C 53.89 27.97 55.90 28.11 57.85 27.75 C 59.23 25.31 59.19 21.72 57.89 19.26 C 50.06 18.86 42.11 18.74 34.29 19.32 M 32.10 82.25 C 30.81 84.73 30.78 88.30 32.14 90.76 C 38.07 91.34 44.06 90.84 50.01 91.00 C 64.64 90.82 79.31 91.36 93.91 90.74 C 95.19 88.25 95.20 84.72 93.89 82.25 C 87.94 81.65 81.93 82.17 75.95 82.00 C 61.34 82.17 46.69 81.65 32.10 82.25 Z" />
</g>
<g id="#f0f0f0ff">
<path fill="#fff" opacity="1.00" d=" M 34.29 19.32 C 42.11 18.74 50.06 18.86 57.89 19.26 C 59.19 21.72 59.23 25.31 57.85 27.75 C 55.90 28.11 53.89 27.97 51.92 28.07 C 51.93 35.71 51.84 43.36 51.93 51.00 C 51.95 57.43 58.64 62.81 64.92 61.47 C 69.85 60.63 74.01 56.10 74.07 51.04 C 74.16 43.38 74.07 35.73 74.08 28.07 C 72.10 27.98 70.09 28.11 68.13 27.74 C 66.79 25.30 66.78 21.69 68.13 19.25 C 75.96 18.89 83.92 18.70 91.73 19.34 C 93.00 21.85 92.99 25.14 91.73 27.65 C 89.76 28.16 87.70 27.99 85.69 28.07 C 85.63 35.72 85.75 43.38 85.66 51.03 C 85.67 60.14 79.34 68.62 70.90 71.78 C 67.10 73.25 62.91 73.24 58.92 72.79 C 48.69 71.11 40.34 61.49 40.34 51.08 C 40.25 43.41 40.37 35.73 40.31 28.06 C 38.29 27.92 36.17 28.29 34.24 27.57 C 33.00 25.07 33.01 21.80 34.29 19.32 Z" />
<path fill="#fff" opacity="1.00" d=" M 32.10 82.25 C 46.69 81.65 61.34 82.17 75.95 82.00 C 81.93 82.17 87.94 81.65 93.89 82.25 C 95.20 84.72 95.19 88.25 93.91 90.74 C 79.31 91.36 64.64 90.82 50.01 91.00 C 44.06 90.84 38.07 91.34 32.14 90.76 C 30.78 88.30 30.81 84.73 32.10 82.25 Z" />
</g>
<g id="#e1e1e1ff">
</g>
</svg>
