<?xml version="1.0" encoding="UTF-8" ?>
<!DOCTYPE svg PUBLIC "-//W3C//DTD SVG 1.1//EN" "http://www.w3.org/Graphics/SVG/1.1/DTD/svg11.dtd">
<svg width="128pt" height="128pt" viewBox="0 0 128 128" version="1.1" xmlns="http://www.w3.org/2000/svg">
<g id="#ffffffff">
<path fill="#e8e8e8" opacity="1.00" d=" M 30.31 41.59 C 31.55 41.37 32.80 41.26 34.06 41.27 C 54.72 41.32 75.37 41.31 96.03 41.27 C 97.58 41.38 99.30 41.17 100.66 42.09 C 101.09 44.68 101.08 47.33 100.66 49.91 C 99.29 50.83 97.56 50.62 96.00 50.73 C 77.35 50.68 58.69 50.71 40.04 50.71 C 36.82 50.67 33.56 50.95 30.37 50.42 C 28.45 49.95 29.33 47.40 29.02 45.98 C 29.33 44.57 28.47 42.11 30.31 41.59 Z" />
<path fill="#e8e8e8" opacity="1.00" d=" M 30.35 59.58 C 33.20 59.07 36.12 59.32 39.00 59.29 C 58.37 59.33 77.74 59.27 97.10 59.31 C 98.25 59.51 99.84 59.15 100.64 60.22 C 101.11 62.71 101.09 65.29 100.66 67.78 C 99.47 69.00 97.50 68.52 95.98 68.72 C 77.34 68.68 58.70 68.71 40.06 68.70 C 36.84 68.66 33.59 68.96 30.40 68.42 C 28.47 68.00 29.32 65.44 29.02 64.04 C 29.36 62.60 28.43 60.05 30.35 59.58 Z" />
</g>
<g id="#b87086ff">
<path fill="#b87086" opacity="1.00" d=" M 16.25 4.35 C 20.45 3.49 24.76 3.93 29.01 3.86 C 61.10 3.77 93.19 4.00 125.28 3.72 C 125.37 43.94 125.20 84.17 125.40 124.40 C 90.25 124.19 55.10 124.38 19.96 124.29 C 14.29 124.26 8.81 120.77 6.37 115.66 C 4.33 111.76 4.83 107.22 4.83 102.98 C 4.90 74.97 4.82 46.95 4.87 18.95 C 4.79 12.24 9.74 5.91 16.25 4.35 M 30.31 41.59 C 28.47 42.11 29.33 44.57 29.02 45.98 C 29.33 47.40 28.45 49.95 30.37 50.42 C 33.56 50.95 36.82 50.67 40.04 50.71 C 58.69 50.71 77.35 50.68 96.00 50.73 C 97.56 50.62 99.29 50.83 100.66 49.91 C 101.08 47.33 101.09 44.68 100.66 42.09 C 99.30 41.17 97.58 41.38 96.03 41.27 C 75.37 41.31 54.72 41.32 34.06 41.27 C 32.80 41.26 31.55 41.37 30.31 41.59 M 30.35 59.58 C 28.43 60.05 29.36 62.60 29.02 64.04 C 29.32 65.44 28.47 68.00 30.40 68.42 C 33.59 68.96 36.84 68.66 40.06 68.70 C 58.70 68.71 77.34 68.68 95.98 68.72 C 97.50 68.52 99.47 69.00 100.66 67.78 C 101.09 65.29 101.11 62.71 100.64 60.22 C 99.84 59.15 98.25 59.51 97.10 59.31 C 77.74 59.27 58.37 59.33 39.00 59.29 C 36.12 59.32 33.20 59.07 30.35 59.58 Z" />
</g>
</svg>
