<?xml version="1.0" encoding="UTF-8" ?>
<!DOCTYPE svg PUBLIC "-//W3C//DTD SVG 1.1//EN" "http://www.w3.org/Graphics/SVG/1.1/DTD/svg11.dtd">
<svg width="276pt" height="128pt" viewBox="0 0 276 128" version="1.1" xmlns="http://www.w3.org/2000/svg">
<g id="#ffffffff">
<path fill="#ffffff" opacity="1.00" d=" M 38.24 49.80 C 47.15 49.66 56.07 49.60 64.98 49.81 C 66.25 52.53 65.49 55.98 65.20 58.95 C 63.82 58.93 62.44 58.92 61.06 58.91 C 60.86 57.79 60.67 56.66 60.50 55.53 C 58.60 55.55 56.69 55.57 54.79 55.59 C 54.81 62.59 54.81 69.59 54.79 76.59 C 56.13 76.72 57.48 76.88 58.82 77.05 C 58.80 78.37 58.79 79.69 58.78 81.01 C 54.23 81.58 49.63 81.24 45.06 81.22 C 45.07 79.75 45.07 78.27 45.07 76.80 C 46.38 76.75 47.68 76.71 48.99 76.68 C 49.01 69.64 49.00 62.60 49.00 55.57 C 46.98 55.57 44.97 55.58 42.96 55.57 C 42.91 56.39 42.83 58.03 42.79 58.85 C 41.27 58.85 39.76 58.84 38.24 58.78 C 38.19 55.79 38.18 52.79 38.24 49.80 Z" />
<path fill="#ffffff" opacity="1.00" d=" M 197.23 49.80 C 206.13 49.67 215.04 49.59 223.93 49.82 C 225.26 51.98 224.39 55.09 224.48 57.62 C 224.34 59.75 221.45 58.61 220.08 59.00 C 219.87 57.84 219.68 56.69 219.50 55.53 C 217.59 55.55 215.69 55.57 213.79 55.59 C 213.81 62.59 213.81 69.60 213.79 76.60 C 215.12 76.72 216.45 76.85 217.78 76.99 C 217.78 78.33 217.79 79.66 217.80 81.00 C 213.25 81.59 208.64 81.23 204.07 81.22 C 204.06 79.75 204.06 78.28 204.06 76.81 C 205.37 76.76 206.69 76.71 208.00 76.67 C 208.00 69.63 208.00 62.60 208.00 55.57 C 205.99 55.58 203.98 55.58 201.97 55.57 C 201.91 56.40 201.79 58.07 201.74 58.90 C 200.23 58.87 198.72 58.82 197.22 58.75 C 197.19 55.77 197.19 52.78 197.23 49.80 Z" />
<path fill="#ffffff" opacity="1.00" d=" M 236.49 52.18 C 236.60 48.83 242.43 48.70 243.56 51.37 C 243.88 54.92 243.60 58.50 243.69 62.06 C 247.40 62.14 251.13 61.85 254.83 62.22 C 256.49 63.80 256.50 67.24 254.80 68.79 C 251.11 69.15 247.39 68.86 243.69 68.94 C 243.60 72.49 243.89 76.06 243.56 79.60 C 242.49 82.30 236.62 82.18 236.49 78.84 C 236.33 75.54 236.50 72.24 236.45 68.93 C 232.71 68.82 228.95 69.24 225.24 68.71 C 223.63 67.19 223.62 63.79 225.26 62.28 C 228.96 61.77 232.72 62.17 236.45 62.06 C 236.50 58.77 236.33 55.47 236.49 52.18 Z" />
<path fill="#ffffff" opacity="1.00" d=" M 66.25 62.29 C 76.08 61.85 85.99 62.00 95.84 62.22 C 97.48 63.81 97.49 67.22 95.82 68.78 C 87.24 69.18 78.62 68.79 70.02 68.97 C 68.48 68.75 66.21 69.48 65.37 67.71 C 65.18 65.95 64.60 63.54 66.25 62.29 Z" />
<path fill="#ffffff" opacity="1.00" d=" M 20.25 63.23 C 27.77 62.93 35.30 63.01 42.82 63.18 C 42.89 65.45 42.90 67.71 42.87 69.97 C 40.95 69.78 37.82 71.01 37.94 67.97 C 37.10 67.96 35.40 67.94 34.56 67.92 C 34.56 70.83 34.54 73.74 34.50 76.66 C 35.20 76.70 36.60 76.78 37.30 76.82 C 37.30 78.29 37.30 79.76 37.30 81.23 C 33.55 81.33 29.79 81.33 26.04 81.23 C 26.03 79.76 26.02 78.28 26.02 76.80 C 26.68 76.77 28.02 76.72 28.68 76.70 C 28.62 73.78 28.61 70.86 28.64 67.94 C 26.82 67.96 24.39 67.37 24.55 70.03 C 23.10 69.98 21.65 69.93 20.20 69.88 C 20.21 67.66 20.21 65.44 20.25 63.23 Z" />
<path fill="#ffffff" opacity="1.00" d=" M 179.25 63.23 C 186.76 62.92 194.29 63.02 201.81 63.17 C 201.89 65.44 201.90 67.70 201.87 69.97 C 199.95 69.79 196.83 71.01 196.94 67.97 C 196.09 67.96 194.40 67.94 193.55 67.93 C 193.56 70.84 193.54 73.74 193.50 76.65 C 194.19 76.69 195.59 76.77 196.29 76.82 C 196.29 78.29 196.29 79.76 196.29 81.23 C 192.54 81.32 188.79 81.33 185.03 81.23 C 185.03 79.75 185.02 78.28 185.02 76.80 C 185.68 76.77 187.02 76.72 187.68 76.70 C 187.63 73.77 187.60 70.85 187.63 67.92 C 185.81 67.95 183.41 67.39 183.55 70.03 C 182.10 69.98 180.65 69.94 179.20 69.88 C 179.21 67.67 179.21 65.45 179.25 63.23 Z" />
</g>
<g id="#9d2449ff">
<path fill="#9d2449" opacity="1.00" d=" M 5.98 27.95 C 5.75 19.94 12.97 12.73 20.98 12.98 C 45.99 12.92 71.01 12.98 96.02 12.94 C 104.06 12.71 111.22 19.89 111.17 27.89 C 111.29 53.67 111.16 79.45 111.25 105.23 C 109.81 112.35 103.47 118.37 96.01 118.25 C 70.97 118.16 45.93 118.29 20.89 118.18 C 12.88 118.22 5.70 111.05 5.94 103.00 C 5.99 77.98 5.92 52.97 5.98 27.95 M 38.24 49.80 C 38.18 52.79 38.19 55.79 38.24 58.78 C 39.76 58.84 41.27 58.85 42.79 58.85 C 42.83 58.03 42.91 56.39 42.96 55.57 C 44.97 55.58 46.98 55.57 49.00 55.57 C 49.00 62.60 49.01 69.64 48.99 76.68 C 47.68 76.71 46.38 76.75 45.07 76.80 C 45.07 78.27 45.07 79.75 45.06 81.22 C 49.63 81.24 54.23 81.58 58.78 81.01 C 58.79 79.69 58.80 78.37 58.82 77.05 C 57.48 76.88 56.13 76.72 54.79 76.59 C 54.81 69.59 54.81 62.59 54.79 55.59 C 56.69 55.57 58.60 55.55 60.50 55.53 C 60.67 56.66 60.86 57.79 61.06 58.91 C 62.44 58.92 63.82 58.93 65.20 58.95 C 65.49 55.98 66.25 52.53 64.98 49.81 C 56.07 49.60 47.15 49.66 38.24 49.80 M 66.25 62.29 C 64.60 63.54 65.18 65.95 65.37 67.71 C 66.21 69.48 68.48 68.75 70.02 68.97 C 78.62 68.79 87.24 69.18 95.82 68.78 C 97.49 67.22 97.48 63.81 95.84 62.22 C 85.99 62.00 76.08 61.85 66.25 62.29 M 20.25 63.23 C 20.21 65.44 20.21 67.66 20.20 69.88 C 21.65 69.93 23.10 69.98 24.55 70.03 C 24.39 67.37 26.82 67.96 28.64 67.94 C 28.61 70.86 28.62 73.78 28.68 76.70 C 28.02 76.72 26.68 76.77 26.02 76.80 C 26.02 78.28 26.03 79.76 26.04 81.23 C 29.79 81.33 33.55 81.33 37.30 81.23 C 37.30 79.76 37.30 78.29 37.30 76.82 C 36.60 76.78 35.20 76.70 34.50 76.66 C 34.54 73.74 34.56 70.83 34.56 67.92 C 35.40 67.94 37.10 67.96 37.94 67.97 C 37.82 71.01 40.95 69.78 42.87 69.97 C 42.90 67.71 42.89 65.45 42.82 63.18 C 35.30 63.01 27.77 62.93 20.25 63.23 Z" />
<path fill="#9d2449" opacity="1.00" d=" M 175.46 13.64 C 178.55 12.72 181.81 12.98 184.99 12.95 C 208.35 12.97 231.72 12.96 255.08 12.94 C 263.12 12.74 270.25 19.94 270.17 27.95 C 270.29 52.98 270.16 78.02 270.25 103.06 C 270.35 111.14 263.06 118.39 254.98 118.25 C 229.96 118.18 204.94 118.26 179.92 118.20 C 171.93 118.25 164.74 111.09 164.94 103.06 C 164.99 78.01 164.92 52.96 164.98 27.91 C 164.86 21.52 169.39 15.49 175.46 13.64 M 197.23 49.80 C 197.19 52.78 197.19 55.77 197.22 58.75 C 198.72 58.82 200.23 58.87 201.74 58.90 C 201.79 58.07 201.91 56.40 201.97 55.57 C 203.98 55.58 205.99 55.58 208.00 55.57 C 208.00 62.60 208.00 69.63 208.00 76.67 C 206.69 76.71 205.37 76.76 204.06 76.81 C 204.06 78.28 204.06 79.75 204.07 81.22 C 208.64 81.23 213.25 81.59 217.80 81.00 C 217.79 79.66 217.78 78.33 217.78 76.99 C 216.45 76.85 215.12 76.72 213.79 76.60 C 213.81 69.60 213.81 62.59 213.79 55.59 C 215.69 55.57 217.59 55.55 219.50 55.53 C 219.68 56.69 219.87 57.84 220.08 59.00 C 221.45 58.61 224.34 59.75 224.48 57.62 C 224.39 55.09 225.26 51.98 223.93 49.82 C 215.04 49.59 206.13 49.67 197.23 49.80 M 236.49 52.18 C 236.33 55.47 236.50 58.77 236.45 62.06 C 232.72 62.17 228.96 61.77 225.26 62.28 C 223.62 63.79 223.63 67.19 225.24 68.71 C 228.95 69.24 232.71 68.82 236.45 68.93 C 236.50 72.24 236.33 75.54 236.49 78.84 C 236.62 82.18 242.49 82.30 243.56 79.60 C 243.89 76.06 243.60 72.49 243.69 68.94 C 247.39 68.86 251.11 69.15 254.80 68.79 C 256.50 67.24 256.49 63.80 254.83 62.22 C 251.13 61.85 247.40 62.14 243.69 62.06 C 243.60 58.50 243.88 54.92 243.56 51.37 C 242.43 48.70 236.60 48.83 236.49 52.18 M 179.25 63.23 C 179.21 65.45 179.21 67.67 179.20 69.88 C 180.65 69.94 182.10 69.98 183.55 70.03 C 183.41 67.39 185.81 67.95 187.63 67.92 C 187.60 70.85 187.63 73.77 187.68 76.70 C 187.02 76.72 185.68 76.77 185.02 76.80 C 185.02 78.28 185.03 79.75 185.03 81.23 C 188.79 81.33 192.54 81.32 196.29 81.23 C 196.29 79.76 196.29 78.29 196.29 76.82 C 195.59 76.77 194.19 76.69 193.50 76.65 C 193.54 73.74 193.56 70.84 193.55 67.93 C 194.40 67.94 196.09 67.96 196.94 67.97 C 196.83 71.01 199.95 69.79 201.87 69.97 C 201.90 67.70 201.89 65.44 201.81 63.17 C 194.29 63.02 186.76 62.92 179.25 63.23 Z" />
</g>
</svg>
