<?xml version="1.0" encoding="UTF-8" ?>
<!DOCTYPE svg PUBLIC "-//W3C//DTD SVG 1.1//EN" "http://www.w3.org/Graphics/SVG/1.1/DTD/svg11.dtd">
<svg width="128pt" height="128pt" viewBox="0 0 128 128" version="1.1" xmlns="http://www.w3.org/2000/svg">
<g id="#e9e9e9ff">
<path fill="#fff" opacity="1.00" d=" M 57.18 19.26 C 64.47 18.42 72.11 18.85 78.74 22.27 C 91.43 28.11 100.13 41.91 99.23 55.95 C 98.99 59.55 96.22 62.70 92.83 63.76 C 87.44 64.56 81.94 63.41 76.56 64.35 C 72.88 65.16 70.07 68.40 69.40 72.06 C 68.53 76.20 72.53 79.82 71.30 83.94 C 70.62 87.43 67.73 90.62 64.06 90.91 C 55.33 92.02 46.72 88.27 40.07 82.83 C 30.16 74.88 25.42 61.33 27.39 48.88 C 29.61 33.99 42.34 21.50 57.18 19.26 M 61.45 28.53 C 59.78 29.30 58.53 31.10 58.84 32.99 C 59.08 36.09 63.42 38.34 65.78 35.89 C 69.87 33.25 65.73 26.08 61.45 28.53 M 43.37 37.56 C 40.28 38.80 39.92 43.55 42.88 45.16 C 45.30 47.19 49.29 44.96 49.37 42.00 C 50.03 38.90 46.15 35.81 43.37 37.56 M 79.39 37.55 C 77.73 38.33 76.53 40.16 76.84 42.04 C 77.15 45.15 81.47 47.34 83.83 44.85 C 87.87 42.16 83.65 35.03 79.39 37.55 M 39.31 55.33 C 36.13 56.36 35.23 61.10 38.14 62.95 C 40.10 64.95 43.23 63.67 44.48 61.54 C 46.63 58.46 42.60 53.87 39.31 55.33 Z" />
</g>
<g id="#bf8295ff">
<path fill="#9d2449" opacity="1.00" d=" M 7.02 18.97 C 6.76 10.98 13.97 3.76 21.97 4.02 C 54.34 3.93 86.72 4.10 119.09 3.92 C 119.26 44.02 119.08 84.11 119.21 124.21 C 88.80 124.12 58.38 124.18 27.96 124.17 C 22.86 124.24 17.16 124.49 12.97 121.05 C 8.90 118.07 6.71 113.03 6.98 108.03 C 7.04 78.34 6.96 48.66 7.02 18.97 M 57.18 19.26 C 42.34 21.50 29.61 33.99 27.39 48.88 C 25.42 61.33 30.16 74.88 40.07 82.83 C 46.72 88.27 55.33 92.02 64.06 90.91 C 67.73 90.62 70.62 87.43 71.30 83.94 C 72.53 79.82 68.53 76.20 69.40 72.06 C 70.07 68.40 72.88 65.16 76.56 64.35 C 81.94 63.41 87.44 64.56 92.83 63.76 C 96.22 62.70 98.99 59.55 99.23 55.95 C 100.13 41.91 91.43 28.11 78.74 22.27 C 72.11 18.85 64.47 18.42 57.18 19.26 Z" />
<path fill="#9d2449" opacity="1.00" d=" M 61.45 28.53 C 65.73 26.08 69.87 33.25 65.78 35.89 C 63.42 38.34 59.08 36.09 58.84 32.99 C 58.53 31.10 59.78 29.30 61.45 28.53 Z" />
<path fill="#9d2449" opacity="1.00" d=" M 43.37 37.56 C 46.15 35.81 50.03 38.90 49.37 42.00 C 49.29 44.96 45.30 47.19 42.88 45.16 C 39.92 43.55 40.28 38.80 43.37 37.56 Z" />
<path fill="#9d2449" opacity="1.00" d=" M 79.39 37.55 C 83.65 35.03 87.87 42.16 83.83 44.85 C 81.47 47.34 77.15 45.15 76.84 42.04 C 76.53 40.16 77.73 38.33 79.39 37.55 Z" />
<path fill="#9d2449" opacity="1.00" d=" M 39.31 55.33 C 42.60 53.87 46.63 58.46 44.48 61.54 C 43.23 63.67 40.10 64.95 38.14 62.95 C 35.23 61.10 36.13 56.36 39.31 55.33 Z" />
</g>
</svg>
