<?xml version="1.0" encoding="UTF-8" ?>
<!DOCTYPE svg PUBLIC "-//W3C//DTD SVG 1.1//EN" "http://www.w3.org/Graphics/SVG/1.1/DTD/svg11.dtd">
<svg width="128pt" height="128pt" viewBox="0 0 128 128" version="1.1" xmlns="http://www.w3.org/2000/svg">
<g id="#e4e4e4ff">
<path fill="#fff" opacity="1.00" d=" M 53.37 25.03 C 53.73 22.92 56.42 23.28 58.00 23.08 C 65.33 23.10 72.67 23.12 80.01 23.08 C 81.60 23.25 83.55 22.89 84.80 24.16 C 85.20 26.71 85.21 29.31 84.79 31.86 C 81.65 33.79 77.54 32.57 74.01 32.97 C 70.32 47.67 66.67 62.37 62.97 77.07 C 65.81 77.43 71.37 75.75 71.78 79.92 C 71.83 82.33 72.66 86.88 68.97 86.76 C 61.66 87.14 54.31 86.73 46.99 86.94 C 44.88 86.85 42.63 87.11 40.64 86.29 C 39.67 85.14 40.07 83.37 39.88 81.97 C 40.22 80.45 39.32 77.94 41.37 77.42 C 44.54 76.90 47.79 77.10 51.00 77.02 C 54.67 62.32 58.33 47.62 62.03 32.93 C 59.31 32.89 56.39 33.25 53.85 32.12 C 52.80 29.95 53.09 27.36 53.37 25.03 Z" />
</g>
<g id="#bf8295ff">
<path fill="#9d2449" opacity="1.00" d=" M 15.16 5.20 C 18.56 3.65 22.39 4.04 26.02 3.99 C 57.02 4.01 88.02 3.99 119.02 4.00 C 119.20 44.05 119.06 84.09 119.13 124.14 C 86.75 124.08 54.37 124.14 21.99 124.09 C 16.27 124.36 10.59 121.32 7.84 116.27 C 5.65 112.58 5.99 108.14 5.99 104.02 C 6.03 75.66 5.96 47.29 6.03 18.93 C 5.95 13.06 9.74 7.41 15.16 5.20 M 53.37 25.03 C 53.09 27.36 52.80 29.95 53.85 32.12 C 56.39 33.25 59.31 32.89 62.03 32.93 C 58.33 47.62 54.67 62.32 51.00 77.02 C 47.79 77.10 44.54 76.90 41.37 77.42 C 39.32 77.94 40.22 80.45 39.88 81.97 C 40.07 83.37 39.67 85.14 40.64 86.29 C 42.63 87.11 44.88 86.85 46.99 86.94 C 54.31 86.73 61.66 87.14 68.97 86.76 C 72.66 86.88 71.83 82.33 71.78 79.92 C 71.37 75.75 65.81 77.43 62.97 77.07 C 66.67 62.37 70.32 47.67 74.01 32.97 C 77.54 32.57 81.65 33.79 84.79 31.86 C 85.21 29.31 85.20 26.71 84.80 24.16 C 83.55 22.89 81.60 23.25 80.01 23.08 C 72.67 23.12 65.33 23.10 58.00 23.08 C 56.42 23.28 53.73 22.92 53.37 25.03 Z" />
</g>
</svg>
