<?xml version="1.0" encoding="UTF-8" ?>
<!DOCTYPE svg PUBLIC "-//W3C//DTD SVG 1.1//EN" "http://www.w3.org/Graphics/SVG/1.1/DTD/svg11.dtd">
<svg width="1035pt" height="240pt" viewBox="0 0 1035 240" version="1.1" xmlns="http://www.w3.org/2000/svg">
<g id="#e4e4e4ff">
</g>
<g id="#eeeeeeff">
<path fill="#eeeeee" opacity="1.00" d=" M 219.43 0.00 L 386.40 0.00 C 388.78 0.99 391.22 1.82 393.73 2.46 C 400.06 4.11 405.39 8.40 411.90 9.52 C 411.19 9.78 409.77 10.30 409.06 10.56 C 412.33 11.56 415.84 11.13 419.09 12.28 C 436.36 11.83 453.73 12.20 471.04 12.10 C 632.68 11.99 794.32 12.10 955.97 12.08 C 969.65 11.79 984.35 12.33 996.37 19.65 C 1000.19 23.33 1005.38 27.80 1004.24 33.72 C 999.51 30.76 993.86 29.68 988.34 30.00 C 983.17 25.32 975.87 24.01 969.13 23.56 C 961.47 22.46 953.71 22.97 946.00 22.95 C 783.01 22.91 620.02 22.94 457.04 22.94 C 448.47 23.05 439.74 22.25 431.35 24.35 C 428.00 27.29 423.24 27.39 419.68 30.00 C 417.51 30.04 415.35 30.08 413.19 30.03 C 411.45 29.96 409.72 30.02 408.00 30.07 C 407.99 26.06 408.02 22.04 407.98 18.02 C 404.81 17.97 401.63 18.03 398.46 17.99 C 396.57 15.61 393.98 13.93 391.15 12.89 C 382.14 9.62 372.57 7.62 362.95 7.91 C 328.97 7.95 294.99 7.97 261.01 7.93 C 250.64 8.29 240.21 7.23 229.90 8.67 C 219.39 9.20 209.24 12.60 199.68 16.82 C 191.86 21.17 182.85 23.12 173.94 22.99 C 131.28 22.90 88.61 23.04 45.95 22.90 C 35.92 23.44 24.96 25.05 17.66 32.65 C 10.00 41.43 8.27 53.76 9.03 65.02 C 8.80 94.35 9.12 123.68 8.90 153.01 C 8.91 158.24 9.73 163.45 11.38 168.42 C 12.52 171.62 13.10 175.34 15.99 177.52 C 15.57 184.40 17.57 191.62 22.40 196.68 C 14.80 196.70 6.30 193.27 2.97 186.04 C 2.10 184.48 1.06 183.04 0.00 181.62 L 0.00 41.58 C 3.07 32.28 8.70 23.38 17.44 18.52 C 28.93 12.56 42.28 11.72 54.98 12.11 C 95.66 11.99 136.34 12.04 177.02 12.07 C 190.12 12.16 201.29 3.99 213.94 1.86 C 215.86 1.54 217.66 0.79 219.43 0.00 Z" />
</g>
<g id="#f6f6f6ff">
<path fill="#f6f6f6" opacity="1.00" d=" M 229.90 8.67 C 240.21 7.23 250.64 8.29 261.01 7.93 C 294.99 7.97 328.97 7.95 362.95 7.91 C 372.57 7.62 382.14 9.62 391.15 12.89 C 393.98 13.93 396.57 15.61 398.46 17.99 C 342.94 18.02 287.43 17.97 231.92 18.02 C 223.45 18.19 215.88 23.32 211.29 30.22 C 210.48 30.19 208.86 30.13 208.05 30.09 C 206.07 30.05 204.10 29.96 202.12 30.02 C 200.07 30.06 198.01 29.95 195.96 30.02 C 193.76 30.06 191.57 29.96 189.38 30.01 C 186.97 30.05 184.57 29.97 182.17 30.01 C 179.39 30.02 176.62 29.98 173.84 30.01 C 129.20 30.01 84.55 29.98 39.90 30.02 C 27.34 30.24 16.22 41.38 16.02 53.94 C 15.97 95.14 16.02 136.33 15.99 177.52 C 13.10 175.34 12.52 171.62 11.38 168.42 C 9.73 163.45 8.91 158.24 8.90 153.01 C 9.12 123.68 8.80 94.35 9.03 65.02 C 8.27 53.76 10.00 41.43 17.66 32.65 C 24.96 25.05 35.92 23.44 45.95 22.90 C 88.61 23.04 131.28 22.90 173.94 22.99 C 182.85 23.12 191.86 21.17 199.68 16.82 C 209.24 12.60 219.39 9.20 229.90 8.67 Z" />
</g>
<g id="#9d2449ff">
<path fill="#9d2449" opacity="1.00" d=" M 211.29 30.22 C 215.88 23.32 223.45 18.19 231.92 18.02 C 287.43 17.97 342.94 18.02 398.46 17.99 C 401.63 18.03 404.81 17.97 407.98 18.02 C 408.02 22.04 407.99 26.06 408.00 30.07 C 407.77 66.71 407.96 103.35 407.90 139.99 C 407.95 161.16 407.75 182.34 408.12 203.51 C 408.10 203.85 408.08 204.54 408.06 204.89 C 407.96 209.26 408.14 213.64 408.02 218.02 C 349.49 218.00 290.97 217.98 232.44 218.01 C 223.56 217.95 215.37 212.59 210.97 205.01 C 209.08 202.22 208.41 198.79 207.96 195.50 C 207.93 191.79 208.05 188.09 208.00 184.38 C 208.00 136.93 208.00 89.47 208.00 42.01 C 207.80 37.85 209.30 33.81 211.29 30.22 M 284.39 51.49 C 270.42 63.49 256.52 75.57 242.56 87.58 C 240.11 89.76 240.22 94.12 242.85 96.11 C 256.37 107.91 270.01 119.57 283.57 131.33 C 285.60 133.60 289.38 133.59 291.66 131.69 C 294.30 129.76 293.70 126.04 293.40 123.26 C 284.72 116.03 276.28 108.51 267.69 101.19 C 262.52 96.26 262.37 87.50 267.51 82.51 C 276.14 74.92 284.94 67.53 293.57 59.94 C 293.51 57.41 294.13 54.59 292.43 52.43 C 290.33 50.38 286.83 49.43 284.39 51.49 M 314.42 51.46 C 300.44 63.47 286.53 75.56 272.57 87.57 C 270.09 89.77 270.22 94.18 272.89 96.15 C 286.43 107.96 300.08 119.64 313.65 131.40 C 316.52 134.54 322.41 133.01 323.55 128.94 C 323.83 121.94 323.21 114.73 323.85 107.86 C 333.59 109.15 344.67 111.83 350.34 120.66 C 355.37 129.79 352.55 140.67 349.89 150.09 C 347.88 153.95 353.71 157.58 356.64 154.68 C 368.84 145.63 377.31 130.50 375.93 115.05 C 375.69 103.87 370.68 92.27 361.03 86.10 C 349.98 78.68 336.50 76.66 323.56 75.38 C 323.64 68.93 323.57 62.47 323.60 56.02 C 323.93 51.53 317.80 48.63 314.42 51.46 Z" />
<path fill="#9d2449" opacity="1.00" d=" M 16.02 53.94 C 16.22 41.38 27.34 30.24 39.90 30.02 C 84.55 29.98 129.20 30.01 173.84 30.01 C 172.22 38.93 172.02 48.01 171.00 57.00 C 171.22 91.34 171.00 125.69 171.05 160.02 C 172.31 169.21 172.06 178.61 174.39 187.64 C 176.01 193.41 176.70 199.44 179.05 204.99 C 132.75 205.01 86.46 205.00 40.16 205.00 C 33.41 204.80 26.89 201.70 22.40 196.68 C 17.57 191.62 15.57 184.40 15.99 177.52 C 16.02 136.33 15.97 95.14 16.02 53.94 Z" />
<path fill="#9d2449" opacity="1.00" d=" M 425.82 30.00 C 613.33 29.99 800.84 30.01 988.34 30.00 C 993.86 29.68 999.51 30.76 1004.24 33.72 C 1009.86 37.44 1014.18 43.21 1015.52 49.88 C 1015.74 51.57 1015.99 53.26 1016.00 54.96 C 1016.01 96.66 1015.98 138.35 1016.01 180.04 C 1016.34 193.79 1003.65 205.89 989.94 205.02 C 804.53 204.98 619.13 205.01 433.72 205.00 C 429.35 204.99 424.98 205.01 420.61 205.01 C 421.67 201.32 423.55 197.90 424.16 194.08 C 425.10 189.32 424.66 184.42 425.52 179.64 C 426.43 174.81 425.87 169.90 425.90 165.02 C 425.93 127.35 425.92 89.67 425.94 52.00 C 425.53 44.65 427.19 37.31 425.82 30.00 Z" />
</g>
<g id="#f5f5f5ff">
<path fill="#f5f5f5" opacity="1.00" d=" M 431.35 24.35 C 439.74 22.25 448.47 23.05 457.04 22.94 C 620.02 22.94 783.01 22.91 946.00 22.95 C 953.71 22.97 961.47 22.46 969.13 23.56 C 975.87 24.01 983.17 25.32 988.34 30.00 C 800.84 30.01 613.33 29.99 425.82 30.00 C 423.77 29.97 421.72 29.99 419.68 30.00 C 423.24 27.39 428.00 27.29 431.35 24.35 Z" />
</g>
<g id="#a23053ff">
<path fill="#a23053" opacity="1.00" d=" M 173.84 30.01 C 176.62 29.98 179.39 30.02 182.17 30.01 C 182.36 33.49 181.94 36.95 181.52 40.40 C 180.56 50.57 181.44 60.79 180.88 70.97 C 180.94 97.33 180.97 123.67 181.00 150.01 C 180.67 161.89 181.01 173.83 182.54 185.62 C 183.96 192.47 186.56 199.07 190.30 204.99 C 186.55 204.95 182.80 205.03 179.05 204.99 C 176.70 199.44 176.01 193.41 174.39 187.64 C 172.06 178.61 172.31 169.21 171.05 160.02 C 171.00 125.69 171.22 91.34 171.00 57.00 C 172.02 48.01 172.22 38.93 173.84 30.01 Z" />
</g>
<g id="#ab4464ff">
<path fill="#ab4464" opacity="1.00" d=" M 182.17 30.01 C 184.57 29.97 186.97 30.05 189.38 30.01 C 188.31 37.29 187.21 44.61 187.34 51.99 C 187.35 87.66 187.34 123.34 187.35 159.02 C 187.12 169.54 187.79 180.21 190.72 190.37 C 192.24 195.75 195.51 200.35 198.50 204.99 C 195.76 204.92 193.03 205.04 190.30 204.99 C 186.56 199.07 183.96 192.47 182.54 185.62 C 181.01 173.83 180.67 161.89 181.00 150.01 C 180.97 123.67 180.94 97.33 180.88 70.97 C 181.44 60.79 180.56 50.57 181.52 40.40 C 181.94 36.95 182.36 33.49 182.17 30.01 Z" />
</g>
<g id="#ba647eff">
<path fill="#ba647e" opacity="1.00" d=" M 189.38 30.01 C 191.57 29.96 193.76 30.06 195.96 30.02 C 194.89 35.98 193.97 41.98 193.66 48.03 C 193.63 86.36 193.66 124.68 193.65 163.01 C 193.67 167.29 194.50 171.51 194.42 175.80 C 195.17 186.91 199.65 198.56 209.21 204.97 C 205.64 204.84 202.07 205.08 198.50 204.99 C 195.51 200.35 192.24 195.75 190.72 190.37 C 187.79 180.21 187.12 169.54 187.35 159.02 C 187.34 123.34 187.35 87.66 187.34 51.99 C 187.21 44.61 188.31 37.29 189.38 30.01 Z" />
</g>
<g id="#ca899dff">
<path fill="#ca899d" opacity="1.00" d=" M 195.96 30.02 C 198.01 29.95 200.07 30.06 202.12 30.02 C 199.14 40.06 199.34 50.66 199.33 61.03 C 199.33 92.37 199.33 123.72 199.34 155.07 C 199.35 164.05 199.18 173.12 201.03 181.96 C 202.22 186.93 204.10 191.97 207.96 195.50 C 208.41 198.79 209.08 202.22 210.97 205.01 C 210.53 205.00 209.65 204.98 209.21 204.97 C 199.65 198.56 195.17 186.91 194.42 175.80 C 194.50 171.51 193.67 167.29 193.65 163.01 C 193.66 124.68 193.63 86.36 193.66 48.03 C 193.97 41.98 194.89 35.98 195.96 30.02 Z" />
</g>
<g id="#daacbaff">
<path fill="#daacba" opacity="1.00" d=" M 202.12 30.02 C 204.10 29.96 206.07 30.05 208.05 30.09 C 205.81 35.79 204.55 41.87 204.64 48.00 C 204.54 88.34 204.56 128.68 204.63 169.03 C 204.92 174.26 205.34 179.73 208.00 184.38 C 208.05 188.09 207.93 191.79 207.96 195.50 C 204.10 191.97 202.22 186.93 201.03 181.96 C 199.18 173.12 199.35 164.05 199.34 155.07 C 199.33 123.72 199.33 92.37 199.33 61.03 C 199.34 50.66 199.14 40.06 202.12 30.02 Z" />
</g>
<g id="#e6c7d0ff">
<path fill="#e6c7d0" opacity="1.00" d=" M 208.05 30.09 C 208.86 30.13 210.48 30.19 211.29 30.22 C 209.30 33.81 207.80 37.85 208.00 42.01 C 208.00 89.47 208.00 136.93 208.00 184.38 C 205.34 179.73 204.92 174.26 204.63 169.03 C 204.56 128.68 204.54 88.34 204.64 48.00 C 204.55 41.87 205.81 35.79 208.05 30.09 Z" />
</g>
<g id="#a34864ff">
<path fill="#a34864" opacity="1.00" d=" M 408.00 30.07 C 409.72 30.02 411.45 29.96 413.19 30.03 C 413.58 35.01 413.43 40.01 413.39 45.00 C 413.32 89.34 413.42 133.68 413.33 178.02 C 412.34 186.58 412.44 195.81 408.12 203.51 C 407.75 182.34 407.95 161.16 407.90 139.99 C 407.96 103.35 407.77 66.71 408.00 30.07 Z" />
</g>
<g id="#992e4fff">
<path fill="#992e4f" opacity="1.00" d=" M 413.19 30.03 C 415.35 30.08 417.51 30.04 419.68 30.00 C 421.72 29.99 423.77 29.97 425.82 30.00 C 427.19 37.31 425.53 44.65 425.94 52.00 C 425.92 89.67 425.93 127.35 425.90 165.02 C 425.87 169.90 426.43 174.81 425.52 179.64 C 424.66 184.42 425.10 189.32 424.16 194.08 C 423.55 197.90 421.67 201.32 420.61 205.01 C 416.42 205.09 412.24 204.96 408.06 204.89 C 408.08 204.54 408.10 203.85 408.12 203.51 C 412.44 195.81 412.34 186.58 413.33 178.02 C 413.42 133.68 413.32 89.34 413.39 45.00 C 413.43 40.01 413.58 35.01 413.19 30.03 Z" />
</g>
<g id="#d5d5d5ff">
<path fill="#d5d5d5" opacity="1.00" d=" M 1020.94 43.07 C 1021.69 41.71 1023.42 42.02 1024.73 41.99 C 1027.17 42.20 1029.61 41.75 1032.05 41.93 C 1033.22 42.81 1034.10 44.01 1035.00 45.17 L 1035.00 196.60 C 1033.04 202.33 1030.53 208.00 1026.68 212.72 C 1018.92 221.25 1007.22 224.60 996.02 225.01 C 983.09 226.84 970.02 225.63 957.01 226.04 C 786.99 225.91 616.96 226.08 446.95 225.96 C 444.98 225.69 444.12 227.66 442.76 228.63 C 439.56 229.34 436.20 229.59 433.31 231.25 C 427.26 234.60 420.25 235.90 414.60 240.00 L 226.33 240.00 C 222.47 234.81 215.29 235.27 209.76 233.08 C 205.76 231.22 201.31 231.91 197.05 231.85 C 157.03 231.88 117.01 231.83 76.99 231.86 C 70.41 232.19 63.94 230.79 57.38 230.50 C 49.25 229.20 41.26 226.13 34.72 221.05 C 34.89 220.38 35.05 219.71 35.21 219.04 C 34.40 217.32 31.62 215.85 32.70 213.70 C 35.60 211.17 37.70 207.93 40.16 205.00 C 86.46 205.00 132.75 205.01 179.05 204.99 C 182.80 205.03 186.55 204.95 190.30 204.99 C 193.03 205.04 195.76 204.92 198.50 204.99 C 202.07 205.08 205.64 204.84 209.21 204.97 C 209.65 204.98 210.53 205.00 210.97 205.01 C 215.37 212.59 223.56 217.95 232.44 218.01 C 232.70 220.38 229.03 220.84 229.66 223.35 C 230.66 224.96 232.08 226.25 233.33 227.67 C 234.62 229.52 237.14 229.23 239.08 229.85 C 240.93 230.05 242.03 232.04 244.00 231.87 C 249.07 232.12 253.91 233.91 259.00 233.95 C 306.99 233.96 354.98 233.87 402.97 233.98 C 409.11 233.81 414.88 231.43 420.65 229.58 C 424.04 228.72 425.85 225.21 429.21 224.32 C 433.62 223.12 437.58 220.74 441.04 217.78 C 440.66 216.55 439.41 216.09 438.49 215.37 C 440.37 214.65 441.99 213.37 441.94 211.17 C 439.34 208.93 436.29 207.29 433.72 205.00 C 619.13 205.01 804.53 204.98 989.94 205.02 C 1003.65 205.89 1016.34 193.79 1016.01 180.04 C 1015.98 138.35 1016.01 96.66 1016.00 54.96 C 1015.99 53.26 1015.74 51.57 1015.52 49.88 C 1018.21 48.39 1019.43 45.58 1020.94 43.07 Z" />
</g>
<g id="#ffffffff">
<path fill="#ffffff" opacity="1.00" d=" M 284.39 51.49 C 286.83 49.43 290.33 50.38 292.43 52.43 C 294.13 54.59 293.51 57.41 293.57 59.94 C 284.94 67.53 276.14 74.92 267.51 82.51 C 262.37 87.50 262.52 96.26 267.69 101.19 C 276.28 108.51 284.72 116.03 293.40 123.26 C 293.70 126.04 294.30 129.76 291.66 131.69 C 289.38 133.59 285.60 133.60 283.57 131.33 C 270.01 119.57 256.37 107.91 242.85 96.11 C 240.22 94.12 240.11 89.76 242.56 87.58 C 256.52 75.57 270.42 63.49 284.39 51.49 Z" />
<path fill="#ffffff" opacity="1.00" d=" M 314.42 51.46 C 317.80 48.63 323.93 51.53 323.60 56.02 C 323.57 62.47 323.64 68.93 323.56 75.38 C 336.50 76.66 349.98 78.68 361.03 86.10 C 370.68 92.27 375.69 103.87 375.93 115.05 C 377.31 130.50 368.84 145.63 356.64 154.68 C 353.71 157.58 347.88 153.95 349.89 150.09 C 352.55 140.67 355.37 129.79 350.34 120.66 C 344.67 111.83 333.59 109.15 323.85 107.86 C 323.21 114.73 323.83 121.94 323.55 128.94 C 322.41 133.01 316.52 134.54 313.65 131.40 C 300.08 119.64 286.43 107.96 272.89 96.15 C 270.22 94.18 270.09 89.77 272.57 87.57 C 286.53 75.56 300.44 63.47 314.42 51.46 Z" />
</g>
<g id="#dededeff">
</g>
<g id="#dcdcdcff">
</g>
<g id="#cececeff">
<path fill="#cecece" opacity="1.00" d=" M 408.06 204.89 C 412.24 204.96 416.42 205.09 420.61 205.01 C 424.98 205.01 429.35 204.99 433.72 205.00 C 436.29 207.29 439.34 208.93 441.94 211.17 C 441.99 213.37 440.37 214.65 438.49 215.37 C 439.41 216.09 440.66 216.55 441.04 217.78 C 437.58 220.74 433.62 223.12 429.21 224.32 C 425.85 225.21 424.04 228.72 420.65 229.58 C 414.88 231.43 409.11 233.81 402.97 233.98 C 354.98 233.87 306.99 233.96 259.00 233.95 C 253.91 233.91 249.07 232.12 244.00 231.87 C 242.03 232.04 240.93 230.05 239.08 229.85 C 237.14 229.23 234.62 229.52 233.33 227.67 C 232.08 226.25 230.66 224.96 229.66 223.35 C 229.03 220.84 232.70 220.38 232.44 218.01 C 290.97 217.98 349.49 218.00 408.02 218.02 C 408.14 213.64 407.96 209.26 408.06 204.89 Z" />
</g>
</svg>
