<?xml version="1.0" encoding="UTF-8" ?>
<!DOCTYPE svg PUBLIC "-//W3C//DTD SVG 1.1//EN" "http://www.w3.org/Graphics/SVG/1.1/DTD/svg11.dtd">
<svg width="1035pt" height="240pt" viewBox="0 0 1035 240" version="1.1" xmlns="http://www.w3.org/2000/svg">
<g id="#e2e2e2ff">
<path fill="#e2e2e2" opacity="1.00" d=" M 406.02 36.93 C 412.91 36.00 420.30 34.44 427.00 37.07 C 430.89 40.10 432.08 45.36 433.07 49.96 C 434.32 58.58 434.83 67.30 435.06 76.00 C 434.90 117.69 435.18 159.40 434.91 201.09 C 434.72 204.08 436.16 206.75 437.78 209.15 C 436.61 209.13 435.46 209.09 434.30 209.04 C 430.97 208.24 427.68 207.28 424.37 206.42 C 424.25 203.62 424.08 200.82 423.94 198.02 C 424.08 159.69 423.95 121.34 424.01 83.00 C 424.04 74.56 424.46 65.96 422.20 57.73 C 421.17 54.08 420.17 50.18 417.52 47.34 C 412.91 45.25 408.74 48.62 405.97 52.00 C 406.03 46.98 406.02 41.96 406.02 36.93 Z" />
</g>
<g id="#e8e8e8ff">
<path fill="#e8e8e8" opacity="1.00" d=" M 218.59 0.00 L 369.31 0.00 C 373.66 0.41 377.97 1.11 382.29 1.77 C 392.26 3.24 401.32 7.90 410.73 11.24 C 417.88 13.76 425.57 12.90 433.00 12.95 C 599.00 12.94 765.00 12.95 931.00 12.94 C 944.00 13.05 957.04 12.46 970.00 13.87 C 980.23 14.75 991.23 16.78 999.07 23.93 C 1003.64 27.96 1004.81 34.15 1006.58 39.68 C 1008.24 45.17 1011.53 50.19 1011.95 56.03 C 1012.93 64.24 1010.15 72.97 1014.09 80.69 L 1014.10 81.68 C 1014.07 115.13 1014.18 148.59 1014.02 182.05 C 1014.04 190.54 1010.51 199.46 1003.26 204.28 C 997.96 208.00 991.37 209.14 985.01 209.06 C 802.60 209.18 620.19 209.02 437.78 209.15 C 436.16 206.75 434.72 204.08 434.91 201.09 C 435.18 159.40 434.90 117.69 435.06 76.00 C 434.83 67.30 434.32 58.58 433.07 49.96 C 432.08 45.36 430.89 40.10 427.00 37.07 C 420.30 34.44 412.91 36.00 406.02 36.93 C 406.04 31.99 405.93 27.04 405.97 22.10 C 403.15 22.00 400.34 21.90 397.53 21.84 C 395.48 19.68 393.28 17.57 390.51 16.38 C 380.65 11.95 369.69 10.91 359.00 10.79 C 320.00 10.83 281.00 10.83 242.00 10.79 C 229.96 11.09 217.74 12.14 206.34 16.28 C 198.71 18.81 191.66 22.96 183.77 24.70 C 176.30 26.36 168.59 25.79 161.00 25.82 C 126.00 25.80 91.00 25.83 56.00 25.80 C 45.65 25.69 34.96 25.36 25.11 29.05 C 17.49 31.82 11.45 38.23 8.73 45.82 C 5.07 55.44 5.80 65.91 5.81 76.00 C 5.79 102.00 5.86 128.00 5.77 154.00 C 5.94 162.88 6.20 172.33 11.19 180.04 C 14.44 173.82 13.11 166.70 13.20 160.00 C 12.93 150.64 14.20 141.34 14.14 132.00 C 14.02 111.66 14.14 91.33 14.08 71.00 C 14.10 65.46 13.69 59.87 14.51 54.37 C 16.05 44.15 24.94 35.54 35.22 34.38 C 41.12 33.69 47.08 34.14 53.00 34.10 C 89.00 34.09 125.00 34.10 161.00 34.09 C 168.16 34.10 175.33 33.85 182.47 34.47 C 185.42 34.80 188.52 35.14 191.12 36.70 C 191.98 42.79 189.79 48.85 189.95 54.97 C 189.90 88.64 189.97 122.32 189.93 156.00 C 189.78 168.02 189.82 180.26 193.02 191.94 C 195.28 198.38 199.67 205.72 207.31 206.07 C 208.48 208.54 209.92 210.88 211.51 213.11 C 204.47 213.64 197.89 210.65 190.98 209.98 C 180.70 208.72 170.33 209.14 160.00 209.11 C 126.50 209.09 93.00 209.12 59.50 209.09 C 54.03 208.24 48.51 208.34 43.02 208.93 C 35.42 209.71 28.20 206.34 20.63 206.61 C 16.73 206.64 12.82 207.25 8.93 206.71 C 5.49 206.16 2.79 203.78 0.00 201.89 L 0.00 30.54 C 4.83 25.11 10.25 19.83 17.09 17.06 C 26.86 13.07 37.51 11.75 48.00 11.93 C 86.34 12.06 124.67 11.93 163.01 11.99 C 170.18 12.05 177.50 12.49 184.50 10.59 C 195.91 7.22 207.09 3.10 218.59 0.00 M 420.34 31.13 C 423.12 32.15 425.98 33.03 428.97 33.12 C 437.31 33.52 445.64 34.46 454.00 34.13 C 621.67 34.09 789.35 34.14 957.02 34.11 C 963.35 33.80 969.66 33.05 976.01 33.27 C 979.27 33.45 982.54 32.94 985.42 31.33 C 983.05 29.97 980.66 28.52 977.97 27.91 C 969.47 25.94 960.70 25.53 952.00 25.78 C 781.66 25.80 611.32 25.79 440.99 25.79 C 433.89 26.16 425.97 26.12 420.34 31.13 Z" />
</g>
<g id="#f5f5f5ff">
<path fill="#f5f5f5" opacity="1.00" d=" M 206.34 16.28 C 217.74 12.14 229.96 11.09 242.00 10.79 C 281.00 10.83 320.00 10.83 359.00 10.79 C 369.69 10.91 380.65 11.95 390.51 16.38 C 393.28 17.57 395.48 19.68 397.53 21.84 C 347.02 22.22 296.51 21.90 246.00 22.01 C 239.45 22.14 232.85 21.54 226.34 22.48 C 214.86 24.35 205.79 35.30 206.03 46.93 C 205.96 92.95 206.05 138.98 205.99 185.00 C 206.05 192.03 205.51 199.19 207.31 206.07 C 199.67 205.72 195.28 198.38 193.02 191.94 C 189.82 180.26 189.78 168.02 189.93 156.00 C 189.97 122.32 189.90 88.64 189.95 54.97 C 189.79 48.85 191.98 42.79 191.12 36.70 C 188.52 35.14 185.42 34.80 182.47 34.47 C 175.33 33.85 168.16 34.10 161.00 34.09 C 125.00 34.10 89.00 34.09 53.00 34.10 C 47.08 34.14 41.12 33.69 35.22 34.38 C 24.94 35.54 16.05 44.15 14.51 54.37 C 13.69 59.87 14.10 65.46 14.08 71.00 C 14.14 91.33 14.02 111.66 14.14 132.00 C 14.20 141.34 12.93 150.64 13.20 160.00 C 13.11 166.70 14.44 173.82 11.19 180.04 C 6.20 172.33 5.94 162.88 5.77 154.00 C 5.86 128.00 5.79 102.00 5.81 76.00 C 5.80 65.91 5.07 55.44 8.73 45.82 C 11.45 38.23 17.49 31.82 25.11 29.05 C 34.96 25.36 45.65 25.69 56.00 25.80 C 91.00 25.83 126.00 25.80 161.00 25.82 C 168.59 25.79 176.30 26.36 183.77 24.70 C 191.66 22.96 198.71 18.81 206.34 16.28 Z" />
</g>
<g id="#9d2449ff">
<path fill="#9d2449" opacity="1.00" d=" M 226.34 22.48 C 232.85 21.54 239.45 22.14 246.00 22.01 C 296.51 21.90 347.02 22.22 397.53 21.84 C 400.34 21.90 403.15 22.00 405.97 22.10 C 405.93 27.04 406.04 31.99 406.02 36.93 C 406.02 41.96 406.03 46.98 405.97 52.00 C 406.06 103.59 405.90 155.17 406.05 206.76 C 406.06 207.29 406.07 208.37 406.07 208.90 C 406.11 213.27 405.99 217.63 405.99 222.00 C 348.53 222.03 291.06 221.96 233.60 222.01 C 225.27 222.64 217.18 219.13 211.51 213.11 C 209.92 210.88 208.48 208.54 207.31 206.07 C 205.51 199.19 206.05 192.03 205.99 185.00 C 206.05 138.98 205.96 92.95 206.03 46.93 C 205.79 35.30 214.86 24.35 226.34 22.48 M 284.48 54.52 C 281.15 55.93 278.68 58.69 275.97 60.97 C 264.74 70.76 253.45 80.48 242.13 90.16 C 240.49 91.69 238.57 93.54 238.83 96.00 C 238.86 98.40 240.80 100.07 242.40 101.59 C 255.17 112.47 267.86 123.45 280.51 134.48 C 282.44 136.19 284.99 137.76 287.66 136.74 C 290.68 136.07 291.93 132.79 291.60 129.97 C 291.82 127.37 289.48 125.75 287.82 124.17 C 281.46 118.88 275.28 113.39 268.96 108.06 C 266.03 105.56 263.02 102.73 262.08 98.85 C 260.65 94.00 262.85 88.79 266.56 85.59 C 273.65 79.33 280.89 73.25 288.07 67.10 C 289.85 65.50 292.04 63.70 291.61 61.00 C 292.15 57.14 288.33 53.29 284.48 54.52 M 313.78 54.81 C 310.42 56.61 307.81 59.46 304.93 61.89 C 294.02 71.35 283.10 80.79 272.13 90.16 C 270.22 91.83 268.19 94.15 268.94 96.91 C 269.85 100.00 272.82 101.80 275.08 103.89 C 287.35 114.25 299.37 124.93 311.61 135.33 C 314.67 138.59 321.47 136.90 321.39 132.02 C 321.79 125.34 321.38 118.64 321.44 111.96 C 328.55 112.62 335.76 114.26 341.85 118.15 C 346.05 120.84 349.44 125.04 350.34 130.04 C 352.32 138.47 349.61 146.88 347.85 155.06 C 346.71 158.77 352.08 161.22 354.67 158.66 C 366.58 149.81 375.05 135.09 373.97 119.95 C 373.88 108.92 369.37 97.38 360.14 90.88 C 348.93 82.84 334.85 80.54 321.40 79.51 C 321.39 72.68 321.86 65.83 321.31 59.02 C 321.12 55.57 316.80 53.20 313.78 54.81 Z" />
</g>
<g id="#f4f4f4ff">
<path fill="#f4f4f4" opacity="1.00" d=" M 420.34 31.13 C 425.97 26.12 433.89 26.16 440.99 25.79 C 611.32 25.79 781.66 25.80 952.00 25.78 C 960.70 25.53 969.47 25.94 977.97 27.91 C 980.66 28.52 983.05 29.97 985.42 31.33 C 982.54 32.94 979.27 33.45 976.01 33.27 C 969.66 33.05 963.35 33.80 957.02 34.11 C 789.35 34.14 621.67 34.09 454.00 34.13 C 445.64 34.46 437.31 33.52 428.97 33.12 C 425.98 33.03 423.12 32.15 420.34 31.13 Z" />
</g>
<g id="#dbdbdbff">
<path fill="#dbdbdb" opacity="1.00" d=" M 405.97 52.00 C 408.74 48.62 412.91 45.25 417.52 47.34 C 420.17 50.18 421.17 54.08 422.20 57.73 C 424.46 65.96 424.04 74.56 424.01 83.00 C 423.95 121.34 424.08 159.69 423.94 198.02 C 424.08 200.82 424.25 203.62 424.37 206.42 C 427.68 207.28 430.97 208.24 434.30 209.04 C 424.73 209.84 415.59 205.83 406.05 206.76 C 405.90 155.17 406.06 103.59 405.97 52.00 Z" />
</g>
<g id="#ffffffff">
<path fill="#ffffff" opacity="1.00" d=" M 284.48 54.52 C 288.33 53.29 292.15 57.14 291.61 61.00 C 292.04 63.70 289.85 65.50 288.07 67.10 C 280.89 73.25 273.65 79.33 266.56 85.59 C 262.85 88.79 260.65 94.00 262.08 98.85 C 263.02 102.73 266.03 105.56 268.96 108.06 C 275.28 113.39 281.46 118.88 287.82 124.17 C 289.48 125.75 291.82 127.37 291.60 129.97 C 291.93 132.79 290.68 136.07 287.66 136.74 C 284.99 137.76 282.44 136.19 280.51 134.48 C 267.86 123.45 255.17 112.47 242.40 101.59 C 240.80 100.07 238.86 98.40 238.83 96.00 C 238.57 93.54 240.49 91.69 242.13 90.16 C 253.45 80.48 264.74 70.76 275.97 60.97 C 278.68 58.69 281.15 55.93 284.48 54.52 Z" />
<path fill="#ffffff" opacity="1.00" d=" M 313.78 54.81 C 316.80 53.20 321.12 55.57 321.31 59.02 C 321.86 65.83 321.39 72.68 321.40 79.51 C 334.85 80.54 348.93 82.84 360.14 90.88 C 369.37 97.38 373.88 108.92 373.97 119.95 C 375.05 135.09 366.58 149.81 354.67 158.66 C 352.08 161.22 346.71 158.77 347.85 155.06 C 349.61 146.88 352.32 138.47 350.34 130.04 C 349.44 125.04 346.05 120.84 341.85 118.15 C 335.76 114.26 328.55 112.62 321.44 111.96 C 321.38 118.64 321.79 125.34 321.39 132.02 C 321.47 136.90 314.67 138.59 311.61 135.33 C 299.37 124.93 287.35 114.25 275.08 103.89 C 272.82 101.80 269.85 100.00 268.94 96.91 C 268.19 94.15 270.22 91.83 272.13 90.16 C 283.10 80.79 294.02 71.35 304.93 61.89 C 307.81 59.46 310.42 56.61 313.78 54.81 Z" />
</g>
<g id="#d4d4d4ff">
<path fill="#d4d4d4" opacity="1.00" d=" M 1014.10 81.68 C 1017.03 75.32 1016.64 67.56 1021.83 62.35 C 1024.85 64.58 1028.12 66.88 1029.45 70.57 C 1033.96 79.72 1033.07 90.13 1032.99 100.00 C 1033.00 122.67 1033.01 145.33 1032.99 168.00 C 1032.84 180.06 1034.14 192.51 1030.10 204.13 C 1027.23 212.93 1020.58 220.52 1011.91 223.92 C 999.91 228.88 986.69 228.04 974.00 227.99 C 798.98 228.02 623.96 227.98 448.94 228.01 C 445.35 228.14 441.86 229.15 438.60 230.63 C 432.34 233.44 426.03 236.23 420.28 240.00 L 222.79 240.00 C 218.40 237.75 214.31 234.75 209.46 233.55 C 203.74 232.09 197.81 232.95 191.99 232.95 C 156.00 232.98 120.00 232.88 84.00 233.00 C 77.66 232.93 71.34 232.28 65.00 232.02 C 58.65 231.73 52.14 231.25 46.21 228.76 C 41.46 226.92 38.73 221.83 38.22 216.97 C 37.88 214.59 39.61 212.30 42.03 212.07 C 47.85 211.07 53.81 210.82 59.50 209.09 C 93.00 209.12 126.50 209.09 160.00 209.11 C 170.33 209.14 180.70 208.72 190.98 209.98 C 197.89 210.65 204.47 213.64 211.51 213.11 C 217.18 219.13 225.27 222.64 233.60 222.01 C 233.12 224.41 231.93 227.14 233.47 229.41 C 235.38 233.16 239.94 233.78 243.67 234.35 C 252.43 235.33 261.15 237.06 270.00 237.02 C 305.33 236.85 340.67 237.06 376.00 236.90 C 383.71 236.98 391.42 238.33 399.12 237.29 C 406.17 236.36 413.49 235.36 419.67 231.58 C 424.05 228.90 428.74 226.76 433.11 224.05 C 437.13 221.59 438.40 213.79 432.98 212.13 C 424.41 208.97 415.07 209.23 406.07 208.90 C 406.07 208.37 406.06 207.29 406.05 206.76 C 415.59 205.83 424.73 209.84 434.30 209.04 C 435.46 209.09 436.61 209.13 437.78 209.15 C 620.19 209.02 802.60 209.18 985.01 209.06 C 991.37 209.14 997.96 208.00 1003.26 204.28 C 1010.51 199.46 1014.04 190.54 1014.02 182.05 C 1014.18 148.59 1014.07 115.13 1014.10 81.68 Z" />
</g>
<g id="#ddddddff">
</g>
<g id="#cdcdcdff">
<path fill="#cdcdcd" opacity="1.00" d=" M 406.07 208.90 C 415.07 209.23 424.41 208.97 432.98 212.13 C 438.40 213.79 437.13 221.59 433.11 224.05 C 428.74 226.76 424.05 228.90 419.67 231.58 C 413.49 235.36 406.17 236.36 399.12 237.29 C 391.42 238.33 383.71 236.98 376.00 236.90 C 340.67 237.06 305.33 236.85 270.00 237.02 C 261.15 237.06 252.43 235.33 243.67 234.35 C 239.94 233.78 235.38 233.16 233.47 229.41 C 231.93 227.14 233.12 224.41 233.60 222.01 C 291.06 221.96 348.53 222.03 405.99 222.00 C 405.99 217.63 406.11 213.27 406.07 208.90 Z" />
</g>
</svg>
