<?xml version="1.0" encoding="UTF-8" ?>
<!DOCTYPE svg PUBLIC "-//W3C//DTD SVG 1.1//EN" "http://www.w3.org/Graphics/SVG/1.1/DTD/svg11.dtd">
<svg width="283pt" height="230pt" viewBox="0 0 283 230" version="1.1" xmlns="http://www.w3.org/2000/svg">
<g id="#1568a0ff">
<path fill="#1568a0" opacity="1.00" d=" M 100.66 34.89 C 115.31 21.68 134.04 12.23 153.94 11.07 C 164.53 10.55 175.86 12.77 184.12 19.80 C 190.39 25.00 194.21 32.82 194.88 40.89 C 195.90 51.98 192.18 62.97 186.62 72.43 C 176.19 89.83 159.44 103.03 140.66 110.42 C 135.87 103.85 131.33 97.10 126.66 90.44 C 141.96 87.09 155.83 77.53 164.51 64.51 C 169.07 57.49 172.29 48.94 170.78 40.48 C 169.65 34.06 165.03 28.51 159.02 26.06 C 150.48 22.46 140.79 23.54 132.21 26.42 C 122.70 29.66 114.06 35.31 107.09 42.52 C 104.77 40.13 102.64 37.57 100.66 34.89 Z" />
<path fill="#1568a0" opacity="1.00" d=" M 97.52 58.91 C 106.76 57.36 115.95 55.48 125.24 54.25 C 121.80 59.44 121.20 65.78 122.21 71.79 C 120.18 77.67 118.93 84.16 121.81 90.01 C 114.00 90.65 105.05 89.42 99.76 83.02 C 94.12 76.32 94.71 66.69 97.52 58.91 Z" />
<path fill="#1568a0" opacity="1.00" d=" M 148.68 109.06 C 164.00 101.83 177.38 90.45 186.82 76.36 C 189.80 79.27 192.77 82.20 195.70 85.17 C 187.37 100.46 172.96 112.02 156.41 117.28 C 153.88 114.49 151.31 111.75 148.68 109.06 Z" />
<path fill="#1568a0" opacity="1.00" d=" M 123.68 194.49 C 124.01 194.17 124.69 193.53 125.03 193.21 C 125.38 193.52 126.06 194.16 126.40 194.47 C 125.49 195.51 124.58 195.52 123.68 194.49 Z" />
<path fill="#1568a0" opacity="1.00" d=" M 147.25 193.19 C 147.82 193.21 148.95 193.25 149.52 193.26 C 149.51 196.81 149.51 200.36 149.55 203.91 C 147.46 203.89 145.20 204.62 143.22 203.73 C 141.63 202.26 141.97 199.95 141.67 198.01 C 143.19 196.44 145.10 195.67 147.27 196.28 C 147.27 195.51 147.26 193.97 147.25 193.19 M 144.68 198.52 C 143.80 199.81 144.08 201.91 145.66 202.48 C 148.64 202.16 147.08 195.95 144.68 198.52 Z" />
<path fill="#1568a0" opacity="1.00" d=" M 131.91 196.28 C 131.43 194.10 132.20 193.01 134.23 193.01 C 134.30 196.67 134.30 200.32 134.22 203.98 C 132.51 204.04 130.79 204.23 129.08 204.12 C 126.25 203.43 126.14 199.52 127.26 197.41 C 128.26 195.71 130.29 196.12 131.91 196.28 M 129.95 202.67 C 130.47 202.44 131.51 201.98 132.04 201.76 C 131.84 200.24 132.40 197.54 130.02 197.90 C 128.17 199.00 129.21 201.19 129.95 202.67 Z" />
<path fill="#1568a0" opacity="1.00" d=" M 168.75 195.58 C 169.42 194.85 170.16 194.19 170.95 193.59 C 171.36 194.31 172.17 195.76 172.57 196.48 C 172.36 196.82 171.94 197.51 171.73 197.86 C 170.96 198.70 169.30 201.67 171.26 201.76 L 173.33 201.49 C 173.59 201.13 174.11 200.41 174.37 200.04 L 174.70 200.16 C 176.50 202.20 174.65 204.99 172.06 204.27 C 168.88 204.32 169.23 200.63 169.19 198.44 C 168.59 198.38 167.39 198.24 166.80 198.17 C 166.63 200.10 166.52 202.04 166.43 203.99 C 165.99 204.00 165.10 204.01 164.65 204.02 C 164.57 201.41 164.44 198.80 164.44 196.19 C 164.95 196.29 165.96 196.50 166.46 196.60 C 167.04 196.34 168.18 195.84 168.75 195.58 Z" />
<path fill="#1568a0" opacity="1.00" d=" M 191.04 193.21 C 191.59 193.22 192.70 193.24 193.26 193.25 C 193.26 196.82 193.26 200.39 193.26 203.96 C 190.52 203.95 187.78 204.22 185.04 204.09 C 183.09 203.78 182.94 200.37 184.93 199.91 C 186.17 199.32 187.44 198.78 188.66 198.12 C 186.85 198.30 185.05 198.40 183.24 198.44 C 184.54 196.08 187.28 195.37 189.68 196.39 C 190.76 198.72 190.17 201.39 190.56 203.87 C 190.93 200.33 190.89 196.76 191.04 193.21 M 187.24 200.35 C 186.87 200.58 186.14 201.04 185.78 201.28 C 185.23 204.80 190.93 200.78 187.24 200.35 Z" />
<path fill="#1568a0" opacity="1.00" d=" M 86.50 196.29 C 88.57 196.37 90.73 195.84 92.75 196.43 C 94.43 198.37 93.56 201.32 94.06 203.69 C 93.44 203.81 92.19 204.05 91.56 204.17 C 91.50 201.96 91.42 199.75 91.18 197.56 C 87.84 197.90 89.07 201.71 88.68 204.01 C 88.13 204.01 87.03 204.00 86.48 203.99 C 86.48 201.42 86.49 198.86 86.50 196.29 Z" />
<path fill="#1568a0" opacity="1.00" d=" M 104.29 201.01 C 103.59 198.25 105.94 195.20 108.90 196.07 C 111.32 196.45 111.31 199.23 111.87 201.08 C 110.06 201.09 108.25 201.07 106.45 201.01 C 106.79 201.38 107.47 202.13 107.81 202.50 C 109.06 201.91 110.37 201.68 111.74 201.80 C 110.65 205.63 104.49 204.96 104.29 201.01 M 107.19 198.00 C 106.62 199.53 107.20 200.06 108.92 199.60 C 109.49 198.06 108.91 197.53 107.19 198.00 Z" />
<path fill="#1568a0" opacity="1.00" d=" M 112.04 196.06 C 112.65 196.15 113.87 196.33 114.49 196.42 C 117.63 196.33 121.81 194.83 123.68 198.38 C 121.94 198.30 120.21 198.16 118.48 197.96 C 119.97 198.73 121.54 199.35 123.03 200.14 C 125.58 204.85 116.37 206.02 115.93 201.38 C 117.71 201.47 119.68 203.18 121.40 201.90 C 119.16 201.07 116.38 200.60 115.70 197.85 C 113.70 199.28 114.42 201.91 114.16 204.00 C 113.61 204.00 112.52 204.00 111.97 204.00 C 111.92 201.35 111.88 198.71 112.04 196.06 Z" />
<path fill="#1568a0" opacity="1.00" d=" M 123.67 195.80 C 124.58 195.92 125.49 196.04 126.41 196.17 C 126.19 198.77 126.17 201.39 126.23 204.00 C 125.66 204.00 124.53 204.00 123.97 204.00 C 124.00 201.26 124.04 198.52 123.67 195.80 Z" />
<path fill="#1568a0" opacity="1.00" d=" M 135.46 198.99 C 133.97 195.41 139.23 195.70 141.31 196.70 C 141.32 199.14 141.48 201.58 141.84 204.00 C 139.41 203.67 134.88 205.56 134.50 201.96 C 134.71 199.19 138.28 199.71 139.65 197.78 C 138.60 198.08 136.51 198.69 135.46 198.99 M 137.28 200.88 C 136.72 202.47 137.27 202.97 138.95 202.37 C 139.52 200.78 138.96 200.28 137.28 200.88 Z" />
<path fill="#1568a0" opacity="1.00" d=" M 153.15 196.25 C 153.77 196.24 155.00 196.24 155.61 196.23 C 156.17 197.80 156.74 199.36 157.30 200.93 C 158.21 198.65 158.59 195.38 161.89 195.84 C 160.70 198.47 159.51 201.11 158.55 203.84 C 157.97 203.90 156.82 204.02 156.24 204.08 C 155.22 201.46 154.18 198.86 153.15 196.25 Z" />
<path fill="#1568a0" opacity="1.00" d=" M 180.79 196.32 C 181.32 196.26 182.38 196.14 182.92 196.08 C 183.01 198.71 183.07 201.34 183.09 203.97 C 181.09 204.04 179.09 204.24 177.09 204.08 C 175.63 202.76 175.69 200.66 175.72 198.86 C 175.85 198.43 176.12 197.58 176.25 197.15 C 176.57 197.03 177.21 196.78 177.53 196.66 L 178.20 196.35 C 178.88 198.22 176.94 202.10 179.88 202.63 C 181.30 200.86 180.56 198.40 180.79 196.32 Z" />
<path fill="#1568a0" opacity="1.00" d=" M 78.98 204.10 C 78.49 201.49 78.43 198.84 78.46 196.19 L 80.70 196.25 C 81.02 198.35 80.11 200.98 81.74 202.70 C 84.39 201.64 83.17 198.26 83.59 196.12 C 84.16 196.21 85.31 196.37 85.88 196.46 C 85.79 198.97 85.76 201.49 85.75 204.00 C 83.49 204.05 81.24 204.12 78.98 204.10 Z" />
<path fill="#1568a0" opacity="1.00" d=" M 94.48 196.24 C 96.01 196.23 97.54 196.22 99.08 196.22 C 99.65 197.76 100.22 199.31 100.77 200.87 C 101.67 198.77 101.88 195.78 104.87 195.86 C 103.97 198.72 102.91 201.52 101.83 204.32 C 98.20 203.95 98.37 199.41 96.80 196.92 C 96.77 199.36 96.77 201.80 96.75 204.24 C 96.22 204.12 95.16 203.89 94.63 203.77 C 94.37 201.27 94.49 198.75 94.48 196.24 Z" />
<path fill="#1568a0" opacity="1.00" d=" M 162.09 196.16 C 162.48 196.29 163.26 196.56 163.65 196.70 C 164.69 199.11 164.25 201.84 164.41 204.40 C 163.70 204.29 162.28 204.06 161.56 203.94 C 161.29 201.34 161.38 198.69 162.09 196.16 Z" />
</g>
<g id="#114d80ff">
<path fill="#114d80" opacity="1.00" d=" M 128.91 28.85 C 138.26 25.02 149.49 23.37 158.77 28.25 C 166.09 32.02 170.67 40.28 169.57 48.52 C 164.55 46.41 159.11 46.64 153.85 47.39 C 149.69 46.15 145.51 44.19 141.05 44.91 C 134.65 45.41 129.01 49.20 125.24 54.25 C 115.95 55.48 106.76 57.36 97.52 58.91 C 103.19 45.05 115.34 34.63 128.91 28.85 Z" />
<path fill="#114d80" opacity="1.00" d=" M 78.39 69.07 C 82.28 55.81 90.58 44.19 100.66 34.89 C 102.64 37.57 104.77 40.13 107.09 42.52 C 100.57 49.53 95.17 58.16 94.13 67.85 C 93.25 74.95 96.13 82.61 102.10 86.75 C 109.16 91.79 118.43 91.97 126.66 90.44 C 131.33 97.10 135.87 103.85 140.66 110.42 C 128.47 115.04 114.92 117.16 102.10 114.04 C 93.04 111.85 84.59 106.19 80.25 97.79 C 75.55 89.02 75.68 78.44 78.39 69.07 Z" />
<path fill="#114d80" opacity="1.00" d=" M 196.00 54.06 C 196.84 49.54 196.42 44.94 196.37 40.39 C 197.75 46.49 199.72 52.43 201.34 58.47 C 203.05 67.77 200.13 77.15 195.89 85.36 L 195.70 85.17 C 192.77 82.20 189.80 79.27 186.82 76.36 C 191.09 69.51 194.61 62.06 196.00 54.06 Z" />
<path fill="#114d80" opacity="1.00" d=" M 117.40 116.83 C 128.22 116.32 138.91 113.78 148.68 109.06 C 151.31 111.75 153.88 114.49 156.41 117.28 C 148.83 119.44 140.81 121.18 132.94 119.67 C 127.76 118.69 122.45 118.37 117.40 116.83 Z" />
<path fill="#114d80" opacity="1.00" d=" M 140.77 141.68 C 144.33 134.20 151.64 128.58 159.87 127.39 C 169.01 125.94 179.27 128.25 185.54 135.43 C 192.17 142.90 193.31 153.41 193.29 162.99 C 180.05 163.02 166.82 162.96 153.59 163.02 C 154.06 167.18 155.00 171.73 158.43 174.51 C 164.15 178.77 173.89 177.36 176.71 170.27 C 182.11 170.24 187.51 170.26 192.92 170.26 C 190.20 177.89 185.13 185.51 177.00 187.97 C 168.72 190.46 159.33 190.22 151.47 186.47 C 143.49 182.57 138.93 173.97 137.75 165.45 C 136.69 157.48 137.25 149.01 140.77 141.68 M 153.80 152.49 C 161.69 152.50 169.59 152.53 177.49 152.47 C 177.27 145.89 172.00 139.21 164.98 139.71 C 158.38 139.82 153.72 146.22 153.80 152.49 Z" />
<path fill="#114d80" opacity="1.00" d=" M 206.15 132.21 C 211.89 127.46 220.05 125.30 227.22 127.79 C 231.99 129.39 235.71 132.98 238.77 136.84 C 238.75 134.14 238.75 131.45 238.75 128.75 C 243.65 128.75 248.55 128.77 253.45 128.73 C 253.57 150.15 253.44 171.58 253.52 193.00 C 253.83 200.19 249.07 206.49 243.61 210.66 C 232.23 218.85 215.35 218.35 204.42 209.60 C 198.73 205.13 195.51 197.97 195.62 190.76 C 200.60 190.74 205.57 190.76 210.54 190.75 C 210.70 194.49 212.04 198.48 215.40 200.52 C 220.99 203.75 229.26 203.94 233.70 198.66 C 237.69 194.16 237.77 187.83 237.87 182.16 C 233.41 187.90 225.79 189.24 218.93 188.75 C 209.49 188.68 201.13 181.67 198.02 172.99 C 195.49 165.92 195.30 158.21 196.19 150.83 C 197.06 143.68 200.40 136.68 206.15 132.21 M 220.38 141.48 C 215.08 143.60 212.58 149.46 212.31 154.84 C 211.96 160.81 211.98 167.86 216.83 172.17 C 221.36 176.58 229.19 175.88 233.39 171.37 C 238.01 166.50 238.34 159.20 237.59 152.90 C 236.96 148.21 234.80 142.82 229.92 141.23 C 226.82 140.45 223.41 140.41 220.38 141.48 Z" />
<path fill="#114d80" opacity="1.00" d=" M 30.01 128.75 C 35.25 128.75 40.50 128.74 45.75 128.76 C 45.82 141.20 45.49 153.64 46.11 166.07 C 46.25 169.13 46.98 172.54 49.62 174.43 C 54.54 177.88 61.81 175.99 65.34 171.40 C 67.84 168.16 67.59 163.83 67.91 159.97 C 68.13 149.56 67.94 139.16 68.01 128.75 C 73.25 128.75 78.50 128.75 83.75 128.76 C 83.75 148.50 83.73 168.24 83.75 187.99 C 78.67 188.00 73.59 187.99 68.50 188.00 C 68.50 185.19 68.50 182.38 68.53 179.58 C 62.88 190.68 47.08 191.99 37.40 185.68 C 31.32 181.65 30.01 173.77 30.00 167.01 C 30.00 154.26 30.01 141.51 30.01 128.75 Z" />
<path fill="#114d80" opacity="1.00" d=" M 84.43 128.76 C 90.18 128.99 96.08 128.27 101.73 129.09 C 106.06 142.08 109.93 155.24 114.12 168.29 C 118.37 155.11 122.23 141.79 126.90 128.75 C 132.25 128.75 137.60 128.76 142.95 128.74 C 136.02 148.43 129.00 168.09 121.98 187.75 C 116.47 187.73 110.97 187.75 105.46 187.74 C 98.45 168.08 91.41 148.43 84.43 128.76 Z" />
<path fill="#114d80" opacity="1.00" d=" M 94.79 193.53 C 96.41 192.95 96.99 193.49 96.52 195.15 C 94.91 195.71 94.34 195.17 94.79 193.53 Z" />
<path fill="#114d80" opacity="1.00" d=" M 161.77 193.43 C 163.43 192.87 164.01 193.39 163.49 195.00 C 161.84 195.57 161.26 195.04 161.77 193.43 Z" />
<path fill="#114d80" opacity="1.00" d=" M 172.57 196.48 C 173.06 196.30 174.03 195.96 174.51 195.79 C 175.44 196.77 175.27 197.61 174.00 198.30 C 173.43 198.19 172.30 197.97 171.73 197.86 C 171.94 197.51 172.36 196.82 172.57 196.48 Z" />
<path fill="#114d80" opacity="1.00" d=" M 176.25 197.15 C 176.22 196.80 176.15 196.10 176.12 195.75 L 177.13 195.81 L 177.53 196.66 C 177.21 196.78 176.57 197.03 176.25 197.15 Z" />
<path fill="#114d80" opacity="1.00" d=" M 171.26 201.76 C 169.30 201.67 170.96 198.70 171.73 197.86 C 172.19 199.24 172.03 200.54 171.26 201.76 Z" />
<path fill="#114d80" opacity="1.00" d=" M 173.68 199.84 L 174.37 200.04 C 174.11 200.41 173.59 201.13 173.33 201.49 L 173.04 200.63 L 173.68 199.84 Z" />
<path fill="#114d80" opacity="1.00" d=" M 48.25 204.75 C 48.99 204.74 49.74 204.74 50.49 204.74 C 50.50 208.43 50.50 212.11 50.50 215.79 C 50.03 215.74 49.07 215.62 48.59 215.56 C 48.65 211.95 48.07 208.36 48.25 204.75 Z" />
<path fill="#114d80" opacity="1.00" d=" M 38.00 204.75 C 38.56 204.75 39.68 204.76 40.24 204.76 C 40.26 208.38 40.28 212.01 40.26 215.63 C 38.26 215.64 36.25 216.04 34.27 215.69 C 31.99 214.46 32.14 211.13 32.95 209.04 C 33.88 207.03 36.31 207.66 38.03 207.85 C 38.02 207.08 38.01 205.52 38.00 204.75 M 36.91 214.09 C 38.58 212.87 37.71 210.79 37.44 209.16 C 34.25 208.82 33.52 214.35 36.91 214.09 Z" />
<path fill="#114d80" opacity="1.00" d=" M 88.74 204.30 C 92.32 203.74 91.05 207.32 91.13 209.53 C 92.55 208.13 94.48 206.61 96.60 207.49 C 99.95 208.21 100.56 213.16 97.86 215.01 C 95.97 216.61 93.45 215.46 91.61 214.41 C 89.91 215.94 87.46 215.66 85.36 215.62 C 83.17 214.28 83.34 211.25 83.62 209.04 C 84.72 207.15 86.98 207.36 88.84 207.53 C 88.81 206.72 88.77 205.10 88.74 204.30 M 86.18 209.43 C 85.43 210.93 85.30 214.22 87.74 213.82 C 89.75 212.65 88.98 207.99 86.18 209.43 M 94.39 209.57 C 92.68 210.83 93.52 214.41 95.91 213.79 C 98.33 212.84 96.87 207.83 94.39 209.57 Z" />
<path fill="#114d80" opacity="1.00" d=" M 108.69 207.63 C 108.60 205.92 108.94 204.44 110.87 204.15 C 111.11 207.95 111.27 211.76 111.02 215.56 C 110.40 215.53 109.16 215.47 108.53 215.44 C 104.33 217.33 101.71 212.02 103.82 208.77 C 104.85 207.00 107.02 207.33 108.69 207.63 M 107.87 213.83 C 109.55 212.15 108.55 209.83 106.96 208.55 C 105.24 210.00 104.67 214.24 107.87 213.83 Z" />
<path fill="#114d80" opacity="1.00" d=" M 69.43 205.76 L 71.68 205.74 C 71.70 206.21 71.76 207.16 71.79 207.63 C 73.35 207.79 74.91 207.97 76.47 208.16 C 78.22 207.40 80.29 206.80 82.07 207.82 C 83.74 209.96 83.07 212.92 83.27 215.44 C 80.74 215.50 78.14 215.92 75.70 215.01 C 73.65 216.26 71.39 216.08 69.58 214.50 C 67.81 215.96 63.45 216.83 62.89 214.01 C 63.21 211.42 66.39 214.71 68.09 213.81 C 66.07 212.43 61.89 212.33 62.53 209.02 C 64.10 206.35 67.62 207.19 69.73 208.65 C 69.66 207.93 69.51 206.48 69.43 205.76 M 64.99 209.16 C 65.22 210.72 68.23 211.43 69.63 210.92 C 69.22 209.29 66.46 208.84 64.99 209.16 M 71.73 209.14 C 71.74 210.66 71.76 212.19 71.77 213.72 C 72.15 213.75 72.90 213.81 73.28 213.84 C 73.66 212.41 74.23 211.06 74.97 209.78 C 75.31 210.28 75.99 211.27 76.32 211.77 C 77.96 211.05 79.68 210.45 81.11 209.34 C 79.77 209.45 78.44 209.64 77.12 209.84 C 75.35 209.41 73.54 209.24 71.73 209.14 M 78.23 212.28 C 76.76 213.77 79.55 215.24 80.48 213.72 C 81.87 212.21 79.17 210.76 78.23 212.28 Z" />
<path fill="#114d80" opacity="1.00" d=" M 179.75 205.77 C 180.28 205.76 181.35 205.73 181.89 205.72 C 181.95 206.24 182.07 207.28 182.13 207.80 C 183.48 207.78 184.84 207.75 186.20 207.73 L 186.30 209.24 C 184.84 209.24 183.39 209.24 181.95 209.25 C 182.01 210.91 182.08 212.57 182.20 214.24 C 183.62 213.67 183.98 212.25 184.37 210.93 C 186.58 209.78 188.25 206.87 191.05 207.56 C 195.02 208.12 195.50 214.41 191.87 215.79 C 189.76 216.65 187.82 215.38 186.18 214.19 C 184.73 215.86 181.67 216.88 180.21 214.72 C 179.45 211.81 179.77 208.75 179.75 205.77 M 189.48 209.63 C 188.15 209.63 188.59 211.61 188.48 212.50 C 188.51 214.30 191.41 214.79 191.73 212.89 C 192.71 211.35 191.39 208.85 189.48 209.63 Z" />
<path fill="#114d80" opacity="1.00" d=" M 54.73 213.08 C 53.44 210.08 56.35 206.24 59.58 207.49 C 61.77 207.98 61.96 210.42 62.59 212.18 C 60.64 212.22 58.70 212.25 56.75 212.26 C 57.06 212.70 57.66 213.58 57.96 214.01 C 59.25 213.57 60.54 212.99 61.95 213.15 C 61.70 216.89 55.25 216.64 54.73 213.08 M 57.31 209.47 C 56.21 210.86 58.70 212.11 59.58 210.87 C 60.64 209.49 58.18 208.22 57.31 209.47 Z" />
<path fill="#114d80" opacity="1.00" d=" M 138.94 209.79 C 138.61 206.74 143.10 206.69 144.85 208.11 C 145.24 210.21 145.32 212.36 145.67 214.47 C 145.78 212.19 145.69 209.91 145.65 207.63 C 148.02 207.78 150.68 206.80 152.86 208.11 C 153.06 209.33 153.22 210.56 153.33 211.80 C 155.00 211.18 156.67 210.58 158.34 209.97 C 157.03 208.17 154.12 211.58 153.92 209.00 C 154.35 206.42 158.17 207.12 159.92 208.04 C 160.92 210.99 160.36 214.17 160.48 217.22 C 163.54 215.24 161.38 210.56 162.00 207.49 C 162.56 207.50 163.69 207.53 164.25 207.54 C 164.04 210.93 164.88 214.54 163.74 217.79 C 161.97 220.43 157.91 218.60 157.85 215.63 C 155.60 215.56 153.35 215.45 151.10 215.44 C 151.00 213.42 151.04 211.39 150.57 209.42 C 147.20 208.35 148.23 213.57 147.88 215.49 C 142.84 215.56 137.80 215.39 132.77 215.59 C 129.55 214.57 131.16 210.06 130.52 207.52 C 131.19 207.51 132.52 207.50 133.19 207.49 C 133.74 209.61 132.00 213.48 134.89 214.19 C 137.38 212.29 134.07 206.89 138.34 207.29 C 138.25 208.80 138.16 210.32 138.06 211.83 C 139.79 211.19 141.55 210.62 143.30 210.02 C 142.09 208.65 140.42 210.09 138.94 209.79 M 140.56 212.33 C 139.37 213.90 142.13 215.17 143.00 213.68 C 144.23 212.08 141.40 210.79 140.56 212.33 M 155.58 212.31 C 154.36 213.86 157.10 215.19 157.99 213.69 C 159.24 212.12 156.45 210.77 155.58 212.31 Z" />
<path fill="#114d80" opacity="1.00" d=" M 43.98 216.03 C 39.29 215.96 39.24 207.63 43.95 207.42 C 46.91 207.13 48.09 210.06 48.40 212.47 C 46.53 212.49 44.66 212.50 42.79 212.53 C 43.04 212.92 43.55 213.72 43.80 214.12 C 44.55 214.12 46.05 214.13 46.80 214.14 C 48.03 215.96 45.12 215.99 43.98 216.03 M 43.11 209.70 C 42.03 211.18 44.78 212.05 45.60 210.95 C 46.60 209.47 43.93 208.56 43.11 209.70 Z" />
<path fill="#114d80" opacity="1.00" d=" M 114.95 215.78 C 110.14 216.01 110.21 207.10 115.01 207.29 C 117.89 206.98 118.78 210.04 119.32 212.21 C 117.37 212.25 115.41 212.26 113.46 212.28 C 113.78 212.72 114.42 213.59 114.74 214.03 C 116.19 213.50 117.69 213.11 119.22 212.87 C 118.26 214.40 117.08 216.29 114.95 215.78 M 114.11 209.38 C 113.04 210.80 115.57 211.96 116.47 210.81 C 117.51 209.43 115.00 208.20 114.11 209.38 Z" />
<path fill="#114d80" opacity="1.00" d=" M 124.14 207.89 C 126.05 207.04 128.24 207.68 130.27 207.54 C 130.38 210.34 130.76 213.14 130.64 215.95 C 130.35 220.01 123.10 219.83 122.58 215.84 C 124.74 216.15 127.04 217.44 129.06 215.93 C 127.12 215.22 124.05 216.11 123.19 213.71 C 122.26 211.85 122.57 209.31 124.14 207.89 M 126.18 209.18 C 124.30 210.51 125.33 212.77 126.39 214.24 C 128.72 213.29 129.34 208.95 126.18 209.18 Z" />
<path fill="#114d80" opacity="1.00" d=" M 164.74 207.75 C 165.29 207.75 166.39 207.75 166.93 207.75 C 167.48 209.78 165.88 213.52 168.35 214.31 C 170.76 212.94 169.39 209.69 169.84 207.48 C 170.37 207.62 171.43 207.90 171.96 208.04 C 172.18 210.57 172.14 213.11 172.20 215.65 C 169.97 215.57 167.68 216.16 165.50 215.51 C 165.49 215.50 165.47 215.46 165.45 215.45 C 164.25 213.09 164.95 210.29 164.74 207.75 Z" />
<path fill="#114d80" opacity="1.00" d=" M 172.97 210.59 C 173.02 209.53 173.08 208.48 173.15 207.42 C 175.04 207.63 177.12 207.31 178.86 208.27 C 179.40 210.72 179.36 213.24 179.54 215.73 C 177.32 215.22 172.87 217.36 172.45 214.02 C 171.47 210.94 175.56 211.14 177.37 210.19 C 176.07 208.64 174.38 210.25 172.97 210.59 M 175.47 212.17 C 175.19 212.47 174.64 213.07 174.36 213.37 C 175.15 216.76 179.34 211.43 175.47 212.17 Z" />
</g>
<g id="#566591ff">
<path fill="#566591" opacity="1.00" d=" M 129.72 51.69 C 136.62 45.10 148.54 44.95 155.53 51.46 C 159.65 55.13 161.34 60.64 161.61 66.00 C 155.56 73.64 148.28 80.59 139.17 84.40 C 134.95 83.35 130.73 81.52 127.97 78.01 C 121.60 70.58 122.43 58.22 129.72 51.69 Z" />
</g>
<g id="#0a2f4c8f">
<path fill="#0a2f4c" opacity="0.56" d=" M 162.09 196.16 C 163.07 194.86 163.59 195.04 163.65 196.70 C 163.26 196.56 162.48 196.29 162.09 196.16 Z" />
<path fill="#0a2f4c" opacity="0.56" d=" M 164.44 196.19 C 164.85 196.10 165.67 195.90 166.08 195.81 L 166.46 196.60 C 165.96 196.50 164.95 196.29 164.44 196.19 Z" />
<path fill="#0a2f4c" opacity="0.56" d=" M 165.45 215.45 C 165.47 215.46 165.49 215.50 165.50 215.51 C 165.49 215.50 165.47 215.46 165.45 215.45 Z" />
</g>
</svg>
